  0
SECTION
  2
HEADER
  9
$ACADVER
  1
AC1014
  9
$ACADMAINTVER
 70
     9
  9
$DWGCODEPAGE
  3
ANSI_1252
  9
$INSBASE
 10
0.0
 20
0.0
 30
0.0
  9
$EXTMIN
 10
1.000000000000000E+20
 20
1.000000000000000E+20
 30
1.000000000000000E+20
  9
$EXTMAX
 10
-1.000000000000000E+20
 20
-1.000000000000000E+20
 30
-1.000000000000000E+20
  9
$LIMMIN
 10
0.0
 20
0.0
  9
$LIMMAX
 10
12.0
 20
9.0
  9
$ORTHOMODE
 70
     0
  9
$REGENMODE
 70
     1
  9
$FILLMODE
 70
     1
  9
$QTEXTMODE
 70
     0
  9
$MIRRTEXT
 70
     1
  9
$DRAGMODE
 70
     2
  9
$LTSCALE
 40
1.0
  9
$OSMODE
 70
    37
  9
$ATTMODE
 70
     1
  9
$TEXTSIZE
 40
0.2
  9
$TRACEWID
 40
0.05
  9
$TEXTSTYLE
  7
STANDARD
  9
$CLAYER
  8
0
  9
$CELTYPE
  6
BYLAYER
  9
$CECOLOR
 62
   256
  9
$CELTSCALE
 40
1.0
  9
$DELOBJ
 70
     1
  9
$DISPSILH
 70
     0
  9
$DIMSCALE
 40
1.0
  9
$DIMASZ
 40
0.18
  9
$DIMEXO
 40
0.0625
  9
$DIMDLI
 40
0.38
  9
$DIMRND
 40
0.0
  9
$DIMDLE
 40
0.0
  9
$DIMEXE
 40
0.18
  9
$DIMTP
 40
0.0
  9
$DIMTM
 40
0.0
  9
$DIMTXT
 40
0.18
  9
$DIMCEN
 40
0.09
  9
$DIMTSZ
 40
0.0
  9
$DIMTOL
 70
     0
  9
$DIMLIM
 70
     0
  9
$DIMTIH
 70
     1
  9
$DIMTOH
 70
     1
  9
$DIMSE1
 70
     0
  9
$DIMSE2
 70
     0
  9
$DIMTAD
 70
     0
  9
$DIMZIN
 70
     0
  9
$DIMBLK
  1

  9
$DIMASO
 70
     1
  9
$DIMSHO
 70
     1
  9
$DIMPOST
  1

  9
$DIMAPOST
  1

  9
$DIMALT
 70
     0
  9
$DIMALTD
 70
     2
  9
$DIMALTF
 40
25.4
  9
$DIMLFAC
 40
1.0
  9
$DIMTOFL
 70
     0
  9
$DIMTVP
 40
0.0
  9
$DIMTIX
 70
     0
  9
$DIMSOXD
 70
     0
  9
$DIMSAH
 70
     0
  9
$DIMBLK1
  1

  9
$DIMBLK2
  1

  9
$DIMSTYLE
  2
STANDARD
  9
$DIMCLRD
 70
     0
  9
$DIMCLRE
 70
     0
  9
$DIMCLRT
 70
     0
  9
$DIMTFAC
 40
1.0
  9
$DIMGAP
 40
0.09
  9
$DIMJUST
 70
     0
  9
$DIMSD1
 70
     0
  9
$DIMSD2
 70
     0
  9
$DIMTOLJ
 70
     1
  9
$DIMTZIN
 70
     0
  9
$DIMALTZ
 70
     0
  9
$DIMALTTZ
 70
     0
  9
$DIMFIT
 70
     3
  9
$DIMUPT
 70
     0
  9
$DIMUNIT
 70
     2
  9
$DIMDEC
 70
     4
  9
$DIMTDEC
 70
     4
  9
$DIMALTU
 70
     2
  9
$DIMALTTD
 70
     2
  9
$DIMTXSTY
  7
STANDARD
  9
$DIMAUNIT
 70
     0
  9
$LUNITS
 70
     2
  9
$LUPREC
 70
     4
  9
$SKETCHINC
 40
0.1
  9
$FILLETRAD
 40
0.5
  9
$AUNITS
 70
     0
  9
$AUPREC
 70
     0
  9
$MENU
  1
.
  9
$ELEVATION
 40
0.0
  9
$PELEVATION
 40
0.0
  9
$THICKNESS
 40
0.0
  9
$LIMCHECK
 70
     0
  9
$CHAMFERA
 40
0.0
  9
$CHAMFERB
 40
0.0
  9
$CHAMFERC
 40
0.0
  9
$CHAMFERD
 40
0.0
  9
$SKPOLY
 70
     0
  9
$TDCREATE
 40
2456878.826455174
  9
$TDUPDATE
 40
2456878.826455405
  9
$TDINDWG
 40
0.0000000116
  9
$TDUSRTIMER
 40
0.0000000116
  9
$USRTIMER
 70
     1
  9
$ANGBASE
 50
0.0
  9
$ANGDIR
 70
     0
  9
$PDMODE
 70
     0
  9
$PDSIZE
 40
0.0
  9
$PLINEWID
 40
0.0
  9
$COORDS
 70
     1
  9
$SPLFRAME
 70
     0
  9
$SPLINETYPE
 70
     6
  9
$SPLINESEGS
 70
     8
  9
$ATTDIA
 70
     0
  9
$ATTREQ
 70
     1
  9
$HANDLING
 70
     1
  9
$HANDSEED
  5
3A4
  9
$SURFTAB1
 70
     6
  9
$SURFTAB2
 70
     6
  9
$SURFTYPE
 70
     6
  9
$SURFU
 70
     6
  9
$SURFV
 70
     6
  9
$UCSNAME
  2

  9
$UCSORG
 10
0.0
 20
0.0
 30
0.0
  9
$UCSXDIR
 10
1.0
 20
0.0
 30
0.0
  9
$UCSYDIR
 10
0.0
 20
1.0
 30
0.0
  9
$PUCSNAME
  2

  9
$PUCSORG
 10
0.0
 20
0.0
 30
0.0
  9
$PUCSXDIR
 10
1.0
 20
0.0
 30
0.0
  9
$PUCSYDIR
 10
0.0
 20
1.0
 30
0.0
  9
$USERI1
 70
     0
  9
$USERI2
 70
     0
  9
$USERI3
 70
     0
  9
$USERI4
 70
     0
  9
$USERI5
 70
     0
  9
$USERR1
 40
0.0
  9
$USERR2
 40
0.0
  9
$USERR3
 40
0.0
  9
$USERR4
 40
0.0
  9
$USERR5
 40
0.0
  9
$WORLDVIEW
 70
     1
  9
$SHADEDGE
 70
     3
  9
$SHADEDIF
 70
    70
  9
$TILEMODE
 70
     1
  9
$MAXACTVP
 70
    64
  9
$PINSBASE
 10
0.0
 20
0.0
 30
0.0
  9
$PLIMCHECK
 70
     0
  9
$PEXTMIN
 10
1.000000000000000E+20
 20
1.000000000000000E+20
 30
1.000000000000000E+20
  9
$PEXTMAX
 10
-1.000000000000000E+20
 20
-1.000000000000000E+20
 30
-1.000000000000000E+20
  9
$PLIMMIN
 10
0.0
 20
0.0
  9
$PLIMMAX
 10
12.0
 20
9.0
  9
$UNITMODE
 70
     0
  9
$VISRETAIN
 70
     1
  9
$PLINEGEN
 70
     0
  9
$PSLTSCALE
 70
     1
  9
$TREEDEPTH
 70
  3020
  9
$PICKSTYLE
 70
     1
  9
$CMLSTYLE
  2
STANDARD
  9
$CMLJUST
 70
     0
  9
$CMLSCALE
 40
1.0
  9
$PROXYGRAPHICS
 70
     1
  9
$MEASUREMENT
 70
     0
  0
ENDSEC
  0
SECTION
  2
CLASSES
  0
CLASS
  1
ACDBDICTIONARYWDFLT
  2
AcDbDictionaryWithDefault
  3
ObjectDBX Classes
 90
        0
280
     0
281
     0
  0
CLASS
  1
VISUALSTYLE
  2
AcDbVisualStyle
  3
ObjectDBX Classes
 90
     4095
280
     0
281
     0
  0
CLASS
  1
MATERIAL
  2
AcDbMaterial
  3
ObjectDBX Classes
 90
     1153
280
     0
281
     0
  0
CLASS
  1
SCALE
  2
AcDbScale
  3
ObjectDBX Classes
 90
     1153
280
     0
281
     0
  0
CLASS
  1
SUN
  2
AcDbSun
  3
SCENEOE
 90
     1153
280
     0
281
     0
  0
CLASS
  1
DICTIONARYVAR
  2
AcDbDictionaryVar
  3
ObjectDBX Classes
 90
        0
280
     0
281
     0
  0
CLASS
  1
XRECORD
  2
AcDbXrecord
  3
ObjectDBX Classes
 90
        0
280
     0
281
     0
  0
CLASS
  1
LWPOLYLINE
  2
AcDbPolyline
  3
ObjectDBX Classes
 90
        0
280
     0
281
     1
  0
CLASS
  1
HATCH
  2
AcDbHatch
  3
ObjectDBX Classes
 90
        0
280
     0
281
     1
  0
CLASS
  1
ACDBPLACEHOLDER
  2
AcDbPlaceHolder
  3
ObjectDBX Classes
 90
        0
280
     0
281
     0
  0
CLASS
  1
LAYOUT
  2
AcDbLayout
  3
ObjectDBX Classes
 90
        0
280
     0
281
     0
  0
ENDSEC
  0
SECTION
  2
TABLES
  0
TABLE
  2
VPORT
  5
8
102
{ACAD_XDICTIONARY
360
39A
102
}
330
0
100
AcDbSymbolTable
 70
     1
  0
VPORT
  5
29
330
8
100
AcDbSymbolTableRecord
100
AcDbViewportTableRecord
  2
*ACTIVE
 70
     0
 10
0.0
 20
0.0
 11
1.0
 21
1.0
 12
0.0
 22
0.0
 13
0.0
 23
0.0
 14
0.5
 24
0.5
 15
0.5
 25
0.5
 16
0.0
 26
0.0
 36
1.0
 17
0.0
 27
0.0
 37
-1000.0
 40
68.95174528423105
 41
2.199770378874857
 42
50.0
 43
87.34730692269721
 44
134.7146593845089
 50
0.0
 51
0.0
 71
     0
 72
   100
 73
     1
 74
     3
 75
     0
 76
     0
 77
     0
 78
     0
  0
ENDTAB
  0
TABLE
  2
LTYPE
  5
5
330
0
100
AcDbSymbolTable
 70
     1
  0
LTYPE
  5
14
330
5
100
AcDbSymbolTableRecord
100
AcDbLinetypeTableRecord
  2
BYBLOCK
 70
     0
  3

 72
    65
 73
     0
 40
0.0
  0
LTYPE
  5
15
330
5
100
AcDbSymbolTableRecord
100
AcDbLinetypeTableRecord
  2
BYLAYER
 70
     0
  3

 72
    65
 73
     0
 40
0.0
  0
LTYPE
  5
16
330
5
100
AcDbSymbolTableRecord
100
AcDbLinetypeTableRecord
  2
CONTINUOUS
 70
     0
  3
Solid line
 72
    65
 73
     0
 40
0.0
  0
ENDTAB
  0
TABLE
  2
LAYER
  5
2
330
0
100
AcDbSymbolTable
 70
     3
  0
LAYER
  5
10
330
2
100
AcDbSymbolTableRecord
100
AcDbLayerTableRecord
  2
0
 70
     0
 62
     7
  6
CONTINUOUS
  0
LAYER
  5
6A
330
2
100
AcDbSymbolTableRecord
100
AcDbLayerTableRecord
  2
PROFILEEDGES
 70
     0
 62
     7
  6
CONTINUOUS
  0
LAYER
  5
6B
330
2
100
AcDbSymbolTableRecord
100
AcDbLayerTableRecord
  2
SECTIONCUTEDGES
 70
     0
 62
     7
  6
CONTINUOUS
  0
ENDTAB
  0
TABLE
  2
STYLE
  5
3
330
0
100
AcDbSymbolTable
 70
     1
  0
STYLE
  5
11
330
3
100
AcDbSymbolTableRecord
100
AcDbTextStyleTableRecord
  2
STANDARD
 70
     0
 40
0.0
 41
1.0
 50
0.0
 71
     0
 42
0.2
  3
txt
  4

  0
ENDTAB
  0
TABLE
  2
VIEW
  5
6
330
0
100
AcDbSymbolTable
 70
     0
  0
ENDTAB
  0
TABLE
  2
UCS
  5
7
330
0
100
AcDbSymbolTable
 70
     0
  0
ENDTAB
  0
TABLE
  2
APPID
  5
9
330
0
100
AcDbSymbolTable
 70
     1
  0
APPID
  5
12
330
9
100
AcDbSymbolTableRecord
100
AcDbRegAppTableRecord
  2
ACAD
 70
     0
  0
ENDTAB
  0
TABLE
  2
DIMSTYLE
  5
A
330
0
100
AcDbSymbolTable
 70
     1
  0
DIMSTYLE
105
27
330
A
100
AcDbSymbolTableRecord
100
AcDbDimStyleTableRecord
  2
STANDARD
 70
     0
  3

  4

  5

  6

  7

 40
1.0
 41
0.18
 42
0.0625
 43
0.38
 44
0.18
 45
0.0
 46
0.0
 47
0.0
 48
0.0
140
0.18
141
0.09
142
0.0
143
25.4
144
1.0
145
0.0
146
1.0
147
0.09
 71
     0
 72
     0
 73
     1
 74
     1
 75
     0
 76
     0
 77
     0
 78
     0
170
     0
171
     2
172
     0
173
     0
174
     0
175
     0
176
     0
177
     0
178
     0
270
     2
271
     4
272
     4
273
     2
274
     2
340
11
275
     0
280
     0
281
     0
282
     0
283
     1
284
     0
285
     0
286
     0
287
     3
288
     0
  0
ENDTAB
  0
TABLE
  2
BLOCK_RECORD
  5
1
330
0
100
AcDbSymbolTable
 70
     1
  0
BLOCK_RECORD
  5
1F
330
1
100
AcDbSymbolTableRecord
100
AcDbBlockTableRecord
  2
*MODEL_SPACE
  0
BLOCK_RECORD
  5
1B
330
1
100
AcDbSymbolTableRecord
100
AcDbBlockTableRecord
  2
*PAPER_SPACE
  0
ENDTAB
  0
ENDSEC
  0
SECTION
  2
BLOCKS
  0
BLOCK
  5
20
330
1F
100
AcDbEntity
  8
0
100
AcDbBlockBegin
  2
*MODEL_SPACE
 70
     0
 10
0.0
 20
0.0
 30
0.0
  3
*MODEL_SPACE
  1

  0
ENDBLK
  5
21
330
1F
100
AcDbEntity
  8
0
100
AcDbBlockEnd
  0
BLOCK
  5
1C
330
1B
100
AcDbEntity
 67
     1
  8
0
100
AcDbBlockBegin
  2
*PAPER_SPACE
 70
     0
 10
0.0
 20
0.0
 30
0.0
  3
*PAPER_SPACE
  1

  0
ENDBLK
  5
1D
330
1B
100
AcDbEntity
 67
     1
  8
0
100
AcDbBlockEnd
  0
ENDSEC
  0
SECTION
  2
ENTITIES
  0
LINE
  5
6C
330
1F
100
AcDbEntity
  8
0
100
AcDbLine
 10
-14.87229651881529
 20
3.398365020751952
 30
0.0
 11
-15.84695643855406
 21
3.448224067687988
 31
0.0
  0
LINE
  5
6D
330
1F
100
AcDbEntity
  8
0
100
AcDbLine
 10
-22.02304572535826
 20
-28.93903923034668
 30
0.0
 11
-24.44666594935728
 21
-27.71734046936034
 31
0.0
  0
LINE
  5
6E
330
1F
100
AcDbEntity
  8
0
100
AcDbLine
 10
-13.79649562312437
 20
3.153398990631103
 30
0.0
 11
-14.87229651881529
 21
3.398365020751952
 31
0.0
  0
LINE
  5
6F
330
1F
100
AcDbEntity
  8
0
100
AcDbLine
 10
-12.83833617640807
 20
2.751400947570799
 30
0.0
 11
-13.79649562312437
 21
3.153398990631103
 31
0.0
  0
LINE
  5
70
330
1F
100
AcDbEntity
  8
0
100
AcDbLine
 10
-15.84695643855406
 20
3.448224067687988
 30
0.0
 11
-15.69049567653013
 21
4.219226837158202
 31
0.0
  0
LINE
  5
71
330
1F
100
AcDbEntity
  8
0
100
AcDbLine
 10
-24.44666594935728
 20
-27.71734046936034
 30
0.0
 11
-26.47656554652525
 21
-26.41931915283203
 31
0.0
  0
LINE
  5
72
330
1F
100
AcDbEntity
  8
0
100
AcDbLine
 10
-15.69049567653013
 20
4.219226837158202
 30
0.0
 11
-15.52715606166197
 21
4.755085945129395
 31
0.0
  0
LINE
  5
73
330
1F
100
AcDbEntity
  8
0
100
AcDbLine
 10
-10.49049586726499
 20
3.040977954864503
 30
0.0
 11
-12.11807650996519
 21
2.311336994171142
 31
0.0
  0
LINE
  5
74
330
1F
100
AcDbEntity
  8
0
100
AcDbLine
 10
-26.47656554652525
 20
-26.41931915283203
 30
0.0
 11
-28.38902587367367
 21
-24.94186973571777
 31
0.0
  0
LINE
  5
75
330
1F
100
AcDbEntity
  8
0
100
AcDbLine
 10
-15.52715606166197
 20
4.755085945129395
 30
0.0
 11
-15.37320632411314
 21
5.792553901672366
 31
0.0
  0
LINE
  5
76
330
1F
100
AcDbEntity
  8
0
100
AcDbLine
 10
-15.37320632411314
 20
5.792553901672366
 30
0.0
 11
-15.38634604884459
 21
6.529448986053468
 31
0.0
  0
LINE
  5
77
330
1F
100
AcDbEntity
  8
0
100
AcDbLine
 10
-28.38902587367367
 20
-24.94186973571777
 30
0.0
 11
-30.28263587428405
 21
-23.18254089355468
 31
0.0
  0
LINE
  5
78
330
1F
100
AcDbEntity
  8
0
100
AcDbLine
 10
-15.38634604884459
 20
6.529448986053468
 30
0.0
 11
-15.6142465539105
 21
8.586524009704586
 31
0.0
  0
LINE
  5
79
330
1F
100
AcDbEntity
  8
0
100
AcDbLine
 10
-30.28263587428405
 20
-23.18254089355468
 30
0.0
 11
-32.03273505641295
 21
-21.17551040649414
 31
0.0
  0
LINE
  5
7A
330
1F
100
AcDbEntity
  8
0
100
AcDbLine
 10
-15.6142465539105
 20
8.586524009704586
 30
0.0
 11
-16.31603545619322
 21
10.47023010253906
 31
0.0
  0
LINE
  5
7B
330
1F
100
AcDbEntity
  8
0
100
AcDbLine
 10
-16.31603545619322
 20
10.47023010253906
 30
0.0
 11
-17.36754531337095
 21
12.09416007995606
 31
0.0
  0
LINE
  5
7C
330
1F
100
AcDbEntity
  8
0
100
AcDbLine
 10
-33.52013511134459
 20
-19.04124069213867
 30
0.0
 11
-34.7853252358563
 21
-16.77342987060547
 31
0.0
  0
LINE
  5
7D
330
1F
100
AcDbEntity
  8
0
100
AcDbLine
 10
-17.36754531337095
 20
12.09416007995606
 30
0.0
 11
-17.7776462502606
 21
12.55661010742187
 31
0.0
  0
LINE
  5
7E
330
1F
100
AcDbEntity
  8
0
100
AcDbLine
 10
-17.7776462502606
 20
12.55661010742187
 30
0.0
 11
-19.86327666713072
 21
14.1861400604248
 31
0.0
  0
LINE
  5
7F
330
1F
100
AcDbEntity
  8
0
100
AcDbLine
 10
-34.7853252358563
 20
-16.77342987060547
 30
0.0
 11
-34.60519523097349
 21
-14.79615974426269
 31
0.0
  0
LINE
  5
80
330
1F
100
AcDbEntity
  8
0
100
AcDbLine
 10
-19.86327666713072
 20
14.1861400604248
 30
0.0
 11
-17.69787520839049
 21
14.23443984985352
 31
0.0
  0
LINE
  5
81
330
1F
100
AcDbEntity
  8
0
100
AcDbLine
 10
-34.60519523097349
 20
-14.79615974426269
 30
0.0
 11
-34.47006720973325
 21
-13.94136047363281
 31
0.0
  0
LINE
  5
82
330
1F
100
AcDbEntity
  8
0
100
AcDbLine
 10
-34.47006720973325
 20
-13.94136047363281
 30
0.0
 11
-33.54952735377623
 21
-11.70835971832275
 31
0.0
  0
LINE
  5
83
330
1F
100
AcDbEntity
  8
0
100
AcDbLine
 10
-17.69787520839049
 20
14.23443984985352
 30
0.0
 11
-16.09008521510435
 21
14.13253021240234
 31
0.0
  0
LINE
  5
84
330
1F
100
AcDbEntity
  8
0
100
AcDbLine
 10
-8.18818492366148
 20
5.806541919708252
 30
0.0
 11
-9.124056047929058
 21
4.316051959991455
 31
0.0
  0
LINE
  5
85
330
1F
100
AcDbEntity
  8
0
100
AcDbLine
 10
-7.693502134812602
 20
7.377522945404054
 30
0.0
 11
-8.18818492366148
 21
5.806541919708252
 31
0.0
  0
LINE
  5
86
330
1F
100
AcDbEntity
  8
0
100
AcDbLine
 10
-28.93042678309751
 20
13.27194976806641
 30
0.0
 11
-29.07903594447447
 21
12.96683979034424
 31
0.0
  0
LINE
  5
87
330
1F
100
AcDbEntity
  8
0
100
AcDbLine
 10
-28.86585540248228
 20
13.60511016845703
 30
0.0
 11
-28.93042678309751
 21
13.27194976806641
 31
0.0
  0
LINE
  5
88
330
1F
100
AcDbEntity
  8
0
100
AcDbLine
 10
-31.32657546473813
 20
13.10307025909424
 30
0.0
 11
-31.43723601771666
 21
13.42389011383056
 31
0.0
  0
LINE
  5
89
330
1F
100
AcDbEntity
  8
0
100
AcDbLine
 10
-31.39652556849792
 20
14.09558963775635
 30
0.0
 11
-31.24791640712095
 21
14.40069007873536
 31
0.0
  0
LINE
  5
8A
330
1F
100
AcDbEntity
  8
0
100
AcDbLine
 10
-31.46109694911314
 20
13.76241970062256
 30
0.0
 11
-31.39652556849792
 21
14.09558963775635
 31
0.0
  0
LINE
  5
8B
330
1F
100
AcDbEntity
  8
0
100
AcDbLine
 10
-31.02541655970883
 20
14.65694046020508
 30
0.0
 11
-30.74416655970884
 21
14.8468599319458
 31
0.0
  0
LINE
  5
8C
330
1F
100
AcDbEntity
  8
0
100
AcDbLine
 10
-31.24791640712095
 20
14.40069007873536
 30
0.0
 11
-31.02541655970883
 21
14.65694046020508
 31
0.0
  0
LINE
  5
8D
330
1F
100
AcDbEntity
  8
0
100
AcDbLine
 10
-30.42335624171567
 20
14.95753002166748
 30
0.0
 11
-30.08482665492367
 21
14.98138999938965
 31
0.0
  0
LINE
  5
8E
330
1F
100
AcDbEntity
  8
0
100
AcDbLine
 10
-30.74416655970884
 20
14.8468599319458
 30
0.0
 11
-30.42335624171567
 21
14.95753002166748
 31
0.0
  0
LINE
  5
8F
330
1F
100
AcDbEntity
  8
0
100
AcDbLine
 10
-29.7516567177899
 20
14.91681003570556
 30
0.0
 11
-29.44655532313658
 21
14.76821041107178
 31
0.0
  0
LINE
  5
90
330
1F
100
AcDbEntity
  8
0
100
AcDbLine
 10
-30.08482665492367
 20
14.98138999938965
 30
0.0
 11
-29.7516567177899
 21
14.91681003570556
 31
0.0
  0
LINE
  5
91
330
1F
100
AcDbEntity
  8
0
100
AcDbLine
 10
-29.19030684901548
 20
14.54570960998535
 30
0.0
 11
-29.00037688685729
 21
14.26445960998535
 31
0.0
  0
LINE
  5
92
330
1F
100
AcDbEntity
  8
0
100
AcDbLine
 10
-29.44655532313658
 20
14.76821041107178
 30
0.0
 11
-29.19030684901548
 21
14.54570960998535
 31
0.0
  0
LINE
  5
93
330
1F
100
AcDbEntity
  8
0
100
AcDbLine
 10
-28.88971633387876
 20
13.94363975524902
 30
0.0
 11
-28.86585540248228
 21
13.60511016845703
 31
0.0
  0
LINE
  5
94
330
1F
100
AcDbEntity
  8
0
100
AcDbLine
 10
-29.00037688685729
 20
14.26445960998535
 30
0.0
 11
-28.88971633387876
 21
13.94363975524902
 31
0.0
  0
LINE
  5
95
330
1F
100
AcDbEntity
  8
0
100
AcDbLine
 10
-9.124056047929058
 20
4.316051959991455
 30
0.0
 11
-10.49049586726499
 21
3.040977954864503
 31
0.0
  0
LINE
  5
96
330
1F
100
AcDbEntity
  8
0
100
AcDbLine
 10
-29.30153579188656
 20
12.71059989929199
 30
0.0
 11
-29.58278579188658
 21
12.52066993713379
 31
0.0
  0
LINE
  5
97
330
1F
100
AcDbEntity
  8
0
100
AcDbLine
 10
-29.07903594447447
 20
12.96683979034424
 30
0.0
 11
-29.30153579188656
 21
12.71059989929199
 31
0.0
  0
LINE
  5
98
330
1F
100
AcDbEntity
  8
0
100
AcDbLine
 10
-29.90360564662291
 20
12.41001033782959
 30
0.0
 11
-30.24213523341491
 21
12.38615036010742
 31
0.0
  0
LINE
  5
99
330
1F
100
AcDbEntity
  8
0
100
AcDbLine
 10
-29.58278579188658
 20
12.52066993713379
 30
0.0
 11
-29.90360564662291
 21
12.41001033782959
 31
0.0
  0
LINE
  5
9A
330
1F
100
AcDbEntity
  8
0
100
AcDbLine
 10
-30.57529563380552
 20
12.45071983337402
 30
0.0
 11
-30.88039702845884
 21
12.59932041168213
 31
0.0
  0
LINE
  5
9B
330
1F
100
AcDbEntity
  8
0
100
AcDbLine
 10
-30.24213523341491
 20
12.38615036010742
 30
0.0
 11
-30.57529563380552
 21
12.45071983337402
 31
0.0
  0
LINE
  5
9C
330
1F
100
AcDbEntity
  8
0
100
AcDbLine
 10
-31.13664550257995
 20
12.8218297958374
 30
0.0
 11
-31.32657546473813
 21
13.10307025909424
 31
0.0
  0
LINE
  5
9D
330
1F
100
AcDbEntity
  8
0
100
AcDbLine
 10
-30.88039702845884
 20
12.59932041168213
 30
0.0
 11
-31.13664550257995
 21
12.8218297958374
 31
0.0
  0
LINE
  5
9E
330
1F
100
AcDbEntity
  8
0
100
AcDbLine
 10
-3.020105070603617
 20
-10.2603702545166
 30
0.0
 11
-1.261523074639567
 21
-10.83078956604004
 31
0.0
  0
LINE
  5
9F
330
1F
100
AcDbEntity
  8
0
100
AcDbLine
 10
-4.837098307145365
 20
-9.918997764587404
 30
0.0
 11
-3.020105070603617
 21
-10.2603702545166
 31
0.0
  0
LINE
  5
A0
330
1F
100
AcDbEntity
  8
0
100
AcDbLine
 10
-1.261523074639567
 20
-10.83078956604004
 30
0.0
 11
0.4098968140952486
 21
-11.62094974517822
 31
0.0
  0
LINE
  5
A1
330
1F
100
AcDbEntity
  8
0
100
AcDbLine
 10
1.966827922331561
 20
-12.61793041229248
 30
0.0
 11
3.38381796406435
 21
-13.805419921875
 31
0.0
  0
LINE
  5
A2
330
1F
100
AcDbEntity
  8
0
100
AcDbLine
 10
0.4098968140952486
 20
-11.62094974517822
 30
0.0
 11
1.966827922331561
 21
-12.61793041229248
 31
0.0
  0
LINE
  5
A3
330
1F
100
AcDbEntity
  8
0
100
AcDbLine
 10
4.637699895369279
 20
-15.1640100479126
 30
0.0
 11
5.707973771559467
 21
-16.67149925231934
 31
0.0
  0
LINE
  5
A4
330
1F
100
AcDbEntity
  8
0
100
AcDbLine
 10
3.38381796406435
 20
-13.805419921875
 30
0.0
 11
4.637699895369279
 21
-15.1640100479126
 31
0.0
  0
LINE
  5
A5
330
1F
100
AcDbEntity
  8
0
100
AcDbLine
 10
6.577143960463277
 20
-18.30323028564453
 30
0.0
 11
7.230997853743308
 21
-20.03252029418945
 31
0.0
  0
LINE
  5
A6
330
1F
100
AcDbEntity
  8
0
100
AcDbLine
 10
5.707973771559467
 20
-16.67149925231934
 30
0.0
 11
6.577143960463277
 21
-18.30323028564453
 31
0.0
  0
LINE
  5
A7
330
1F
100
AcDbEntity
  8
0
100
AcDbLine
 10
7.658846669661272
 20
-21.83111953735352
 30
0.0
 11
7.853697114454975
 21
-23.66959953308105
 31
0.0
  0
LINE
  5
A8
330
1F
100
AcDbEntity
  8
0
100
AcDbLine
 10
7.230997853743308
 20
-20.03252029418945
 30
0.0
 11
7.658846669661272
 21
-21.83111953735352
 31
0.0
  0
LINE
  5
A9
330
1F
100
AcDbEntity
  8
0
100
AcDbLine
 10
7.812362008558977
 20
-25.51791954040528
 30
0.0
 11
4.906576924788226
 21
-27.38158988952636
 31
0.0
  0
LINE
  5
AA
330
1F
100
AcDbEntity
  8
0
100
AcDbLine
 10
7.853697114454975
 20
-23.66959953308105
 30
0.0
 11
7.812362008558977
 21
-25.51791954040528
 31
0.0
  0
LINE
  5
AB
330
1F
100
AcDbEntity
  8
0
100
AcDbLine
 10
4.906576924788226
 20
-27.38158988952636
 30
0.0
 11
2.226234012114276
 21
-28.76240921020509
 31
0.0
  0
LINE
  5
AC
330
1F
100
AcDbEntity
  8
0
100
AcDbLine
 10
2.226234012114276
 20
-28.76240921020509
 30
0.0
 11
-0.7080081768162325
 21
-29.91019058227539
 31
0.0
  0
LINE
  5
AD
330
1F
100
AcDbEntity
  8
0
100
AcDbLine
 10
-1.238621062768231
 20
-30.05887031555175
 30
0.0
 11
-3.696921057236919
 21
-30.57024002075195
 31
0.0
  0
LINE
  5
AE
330
1F
100
AcDbEntity
  8
0
100
AcDbLine
 10
-0.7080081768162325
 20
-29.91019058227539
 30
0.0
 11
-1.238621062768231
 21
-30.05887031555175
 31
0.0
  0
LINE
  5
AF
330
1F
100
AcDbEntity
  8
0
100
AcDbLine
 10
-5.10719890071226
 20
-30.80419921875
 30
0.0
 11
-6.964442915452254
 21
-30.95943069458008
 31
0.0
  0
LINE
  5
B0
330
1F
100
AcDbEntity
  8
0
100
AcDbLine
 10
-3.696921057236919
 20
-30.57024002075195
 30
0.0
 11
-5.10719890071226
 21
-30.80419921875
 31
0.0
  0
LINE
  5
B1
330
1F
100
AcDbEntity
  8
0
100
AcDbLine
 10
-8.774863428605327
 20
-31.05826950073242
 30
0.0
 11
-10.40545577479674
 21
-31.41140937805176
 31
0.0
  0
LINE
  5
B2
330
1F
100
AcDbEntity
  8
0
100
AcDbLine
 10
-6.964442915452254
 20
-30.95943069458008
 30
0.0
 11
-8.774863428605327
 21
-31.05826950073242
 31
0.0
  0
LINE
  5
B3
330
1F
100
AcDbEntity
  8
0
100
AcDbLine
 10
-10.40545577479674
 20
-31.41140937805176
 30
0.0
 11
-13.83858603907896
 21
-31.23827934265136
 31
0.0
  0
LINE
  5
B4
330
1F
100
AcDbEntity
  8
0
100
AcDbLine
 10
-13.83858603907896
 20
-31.23827934265136
 30
0.0
 11
-16.7859355874188
 21
-30.73601913452149
 31
0.0
  0
LINE
  5
B5
330
1F
100
AcDbEntity
  8
0
100
AcDbLine
 10
-16.7859355874188
 20
-30.73601913452149
 30
0.0
 11
-18.69494552089049
 21
-29.01938056945801
 31
0.0
  0
LINE
  5
B6
330
1F
100
AcDbEntity
  8
0
100
AcDbLine
 10
-18.69494552089049
 20
-29.01938056945801
 30
0.0
 11
-19.97363585902525
 21
-27.23134994506835
 31
0.0
  0
LINE
  5
B7
330
1F
100
AcDbEntity
  8
0
100
AcDbLine
 10
-19.97363585902525
 20
-27.23134994506835
 30
0.0
 11
-20.79603690577818
 21
-25.4674892425537
 31
0.0
  0
LINE
  5
B8
330
1F
100
AcDbEntity
  8
0
100
AcDbLine
 10
-20.79603690577818
 20
-25.4674892425537
 30
0.0
 11
-21.34691543055845
 21
-23.46167945861816
 31
0.0
  0
LINE
  5
B9
330
1F
100
AcDbEntity
  8
0
100
AcDbLine
 10
-21.4842063851483
 20
-21.01845932006836
 30
0.0
 11
-21.18906516505552
 21
-18.79549980163574
 31
0.0
  0
LINE
  5
BA
330
1F
100
AcDbEntity
  8
0
100
AcDbLine
 10
-21.18906516505552
 20
-18.79549980163574
 30
0.0
 11
-20.38839644862486
 21
-16.56141090393066
 31
0.0
  0
LINE
  5
BB
330
1F
100
AcDbEntity
  8
0
100
AcDbLine
 10
-20.38839644862486
 20
-16.56141090393066
 30
0.0
 11
-19.02565688563658
 21
-14.40258979797363
 31
0.0
  0
LINE
  5
BC
330
1F
100
AcDbEntity
  8
0
100
AcDbLine
 10
-19.02565688563658
 20
-14.40258979797363
 30
0.0
 11
-17.69406623317076
 21
-12.96862030029297
 31
0.0
  0
LINE
  5
BD
330
1F
100
AcDbEntity
  8
0
100
AcDbLine
 10
-17.34873694850279
 20
-12.64974021911621
 30
0.0
 11
-15.20821589900327
 21
-13.30064964294434
 31
0.0
  0
LINE
  5
BE
330
1F
100
AcDbEntity
  8
0
100
AcDbLine
 10
-17.69406623317076
 20
-12.96862030029297
 30
0.0
 11
-17.34873694850279
 21
-12.64974021911621
 31
0.0
  0
LINE
  5
BF
330
1F
100
AcDbEntity
  8
0
100
AcDbLine
 10
-15.20821589900327
 20
-13.30064964294434
 30
0.0
 11
-12.91305655909849
 21
-13.49114036560059
 31
0.0
  0
LINE
  5
C0
330
1F
100
AcDbEntity
  8
0
100
AcDbLine
 10
-12.91305655909849
 20
-13.49114036560059
 30
0.0
 11
-10.53742618037535
 21
-13.16928005218506
 31
0.0
  0
LINE
  5
C1
330
1F
100
AcDbEntity
  8
0
100
AcDbLine
 10
-8.406876749528177
 20
-12.42803955078125
 30
0.0
 11
-6.420329279435408
 21
-11.28522968292236
 31
0.0
  0
LINE
  5
C2
330
1F
100
AcDbEntity
  8
0
100
AcDbLine
 10
-10.53742618037535
 20
-13.16928005218506
 30
0.0
 11
-8.406876749528177
 21
-12.42803955078125
 31
0.0
  0
LINE
  5
C3
330
1F
100
AcDbEntity
  8
0
100
AcDbLine
 10
-6.420329279435408
 20
-11.28522968292236
 30
0.0
 11
-4.837098307145365
 21
-9.918997764587404
 31
0.0
  0
LINE
  5
C4
330
1F
100
AcDbEntity
  8
0
100
AcDbLine
 10
-16.09008521510435
 20
14.13253021240234
 30
0.0
 11
-14.99297637416197
 21
13.96364021301269
 31
0.0
  0
LINE
  5
C5
330
1F
100
AcDbEntity
  8
0
100
AcDbLine
 10
-14.99297637416197
 20
13.96364021301269
 30
0.0
 11
-12.86790580226256
 21
13.42951965332031
 31
0.0
  0
LINE
  5
C6
330
1F
100
AcDbEntity
  8
0
100
AcDbLine
 10
-33.54952735377623
 20
-11.70835971832275
 30
0.0
 11
-32.76103705836608
 21
-10.54292011260986
 31
0.0
  0
LINE
  5
C7
330
1F
100
AcDbEntity
  8
0
100
AcDbLine
 10
-32.76103705836608
 20
-10.54292011260986
 30
0.0
 11
-32.19217795802427
 21
-9.810606002807615
 31
0.0
  0
LINE
  5
C8
330
1F
100
AcDbEntity
  8
0
100
AcDbLine
 10
-18.5586463875897
 20
-12.03592014312744
 30
0.0
 11
-20.29054564906431
 21
-13.98013019561768
 31
0.0
  0
LINE
  5
C9
330
1F
100
AcDbEntity
  8
0
100
AcDbLine
 10
-32.19217795802427
 20
-9.810606002807615
 30
0.0
 11
-30.19951552821471
 21
-8.139119148254395
 31
0.0
  0
LINE
  5
CA
330
1F
100
AcDbEntity
  8
0
100
AcDbLine
 10
-21.66324538661314
 20
-16.35683059692383
 30
0.0
 11
-22.46216697169615
 21
-18.7665901184082
 31
0.0
  0
LINE
  5
CB
330
1F
100
AcDbEntity
  8
0
100
AcDbLine
 10
-12.86790580226256
 20
13.42951965332031
 30
0.0
 11
-11.13064593745543
 21
12.75533962249756
 31
0.0
  0
LINE
  5
CC
330
1F
100
AcDbEntity
  8
0
100
AcDbLine
 10
-30.19951552821471
 20
-8.139119148254395
 30
0.0
 11
-27.92506522609068
 21
-7.064127922058105
 31
0.0
  0
LINE
  5
CD
330
1F
100
AcDbEntity
  8
0
100
AcDbLine
 10
-22.46216697169615
 20
-18.7665901184082
 30
0.0
 11
-22.76029700709654
 21
-21.24484062194824
 31
0.0
  0
LINE
  5
CE
330
1F
100
AcDbEntity
  8
0
100
AcDbLine
 10
-27.92506522609068
 20
-7.064127922058105
 30
0.0
 11
-25.32360572291685
 21
-6.580314159393309
 31
0.0
  0
LINE
  5
CF
330
1F
100
AcDbEntity
  8
0
100
AcDbLine
 10
-12.11807650996519
 20
2.311336994171142
 30
0.0
 11
-12.83833617640807
 21
2.751400947570799
 31
0.0
  0
LINE
  5
D0
330
1F
100
AcDbEntity
  8
0
100
AcDbLine
 10
-22.76029700709654
 20
-21.24484062194824
 30
0.0
 11
-22.59156531764341
 21
-23.57395935058594
 31
0.0
  0
LINE
  5
D1
330
1F
100
AcDbEntity
  8
0
100
AcDbLine
 10
-11.13064593745543
 20
12.75533962249756
 30
0.0
 11
-9.445393747819194
 21
11.850830078125
 31
0.0
  0
LINE
  5
D2
330
1F
100
AcDbEntity
  8
0
100
AcDbLine
 10
-9.445393747819194
 20
11.850830078125
 30
0.0
 11
-8.027590937150247
 21
10.86688041687012
 31
0.0
  0
LINE
  5
D3
330
1F
100
AcDbEntity
  8
0
100
AcDbLine
 10
-8.027590937150247
 20
10.86688041687012
 30
0.0
 11
-7.582845873368514
 21
9.131144523620607
 31
0.0
  0
LINE
  5
D4
330
1F
100
AcDbEntity
  8
0
100
AcDbLine
 10
-25.32360572291685
 20
-6.580314159393309
 30
0.0
 11
-24.17844695521665
 21
-6.611715793609621
 31
0.0
  0
LINE
  5
D5
330
1F
100
AcDbEntity
  8
0
100
AcDbLine
 10
-24.17844695521665
 20
-6.611715793609621
 30
0.0
 11
-22.85367698146177
 21
-6.74496221542358
 31
0.0
  0
LINE
  5
D6
330
1F
100
AcDbEntity
  8
0
100
AcDbLine
 10
-22.59156531764341
 20
-23.57395935058594
 30
0.0
 11
-22.07937545253111
 21
-25.62875938415527
 31
0.0
  0
LINE
  5
D7
330
1F
100
AcDbEntity
  8
0
100
AcDbLine
 10
-22.85367698146177
 20
-6.74496221542358
 30
0.0
 11
-22.33621520472837
 21
-8.023805618286131
 31
0.0
  0
LINE
  5
D8
330
1F
100
AcDbEntity
  8
0
100
AcDbLine
 10
-22.07937545253111
 20
-25.62875938415527
 30
0.0
 11
-21.11990661097837
 21
-27.74753952026366
 31
0.0
  0
LINE
  5
D9
330
1F
100
AcDbEntity
  8
0
100
AcDbLine
 10
-22.33621520472837
 20
-8.023805618286131
 30
0.0
 11
-21.62673682643247
 21
-9.220335006713865
 31
0.0
  0
LINE
  5
DA
330
1F
100
AcDbEntity
  8
0
100
AcDbLine
 10
-21.11990661097837
 20
-27.74753952026366
 30
0.0
 11
-19.49954528285338
 21
-29.91803932189942
 31
0.0
  0
LINE
  5
DB
330
1F
100
AcDbEntity
  8
0
100
AcDbLine
 10
-21.62673682643247
 20
-9.220335006713865
 30
0.0
 11
-20.74317664576841
 21
-10.30331039428711
 31
0.0
  0
LINE
  5
DC
330
1F
100
AcDbEntity
  8
0
100
AcDbLine
 10
-19.49954528285338
 20
-29.91803932189942
 30
0.0
 11
-22.02304572535826
 21
-28.93903923034668
 31
0.0
  0
LINE
  5
DD
330
1F
100
AcDbEntity
  8
0
100
AcDbLine
 10
-20.74317664576841
 20
-10.30331039428711
 30
0.0
 11
-19.71139640284849
 21
-11.24810028076172
 31
0.0
  0
LINE
  5
DE
330
1F
100
AcDbEntity
  8
0
100
AcDbLine
 10
-7.560830301774275
 20
8.879055976867676
 30
0.0
 11
-7.693502134812602
 21
7.377522945404054
 31
0.0
  0
LINE
  5
DF
330
1F
100
AcDbEntity
  8
0
100
AcDbLine
 10
-17.58706588221861
 20
-1.918918967247009
 30
0.0
 11
-17.34688682032896
 21
-1.361695051193236
 31
0.0
  0
LINE
  5
E0
330
1F
100
AcDbEntity
  8
0
100
AcDbLine
 10
-5.305609888566266
 20
-2.403247117996218
 30
0.0
 11
-6.760077185166607
 21
-2.646332025527954
 31
0.0
  0
LINE
  5
E1
330
1F
100
AcDbEntity
  8
0
100
AcDbLine
 10
-2.793816036713849
 20
2.903229951858524
 30
0.0
 11
-2.51693410350157
 21
1.306962013244629
 31
0.0
  0
LINE
  5
E2
330
1F
100
AcDbEntity
  8
0
100
AcDbLine
 10
-2.51693410350157
 20
1.306962013244629
 30
0.0
 11
-2.417109198106058
 21
-0.1430771052837381
 31
0.0
  0
LINE
  5
E3
330
1F
100
AcDbEntity
  8
0
100
AcDbLine
 10
-4.140565104020367
 20
-1.870450019836424
 30
0.0
 11
-5.305609888566266
 21
-2.403247117996218
 31
0.0
  0
LINE
  5
E4
330
1F
100
AcDbEntity
  8
0
100
AcDbLine
 10
-3.296100086701643
 20
-1.251873970031737
 30
0.0
 11
-4.140565104020367
 21
-1.870450019836424
 31
0.0
  0
LINE
  5
E5
330
1F
100
AcDbEntity
  8
0
100
AcDbLine
 10
-35.18635672999692
 20
2.870737075805663
 30
0.0
 11
-34.62152594996764
 21
3.282196044921874
 31
0.0
  0
LINE
  5
E6
330
1F
100
AcDbEntity
  8
0
100
AcDbLine
 10
-31.05108565760925
 20
-7.227309226989748
 30
0.0
 11
-32.81561774684263
 21
-8.658949851989746
 31
0.0
  0
LINE
  5
E7
330
1F
100
AcDbEntity
  8
0
100
AcDbLine
 10
-34.62152594996764
 20
3.282196044921874
 30
0.0
 11
-32.9407779641278
 21
4.153693199157716
 31
0.0
  0
LINE
  5
E8
330
1F
100
AcDbEntity
  8
0
100
AcDbLine
 10
-32.81561774684263
 20
-8.658949851989746
 30
0.0
 11
-33.58884543849302
 21
-9.542255401611328
 31
0.0
  0
LINE
  5
E9
330
1F
100
AcDbEntity
  8
0
100
AcDbLine
 10
-33.58884543849302
 20
-9.542255401611328
 30
0.0
 11
-34.9382144875653
 21
-11.58765029907227
 31
0.0
  0
LINE
  5
EA
330
1F
100
AcDbEntity
  8
0
100
AcDbLine
 10
-2.417109198106058
 20
-0.1430771052837381
 30
0.0
 11
-3.296100086701643
 21
-1.251873970031737
 31
0.0
  0
LINE
  5
EB
330
1F
100
AcDbEntity
  8
0
100
AcDbLine
 10
-12.44907588435484
 20
-4.818782806396484
 30
0.0
 11
-12.51963633967711
 21
-4.94248580932617
 31
0.0
  0
LINE
  5
EC
330
1F
100
AcDbEntity
  8
0
100
AcDbLine
 10
-32.9407779641278
 20
4.153693199157716
 30
0.0
 11
-32.17576713038755
 21
4.400036811828615
 31
0.0
  0
LINE
  5
ED
330
1F
100
AcDbEntity
  8
0
100
AcDbLine
 10
-6.760077185166607
 20
-2.646332025527954
 30
0.0
 11
-8.182191080582866
 21
-2.543410062789917
 31
0.0
  0
LINE
  5
EE
330
1F
100
AcDbEntity
  8
0
100
AcDbLine
 10
-4.380293077958354
 20
6.836437225341799
 30
0.0
 11
-4.132143206132183
 21
6.397854804992675
 31
0.0
  0
LINE
  5
EF
330
1F
100
AcDbEntity
  8
0
100
AcDbLine
 10
-4.714492983353863
 20
7.245459079742432
 30
0.0
 11
-4.380293077958354
 21
6.836437225341799
 31
0.0
  0
LINE
  5
F0
330
1F
100
AcDbEntity
  8
0
100
AcDbLine
 10
-32.17576713038755
 20
4.400036811828615
 30
0.0
 11
-29.76602668238951
 21
4.623198986053468
 31
0.0
  0
LINE
  5
F1
330
1F
100
AcDbEntity
  8
0
100
AcDbLine
 10
-4.132143206132183
 20
6.397854804992675
 30
0.0
 11
-3.252793974412212
 21
4.423009872436524
 31
0.0
  0
LINE
  5
F2
330
1F
100
AcDbEntity
  8
0
100
AcDbLine
 10
-3.252793974412212
 20
4.423009872436524
 30
0.0
 11
-2.793816036713849
 21
2.903229951858524
 31
0.0
  0
LINE
  5
F3
330
1F
100
AcDbEntity
  8
0
100
AcDbLine
 10
-29.76602668238951
 20
4.623198986053468
 30
0.0
 11
-27.24326629115414
 21
4.365046977996824
 31
0.0
  0
LINE
  5
F4
330
1F
100
AcDbEntity
  8
0
100
AcDbLine
 10
-34.9382144875653
 20
-11.58765029907227
 30
0.0
 11
-35.78065604640317
 21
-14.27017974853515
 31
0.0
  0
LINE
  5
F5
330
1F
100
AcDbEntity
  8
0
100
AcDbLine
 10
-15.85756606532408
 20
-5.577679157257083
 30
0.0
 11
-16.48999518824888
 21
-5.245283126831054
 31
0.0
  0
LINE
  5
F6
330
1F
100
AcDbEntity
  8
0
100
AcDbLine
 10
-17.04431647731138
 20
-4.757216930389402
 30
0.0
 11
-17.44235534144712
 21
-4.157845973968501
 31
0.0
  0
LINE
  5
F7
330
1F
100
AcDbEntity
  8
0
100
AcDbLine
 10
-35.78065604640317
 20
-14.27017974853515
 30
0.0
 11
-36.58060569239928
 21
-11.74790000915527
 31
0.0
  0
LINE
  5
F8
330
1F
100
AcDbEntity
  8
0
100
AcDbLine
 10
-5.12470502330137
 20
7.87289810180664
 30
0.0
 11
-4.714492983353863
 21
7.245459079742432
 31
0.0
  0
LINE
  5
F9
330
1F
100
AcDbEntity
  8
0
100
AcDbLine
 10
-16.884556955827
 20
-0.8210039138793959
 30
0.0
 11
-16.38015670253111
 21
-0.4598087966442077
 31
0.0
  0
LINE
  5
FA
330
1F
100
AcDbEntity
  8
0
100
AcDbLine
 10
-6.319020933640726
 20
9.313565254211426
 30
0.0
 11
-5.12470502330137
 21
7.87289810180664
 31
0.0
  0
LINE
  5
FB
330
1F
100
AcDbEntity
  8
0
100
AcDbLine
 10
-16.48999518824888
 20
-5.245283126831054
 30
0.0
 11
-17.04431647731138
 21
-4.757216930389402
 31
0.0
  0
LINE
  5
FC
330
1F
100
AcDbEntity
  8
0
100
AcDbLine
 10
-22.47960586024595
 20
0.7183436751365684
 30
0.0
 11
-22.05783576442076
 21
0.0335888899862741
 31
0.0
  0
LINE
  5
FD
330
1F
100
AcDbEntity
  8
0
100
AcDbLine
 10
-12.51963633967711
 20
-4.94248580932617
 30
0.0
 11
-13.48971576167417
 21
-5.524400234222414
 31
0.0
  0
LINE
  5
FE
330
1F
100
AcDbEntity
  8
0
100
AcDbLine
 10
-16.38015670253111
 20
-0.4598087966442077
 30
0.0
 11
-15.72176570369078
 21
-0.148350998759272
 31
0.0
  0
LINE
  5
FF
330
1F
100
AcDbEntity
  8
0
100
AcDbLine
 10
-27.24326629115414
 20
4.365046977996824
 30
0.0
 11
-25.3556663460858
 21
3.555727005004883
 31
0.0
  0
LINE
  5
100
330
1F
100
AcDbEntity
  8
0
100
AcDbLine
 10
-13.48971576167417
 20
-5.524400234222414
 30
0.0
 11
-14.28455562068297
 21
-5.722487926483151
 31
0.0
  0
LINE
  5
101
330
1F
100
AcDbEntity
  8
0
100
AcDbLine
 10
-15.72176570369078
 20
-0.148350998759272
 30
0.0
 11
-15.41116637660337
 21
-0.1650951057672505
 31
0.0
  0
LINE
  5
102
330
1F
100
AcDbEntity
  8
0
100
AcDbLine
 10
-25.3556663460858
 20
3.555727005004883
 30
0.0
 11
-23.56571692897154
 21
2.100301027297976
 31
0.0
  0
LINE
  5
103
330
1F
100
AcDbEntity
  8
0
100
AcDbLine
 10
-37.07521552516295
 20
-9.17255115509033
 30
0.0
 11
-37.20019645167663
 21
-6.927992820739746
 31
0.0
  0
LINE
  5
104
330
1F
100
AcDbEntity
  8
0
100
AcDbLine
 10
-23.56571692897154
 20
2.100301027297976
 30
0.0
 11
-22.47960586024595
 21
0.7183436751365684
 31
0.0
  0
LINE
  5
105
330
1F
100
AcDbEntity
  8
0
100
AcDbLine
 10
-22.68416518641783
 20
-1.199182987213136
 30
0.0
 11
-23.08823699427915
 21
-2.550096988677979
 31
0.0
  0
LINE
  5
106
330
1F
100
AcDbEntity
  8
0
100
AcDbLine
 10
-37.20019645167663
 20
-6.927992820739746
 30
0.0
 11
-37.07057685328795
 21
-4.529788017272949
 31
0.0
  0
LINE
  5
107
330
1F
100
AcDbEntity
  8
0
100
AcDbLine
 10
-13.43352622462583
 20
-0.6403598785400406
 30
0.0
 11
-12.96034640742613
 21
-0.9983944892883309
 31
0.0
  0
LINE
  5
108
330
1F
100
AcDbEntity
  8
0
100
AcDbLine
 10
-37.07057685328795
 20
-4.529788017272949
 30
0.0
 11
-36.73418540431334
 21
-2.056457996368406
 31
0.0
  0
LINE
  5
109
330
1F
100
AcDbEntity
  8
0
100
AcDbLine
 10
-14.91789645625425
 20
-5.775041103363037
 30
0.0
 11
-15.43563575221373
 21
-5.698757171630859
 31
0.0
  0
LINE
  5
10A
330
1F
100
AcDbEntity
  8
0
100
AcDbLine
 10
-14.28455562068297
 20
-5.722487926483151
 30
0.0
 11
-14.91789645625425
 21
-5.775041103363037
 31
0.0
  0
LINE
  5
10B
330
1F
100
AcDbEntity
  8
0
100
AcDbLine
 10
-8.182191080582866
 20
-2.543410062789917
 30
0.0
 11
-8.74790305568052
 21
-2.431369066238405
 31
0.0
  0
LINE
  5
10C
330
1F
100
AcDbEntity
  8
0
100
AcDbLine
 10
-12.24377650691343
 20
-2.100651979446409
 30
0.0
 11
-11.54227656794859
 21
-1.971886992454526
 31
0.0
  0
LINE
  5
10D
330
1F
100
AcDbEntity
  8
0
100
AcDbLine
 10
-8.74790305568052
 20
-2.431369066238405
 30
0.0
 11
-9.786943621171247
 21
-1.946905970573426
 31
0.0
  0
LINE
  5
10E
330
1F
100
AcDbEntity
  8
0
100
AcDbLine
 10
-12.96034640742613
 20
-0.9983944892883309
 30
0.0
 11
-12.72158641291929
 21
-1.234436988830568
 31
0.0
  0
LINE
  5
10F
330
1F
100
AcDbEntity
  8
0
100
AcDbLine
 10
-11.30297584010435
 20
-1.864454030990602
 30
0.0
 11
-11.28190631343199
 21
-1.974012017250061
 31
0.0
  0
LINE
  5
110
330
1F
100
AcDbEntity
  8
0
100
AcDbLine
 10
-11.39305610133482
 20
-3.057116985321045
 30
0.0
 11
-11.86297625972105
 21
-4.181283950805664
 31
0.0
  0
LINE
  5
111
330
1F
100
AcDbEntity
  8
0
100
AcDbLine
 10
-36.73418540431334
 20
-2.056457996368406
 30
0.0
 11
-36.07490653468443
 21
0.5352892875671418
 31
0.0
  0
LINE
  5
112
330
1F
100
AcDbEntity
  8
0
100
AcDbLine
 10
-15.43563575221373
 20
-5.698757171630859
 30
0.0
 11
-15.61692637873961
 21
-5.606237888336182
 31
0.0
  0
LINE
  5
113
330
1F
100
AcDbEntity
  8
0
100
AcDbLine
 10
-36.07490653468443
 20
0.5352892875671418
 30
0.0
 11
-35.18635672999692
 21
2.870737075805663
 31
0.0
  0
LINE
  5
114
330
1F
100
AcDbEntity
  8
0
100
AcDbLine
 10
-15.61692637873961
 20
-5.606237888336182
 30
0.0
 11
-15.85756606532408
 21
-5.577679157257083
 31
0.0
  0
LINE
  5
115
330
1F
100
AcDbEntity
  8
0
100
AcDbLine
 10
-17.34688682032896
 20
-1.361695051193236
 30
0.0
 11
-16.884556955827
 21
-0.8210039138793959
 31
0.0
  0
LINE
  5
116
330
1F
100
AcDbEntity
  8
0
100
AcDbLine
 10
-17.44235534144712
 20
-4.157845973968501
 30
0.0
 11
-17.63638610316588
 21
-3.568068027496335
 31
0.0
  0
LINE
  5
117
330
1F
100
AcDbEntity
  8
0
100
AcDbLine
 10
-25.78949660731627
 20
-5.357967853546144
 30
0.0
 11
-28.45666617823913
 21
-5.917315959930417
 31
0.0
  0
LINE
  5
118
330
1F
100
AcDbEntity
  8
0
100
AcDbLine
 10
-22.05783576442076
 20
0.0335888899862741
 30
0.0
 11
-22.24739570094419
 21
-0.4116897881031038
 31
0.0
  0
LINE
  5
119
330
1F
100
AcDbEntity
  8
0
100
AcDbLine
 10
-15.41116637660337
 20
-0.1650951057672505
 30
0.0
 11
-14.91350573970152
 21
-0.1117136031389216
 31
0.0
  0
LINE
  5
11A
330
1F
100
AcDbEntity
  8
0
100
AcDbLine
 10
-14.91350573970152
 20
-0.1117136031389216
 30
0.0
 11
-14.3761159844525
 21
-0.2531780898571027
 31
0.0
  0
LINE
  5
11B
330
1F
100
AcDbEntity
  8
0
100
AcDbLine
 10
-14.3761159844525
 20
-0.2531780898571027
 30
0.0
 11
-14.06580562068296
 21
-0.2913622856140153
 31
0.0
  0
LINE
  5
11C
330
1F
100
AcDbEntity
  8
0
100
AcDbLine
 10
-14.06580562068296
 20
-0.2913622856140153
 30
0.0
 11
-13.58682650996519
 21
-0.5904229283332806
 31
0.0
  0
LINE
  5
11D
330
1F
100
AcDbEntity
  8
0
100
AcDbLine
 10
-13.58682650996519
 20
-0.5904229283332806
 30
0.0
 11
-13.43352622462583
 21
-0.6403598785400406
 31
0.0
  0
LINE
  5
11E
330
1F
100
AcDbEntity
  8
0
100
AcDbLine
 10
-12.72158641291929
 20
-1.234436988830568
 30
0.0
 11
-12.25190562678648
 21
-1.9795800447464
 31
0.0
  0
LINE
  5
11F
330
1F
100
AcDbEntity
  8
0
100
AcDbLine
 10
-23.16905517054869
 20
-5.403193950653074
 30
0.0
 11
-25.78949660731627
 21
-5.357967853546144
 31
0.0
  0
LINE
  5
120
330
1F
100
AcDbEntity
  8
0
100
AcDbLine
 10
-28.45666617823913
 20
-5.917315959930417
 30
0.0
 11
-31.05108565760925
 21
-7.227309226989748
 31
0.0
  0
LINE
  5
121
330
1F
100
AcDbEntity
  8
0
100
AcDbLine
 10
-11.86297625972105
 20
-4.181283950805664
 30
0.0
 11
-12.44907588435484
 21
-4.818782806396484
 31
0.0
  0
LINE
  5
122
330
1F
100
AcDbEntity
  8
0
100
AcDbLine
 10
-11.54227656794859
 20
-1.971886992454526
 30
0.0
 11
-11.30297584010435
 21
-1.864454030990602
 31
0.0
  0
LINE
  5
123
330
1F
100
AcDbEntity
  8
0
100
AcDbLine
 10
-22.24739570094419
 20
-0.4116897881031038
 30
0.0
 11
-22.68416518641783
 21
-1.199182987213136
 31
0.0
  0
LINE
  5
124
330
1F
100
AcDbEntity
  8
0
100
AcDbLine
 10
-6.680468267930275
 20
6.016656875610351
 30
0.0
 11
-6.309210009110698
 21
7.412099838256839
 31
0.0
  0
LINE
  5
125
330
1F
100
AcDbEntity
  8
0
100
AcDbLine
 10
-7.338235086930523
 20
4.582395076751708
 30
0.0
 11
-6.680468267930275
 21
6.016656875610351
 31
0.0
  0
LINE
  5
126
330
1F
100
AcDbEntity
  8
0
100
AcDbLine
 10
-8.331779665482772
 20
3.212095022201538
 30
0.0
 11
-7.338235086930523
 21
4.582395076751708
 31
0.0
  0
LINE
  5
127
330
1F
100
AcDbEntity
  8
0
100
AcDbLine
 10
-9.706321901810892
 20
2.013609886169432
 30
0.0
 11
-8.331779665482772
 21
3.212095022201538
 31
0.0
  0
LINE
  5
128
330
1F
100
AcDbEntity
  8
0
100
AcDbLine
 10
-11.05815619899107
 20
1.315132975578308
 30
0.0
 11
-9.706321901810892
 21
2.013609886169432
 31
0.0
  0
LINE
  5
129
330
1F
100
AcDbEntity
  8
0
100
AcDbLine
 10
-10.42765635920835
 20
0.3532786071300495
 30
0.0
 11
-11.05815619899107
 21
1.315132975578308
 31
0.0
  0
LINE
  5
12A
330
1F
100
AcDbEntity
  8
0
100
AcDbLine
 10
-10.17381591273619
 20
-0.1856599003076531
 30
0.0
 11
-10.42765635920835
 21
0.3532786071300495
 31
0.0
  0
LINE
  5
12B
330
1F
100
AcDbEntity
  8
0
100
AcDbLine
 10
-9.910357660783061
 20
-1.050024986267091
 30
0.0
 11
-10.17381591273619
 21
-0.1856599003076531
 31
0.0
  0
LINE
  5
12C
330
1F
100
AcDbEntity
  8
0
100
AcDbLine
 10
-5.91543311549498
 20
-8.849313735961914
 30
0.0
 11
-6.783846086991559
 21
-9.668580055236816
 31
0.0
  0
LINE
  5
12D
330
1F
100
AcDbEntity
  8
0
100
AcDbLine
 10
-5.454631990922223
 20
-8.268068313598631
 30
0.0
 11
-5.91543311549498
 21
-8.849313735961914
 31
0.0
  0
LINE
  5
12E
330
1F
100
AcDbEntity
  8
0
100
AcDbLine
 10
-4.992849058640728
 20
-7.777710914611816
 30
0.0
 11
-5.454631990922223
 21
-8.268068313598631
 31
0.0
  0
LINE
  5
12F
330
1F
100
AcDbEntity
  8
0
100
AcDbLine
 10
-4.721279329789413
 20
-7.292321205139158
 30
0.0
 11
-4.992849058640728
 21
-7.777710914611816
 31
0.0
  0
LINE
  5
130
330
1F
100
AcDbEntity
  8
0
100
AcDbLine
 10
-3.865268177521955
 20
-6.138272762298585
 30
0.0
 11
-4.721279329789413
 21
-7.292321205139158
 31
0.0
  0
LINE
  5
131
330
1F
100
AcDbEntity
  8
0
100
AcDbLine
 10
-3.122489161027202
 20
-4.679052829742429
 30
0.0
 11
-3.865268177521955
 21
-6.138272762298585
 31
0.0
  0
LINE
  5
132
330
1F
100
AcDbEntity
  8
0
100
AcDbLine
 10
-2.820192999375589
 20
-3.556360960006716
 30
0.0
 11
-3.122489161027202
 21
-4.679052829742429
 31
0.0
  0
LINE
  5
133
330
1F
100
AcDbEntity
  8
0
100
AcDbLine
 10
-2.585542149079572
 20
-2.330012083053587
 30
0.0
 11
-2.820192999375589
 21
-3.556360960006716
 31
0.0
  0
LINE
  5
134
330
1F
100
AcDbEntity
  8
0
100
AcDbLine
 10
-3.39353818370176
 20
-2.949084043502808
 30
0.0
 11
-2.585542149079572
 21
-2.330012083053587
 31
0.0
  0
LINE
  5
135
330
1F
100
AcDbEntity
  8
0
100
AcDbLine
 10
-4.699170298112163
 20
-3.606643915176394
 30
0.0
 11
-3.39353818370176
 21
-2.949084043502808
 31
0.0
  0
LINE
  5
136
330
1F
100
AcDbEntity
  8
0
100
AcDbLine
 10
-6.044665998948344
 20
-3.941123008728028
 30
0.0
 11
-4.699170298112163
 21
-3.606643915176394
 31
0.0
  0
LINE
  5
137
330
1F
100
AcDbEntity
  8
0
100
AcDbLine
 10
-7.562231249345073
 20
-4.008131980895993
 30
0.0
 11
-6.044665998948344
 21
-3.941123008728028
 31
0.0
  0
LINE
  5
138
330
1F
100
AcDbEntity
  8
0
100
AcDbLine
 10
-9.089691347611678
 20
-3.701236963272093
 30
0.0
 11
-7.562231249345073
 21
-4.008131980895993
 31
0.0
  0
LINE
  5
139
330
1F
100
AcDbEntity
  8
0
100
AcDbLine
 10
-9.910877413285501
 20
-3.376650094985962
 30
0.0
 11
-9.089691347611678
 21
-3.701236963272093
 31
0.0
  0
LINE
  5
13A
330
1F
100
AcDbEntity
  8
0
100
AcDbLine
 10
-10.00791568232847
 20
-3.877485036849977
 30
0.0
 11
-9.910877413285501
 21
-3.376650094985962
 31
0.0
  0
LINE
  5
13B
330
1F
100
AcDbEntity
  8
0
100
AcDbLine
 10
-10.19529647303892
 20
-4.391705036163334
 30
0.0
 11
-10.00791568232847
 21
-3.877485036849977
 31
0.0
  0
LINE
  5
13C
330
1F
100
AcDbEntity
  8
0
100
AcDbLine
 10
-11.51154632045103
 20
-6.104783058166502
 30
0.0
 11
-10.19529647303892
 21
-4.391705036163334
 31
0.0
  0
LINE
  5
13D
330
1F
100
AcDbEntity
  8
0
100
AcDbLine
 10
-11.26632613612486
 20
-6.880533218383789
 30
0.0
 11
-11.51154632045103
 21
-6.104783058166502
 31
0.0
  0
LINE
  5
13E
330
1F
100
AcDbEntity
  8
0
100
AcDbLine
 10
-10.5795957512982
 20
-7.950071811676025
 30
0.0
 11
-11.26632613612486
 21
-6.880533218383789
 31
0.0
  0
LINE
  5
13F
330
1F
100
AcDbEntity
  8
0
100
AcDbLine
 10
-9.790837473405134
 20
-8.696742057800293
 30
0.0
 11
-10.5795957512982
 21
-7.950071811676025
 31
0.0
  0
LINE
  5
140
330
1F
100
AcDbEntity
  8
0
100
AcDbLine
 10
-8.839622683060893
 20
-9.268807411193846
 30
0.0
 11
-9.790837473405134
 21
-8.696742057800293
 31
0.0
  0
LINE
  5
141
330
1F
100
AcDbEntity
  8
0
100
AcDbLine
 10
-8.491280741227403
 20
-9.396812438964846
 30
0.0
 11
-8.839622683060893
 21
-9.268807411193846
 31
0.0
  0
LINE
  5
142
330
1F
100
AcDbEntity
  8
0
100
AcDbLine
 10
-7.299617952836287
 20
-9.646759986877441
 30
0.0
 11
-8.491280741227403
 21
-9.396812438964846
 31
0.0
  0
LINE
  5
143
330
1F
100
AcDbEntity
  8
0
100
AcDbLine
 10
-6.783846086991559
 20
-9.668580055236816
 30
0.0
 11
-7.299617952836287
 21
-9.646759986877441
 31
0.0
  0
LINE
  5
144
330
1F
100
AcDbEntity
  8
0
100
AcDbLine
 10
-13.04986590815855
 20
-11.9558801651001
 30
0.0
 11
-14.32607573939634
 21
-11.81984996795654
 31
0.0
  0
LINE
  5
145
330
1F
100
AcDbEntity
  8
0
100
AcDbLine
 10
-12.24812621547056
 20
-11.65585994720459
 30
0.0
 11
-13.04986590815855
 21
-11.9558801651001
 31
0.0
  0
LINE
  5
146
330
1F
100
AcDbEntity
  8
0
100
AcDbLine
 10
-11.70956630183531
 20
-11.78769016265869
 30
0.0
 11
-12.24812621547056
 21
-11.65585994720459
 31
0.0
  0
LINE
  5
147
330
1F
100
AcDbEntity
  8
0
100
AcDbLine
 10
-11.41175574733091
 20
-11.7065896987915
 30
0.0
 11
-11.70956630183531
 21
-11.78769016265869
 31
0.0
  0
LINE
  5
148
330
1F
100
AcDbEntity
  8
0
100
AcDbLine
 10
-11.01693648768736
 20
-11.6677598953247
 30
0.0
 11
-11.41175574733091
 21
-11.7065896987915
 31
0.0
  0
LINE
  5
149
330
1F
100
AcDbEntity
  8
0
100
AcDbLine
 10
-9.82493895961119
 20
-11.37032985687256
 30
0.0
 11
-11.01693648768736
 21
-11.6677598953247
 31
0.0
  0
LINE
  5
14A
330
1F
100
AcDbEntity
  8
0
100
AcDbLine
 10
-9.434681124223003
 20
-11.23324966430664
 30
0.0
 11
-9.82493895961119
 21
-11.37032985687256
 31
0.0
  0
LINE
  5
14B
330
1F
100
AcDbEntity
  8
0
100
AcDbLine
 10
-8.543119616044294
 20
-10.80066013336182
 30
0.0
 11
-9.434681124223003
 21
-11.23324966430664
 31
0.0
  0
LINE
  5
14C
330
1F
100
AcDbEntity
  8
0
100
AcDbLine
 10
-28.14649695826842
 20
14.83827972412109
 30
0.0
 11
-27.90673560572935
 21
14.2594404220581
 31
0.0
  0
LINE
  5
14D
330
1F
100
AcDbEntity
  8
0
100
AcDbLine
 10
-27.90673560572935
 20
13.01710987091064
 30
0.0
 11
-28.02287597132994
 21
12.73672962188721
 31
0.0
  0
LINE
  5
14E
330
1F
100
AcDbEntity
  8
0
100
AcDbLine
 10
-27.90673560572935
 20
14.2594404220581
 30
0.0
 11
-27.82495612574888
 21
13.63827991485596
 31
0.0
  0
LINE
  5
14F
330
1F
100
AcDbEntity
  8
0
100
AcDbLine
 10
-27.82495612574888
 20
13.63827991485596
 30
0.0
 11
-27.90673560572935
 21
13.01710987091064
 31
0.0
  0
LINE
  5
150
330
1F
100
AcDbEntity
  8
0
100
AcDbLine
 10
-23.16905517054869
 20
-5.403193950653074
 30
0.0
 11
-23.25096625758482
 21
-3.968729972839356
 31
0.0
  0
LINE
  5
151
330
1F
100
AcDbEntity
  8
0
100
AcDbLine
 10
-23.25096625758482
 20
-3.968729972839356
 30
0.0
 11
-23.08823699427915
 21
-2.550096988677979
 31
0.0
  0
LINE
  5
152
330
1F
100
AcDbEntity
  8
0
100
AcDbLine
 10
-31.46109694911314
 20
13.76241970062256
 30
0.0
 11
-31.43723601771666
 21
13.42389011383056
 31
0.0
  0
LINE
  5
153
330
1F
100
AcDbEntity
  8
0
100
AcDbLine
 10
-31.4249565072186
 20
11.55980968475342
 30
0.0
 11
-31.92201537562682
 21
11.9412202835083
 31
0.0
  0
LINE
  5
154
330
1F
100
AcDbEntity
  8
0
100
AcDbLine
 10
-30.84612578822447
 20
11.32005023956299
 30
0.0
 11
-31.4249565072186
 21
11.55980968475342
 31
0.0
  0
LINE
  5
155
330
1F
100
AcDbEntity
  8
0
100
AcDbLine
 10
-30.22495574427916
 20
11.23828029632569
 30
0.0
 11
-30.84612578822447
 21
11.32005023956299
 31
0.0
  0
LINE
  5
156
330
1F
100
AcDbEntity
  8
0
100
AcDbLine
 10
-30.10537642909362
 20
11.25401973724365
 30
0.0
 11
-30.22495574427916
 21
11.23828029632569
 31
0.0
  0
LINE
  5
157
330
1F
100
AcDbEntity
  8
0
100
AcDbLine
 10
-28.58927649928405
 20
10.88370990753173
 30
0.0
 11
-30.07016677333189
 21
9.740266799926756
 31
0.0
  0
LINE
  5
158
330
1F
100
AcDbEntity
  8
0
100
AcDbLine
 10
-34.39072532130552
 20
6.832615852355953
 30
0.0
 11
-32.13990516139341
 21
9.510263442993168
 31
0.0
  0
LINE
  5
159
330
1F
100
AcDbEntity
  8
0
100
AcDbLine
 10
-32.66342658473327
 20
7.016232013702393
 30
0.0
 11
-33.9762546486981
 21
5.113432884216307
 31
0.0
  0
LINE
  5
15A
330
1F
100
AcDbEntity
  8
0
100
AcDbLine
 10
-31.51150626612974
 20
8.356790542602539
 30
0.0
 11
-32.66342658473327
 21
7.016232013702393
 31
0.0
  0
LINE
  5
15B
330
1F
100
AcDbEntity
  8
0
100
AcDbLine
 10
-32.13990516139341
 20
9.510263442993168
 30
0.0
 11
-30.10537642909362
 21
11.25401973724365
 31
0.0
  0
LINE
  5
15C
330
1F
100
AcDbEntity
  8
0
100
AcDbLine
 10
-30.07016677333189
 20
9.740266799926756
 30
0.0
 11
-31.51150626612974
 21
8.356790542602539
 31
0.0
  0
LINE
  5
15D
330
1F
100
AcDbEntity
  8
0
100
AcDbLine
 10
-15.60832614375425
 20
-7.427162170410156
 30
0.0
 11
-15.95976561976744
 21
-8.820734024047852
 31
0.0
  0
LINE
  5
15E
330
1F
100
AcDbEntity
  8
0
100
AcDbLine
 10
-14.69441623164488
 20
-7.390986919403075
 30
0.0
 11
-15.55185622645689
 21
-7.323051929473879
 31
0.0
  0
LINE
  5
15F
330
1F
100
AcDbEntity
  8
0
100
AcDbLine
 10
-14.04174632502867
 20
-7.339593887329102
 30
0.0
 11
-14.69441623164488
 21
-7.390986919403075
 31
0.0
  0
LINE
  5
160
330
1F
100
AcDbEntity
  8
0
100
AcDbLine
 10
-13.38338584376646
 20
-7.139041900634764
 30
0.0
 11
-14.04174632502867
 21
-7.339593887329102
 31
0.0
  0
LINE
  5
161
330
1F
100
AcDbEntity
  8
0
100
AcDbLine
 10
-12.94577617122007
 20
-6.928771018981933
 30
0.0
 11
-13.38338584376646
 21
-7.139041900634764
 31
0.0
  0
LINE
  5
162
330
1F
100
AcDbEntity
  8
0
100
AcDbLine
 10
-12.71386641932798
 20
-6.876999855041503
 30
0.0
 11
-12.94577617122007
 21
-6.928771018981933
 31
0.0
  0
LINE
  5
163
330
1F
100
AcDbEntity
  8
0
100
AcDbLine
 10
-12.60494632197691
 20
-7.164359092712403
 30
0.0
 11
-12.71386641932798
 21
-6.876999855041503
 31
0.0
  0
LINE
  5
164
330
1F
100
AcDbEntity
  8
0
100
AcDbLine
 10
-9.910357660783061
 20
-1.050024986267091
 30
0.0
 11
-9.786943621171247
 21
-1.946905970573426
 31
0.0
  0
LINE
  5
165
330
1F
100
AcDbEntity
  8
0
100
AcDbLine
 10
-32.54318732692077
 20
13.01710987091064
 30
0.0
 11
-32.62495536280942
 21
13.63827991485596
 31
0.0
  0
LINE
  5
166
330
1F
100
AcDbEntity
  8
0
100
AcDbLine
 10
-32.62495536280942
 20
13.63827991485596
 30
0.0
 11
-32.54318732692077
 21
14.2594404220581
 31
0.0
  0
LINE
  5
167
330
1F
100
AcDbEntity
  8
0
100
AcDbLine
 10
-32.54318732692077
 20
14.2594404220581
 30
0.0
 11
-32.3034145302899
 21
14.83827972412109
 31
0.0
  0
LINE
  5
168
330
1F
100
AcDbEntity
  8
0
100
AcDbLine
 10
-32.3034145302899
 20
12.43826961517334
 30
0.0
 11
-32.54318732692077
 21
13.01710987091064
 31
0.0
  0
LINE
  5
169
330
1F
100
AcDbEntity
  8
0
100
AcDbLine
 10
-32.3034145302899
 20
14.83827972412109
 30
0.0
 11
-31.92201537562682
 21
15.33533000946045
 31
0.0
  0
LINE
  5
16A
330
1F
100
AcDbEntity
  8
0
100
AcDbLine
 10
-31.92201537562682
 20
11.9412202835083
 30
0.0
 11
-32.3034145302899
 21
12.43826961517334
 31
0.0
  0
LINE
  5
16B
330
1F
100
AcDbEntity
  8
0
100
AcDbLine
 10
-31.92201537562682
 20
15.33533000946045
 30
0.0
 11
-31.4249565072186
 21
15.71673965454102
 31
0.0
  0
LINE
  5
16C
330
1F
100
AcDbEntity
  8
0
100
AcDbLine
 10
-31.4249565072186
 20
15.71673965454102
 30
0.0
 11
-30.84612578822447
 21
15.95650005340576
 31
0.0
  0
LINE
  5
16D
330
1F
100
AcDbEntity
  8
0
100
AcDbLine
 10
-30.84612578822447
 20
15.95650005340576
 30
0.0
 11
-30.22495574427916
 21
16.03827095031738
 31
0.0
  0
LINE
  5
16E
330
1F
100
AcDbEntity
  8
0
100
AcDbLine
 10
-30.22495574427916
 20
16.03827095031738
 30
0.0
 11
-29.60379523707701
 21
15.95650005340576
 31
0.0
  0
LINE
  5
16F
330
1F
100
AcDbEntity
  8
0
100
AcDbLine
 10
-29.60379523707701
 20
15.95650005340576
 30
0.0
 11
-29.02495688868833
 21
15.71673965454102
 31
0.0
  0
LINE
  5
170
330
1F
100
AcDbEntity
  8
0
100
AcDbLine
 10
-29.02495688868833
 20
15.71673965454102
 30
0.0
 11
-28.52790564967466
 21
15.33533000946045
 31
0.0
  0
LINE
  5
171
330
1F
100
AcDbEntity
  8
0
100
AcDbLine
 10
-28.52790564967466
 20
15.33533000946045
 30
0.0
 11
-28.14649695826842
 21
14.83827972412109
 31
0.0
  0
LINE
  5
172
330
1F
100
AcDbEntity
  8
0
100
AcDbLine
 10
-28.02287597132994
 20
12.73672962188721
 30
0.0
 11
-27.69683570338559
 21
12.94392967224121
 31
0.0
  0
LINE
  5
173
330
1F
100
AcDbEntity
  8
0
100
AcDbLine
 10
-27.69683570338559
 20
12.94392967224121
 30
0.0
 11
-24.94040603114439
 21
14.32048988342285
 31
0.0
  0
LINE
  5
174
330
1F
100
AcDbEntity
  8
0
100
AcDbLine
 10
-26.96145553065611
 20
11.85639953613281
 30
0.0
 11
-28.58927649928405
 21
10.88370990753173
 31
0.0
  0
LINE
  5
175
330
1F
100
AcDbEntity
  8
0
100
AcDbLine
 10
-25.51327628566099
 20
12.58141994476318
 30
0.0
 11
-26.96145553065611
 21
11.85639953613281
 31
0.0
  0
LINE
  5
176
330
1F
100
AcDbEntity
  8
0
100
AcDbLine
 10
-23.84633559657408
 20
13.28516006469726
 30
0.0
 11
-25.51327628566099
 21
12.58141994476318
 31
0.0
  0
LINE
  5
177
330
1F
100
AcDbEntity
  8
0
100
AcDbLine
 10
-24.94040603114439
 20
14.32048988342285
 30
0.0
 11
-23.45848578883482
 21
14.90209007263183
 31
0.0
  0
LINE
  5
178
330
1F
100
AcDbEntity
  8
0
100
AcDbLine
 10
-22.25031585170103
 20
13.77523994445801
 30
0.0
 11
-23.84633559657408
 21
13.28516006469726
 31
0.0
  0
LINE
  5
179
330
1F
100
AcDbEntity
  8
0
100
AcDbLine
 10
-23.45848578883482
 20
14.90209007263183
 30
0.0
 11
-22.69656676722837
 21
15.1333999633789
 31
0.0
  0
LINE
  5
17A
330
1F
100
AcDbEntity
  8
0
100
AcDbLine
 10
-22.69656676722837
 20
15.1333999633789
 30
0.0
 11
-21.14142531825376
 21
15.47383022308349
 31
0.0
  0
LINE
  5
17B
330
1F
100
AcDbEntity
  8
0
100
AcDbLine
 10
-19.80513686610533
 20
12.6466703414917
 30
0.0
 11
-22.25031585170103
 21
13.77523994445801
 31
0.0
  0
LINE
  5
17C
330
1F
100
AcDbEntity
  8
0
100
AcDbLine
 10
-21.14142531825376
 20
15.47383022308349
 30
0.0
 11
-20.09956664515806
 21
15.63706016540527
 31
0.0
  0
LINE
  5
17D
330
1F
100
AcDbEntity
  8
0
100
AcDbLine
 10
-18.32767600489927
 20
11.12674999237061
 30
0.0
 11
-19.80513686610533
 21
12.6466703414917
 31
0.0
  0
LINE
  5
17E
330
1F
100
AcDbEntity
  8
0
100
AcDbLine
 10
-17.3755466408856
 20
9.681256294250485
 30
0.0
 11
-18.32767600489927
 21
11.12674999237061
 31
0.0
  0
LINE
  5
17F
330
1F
100
AcDbEntity
  8
0
100
AcDbLine
 10
-17.16411704493833
 20
9.298009872436527
 30
0.0
 11
-17.3755466408856
 21
9.681256294250485
 31
0.0
  0
LINE
  5
180
330
1F
100
AcDbEntity
  8
0
100
AcDbLine
 10
-16.72931594325376
 20
7.609446048736573
 30
0.0
 11
-17.16411704493833
 21
9.298009872436527
 31
0.0
  0
LINE
  5
181
330
1F
100
AcDbEntity
  8
0
100
AcDbLine
 10
-16.67912597132993
 20
5.630040168762207
 30
0.0
 11
-16.72931594325376
 21
7.609446048736573
 31
0.0
  0
LINE
  5
182
330
1F
100
AcDbEntity
  8
0
100
AcDbLine
 10
-7.560830301774275
 20
8.879055976867676
 30
0.0
 11
-7.582845873368514
 21
9.131144523620607
 31
0.0
  0
LINE
  5
183
330
1F
100
AcDbEntity
  8
0
100
AcDbLine
 10
-7.540495104325544
 20
12.25776958465576
 30
0.0
 11
-5.905575937760598
 21
10.90406036376953
 31
0.0
  0
LINE
  5
184
330
1F
100
AcDbEntity
  8
0
100
AcDbLine
 10
-6.319020933640726
 20
9.313565254211426
 30
0.0
 11
-6.316772169602642
 21
8.392340660095211
 31
0.0
  0
LINE
  5
185
330
1F
100
AcDbEntity
  8
0
100
AcDbLine
 10
-5.905575937760598
 20
10.90406036376953
 30
0.0
 11
-4.455673880112897
 21
9.351967811584474
 31
0.0
  0
LINE
  5
186
330
1F
100
AcDbEntity
  8
0
100
AcDbLine
 10
-4.455673880112897
 20
9.351967811584474
 30
0.0
 11
-3.224437183869611
 21
7.627151012420653
 31
0.0
  0
LINE
  5
187
330
1F
100
AcDbEntity
  8
0
100
AcDbLine
 10
-1.60823912097288
 20
-4.569493770599363
 30
0.0
 11
-2.401447004807719
 21
-6.520512104034425
 31
0.0
  0
LINE
  5
188
330
1F
100
AcDbEntity
  8
0
100
AcDbLine
 10
-3.224437183869611
 20
7.627151012420653
 30
0.0
 11
-2.177712149155866
 21
5.598355770111085
 31
0.0
  0
LINE
  5
189
330
1F
100
AcDbEntity
  8
0
100
AcDbLine
 10
-2.177712149155866
 20
5.598355770111085
 30
0.0
 11
-1.486106104386578
 21
3.651952981948852
 31
0.0
  0
LINE
  5
18A
330
1F
100
AcDbEntity
  8
0
100
AcDbLine
 10
-1.119347042573223
 20
-2.521914005279544
 30
0.0
 11
-1.60823912097288
 21
-4.569493770599363
 31
0.0
  0
LINE
  5
18B
330
1F
100
AcDbEntity
  8
0
100
AcDbLine
 10
-1.486106104386578
 20
3.651952981948852
 30
0.0
 11
-1.062685079110395
 21
1.536245942115785
 31
0.0
  0
LINE
  5
18C
330
1F
100
AcDbEntity
  8
0
100
AcDbLine
 10
-0.9412303037769871
 20
-0.416432589292528
 30
0.0
 11
-1.119347042573223
 21
-2.521914005279544
 31
0.0
  0
LINE
  5
18D
330
1F
100
AcDbEntity
  8
0
100
AcDbLine
 10
-3.483352131379373
 20
-8.316452026367188
 30
0.0
 11
-3.846210188401473
 21
-8.718952178955078
 31
0.0
  0
LINE
  5
18E
330
1F
100
AcDbEntity
  8
0
100
AcDbLine
 10
-2.401447004807719
 20
-6.520512104034425
 30
0.0
 11
-3.483352131379373
 21
-8.316452026367188
 31
0.0
  0
LINE
  5
18F
330
1F
100
AcDbEntity
  8
0
100
AcDbLine
 10
-20.74345702601744
 20
-6.711209774017337
 30
0.0
 11
-20.39833564235045
 21
-7.659204006195066
 31
0.0
  0
LINE
  5
190
330
1F
100
AcDbEntity
  8
0
100
AcDbLine
 10
-20.39833564235045
 20
-7.659204006195066
 30
0.0
 11
-20.23858565760923
 21
-7.976396083831786
 31
0.0
  0
LINE
  5
191
330
1F
100
AcDbEntity
  8
0
100
AcDbLine
 10
-20.23858565760923
 20
-7.976396083831786
 30
0.0
 11
-20.12314528895689
 21
-8.103571891784668
 31
0.0
  0
LINE
  5
192
330
1F
100
AcDbEntity
  8
0
100
AcDbLine
 10
-20.12314528895689
 20
-8.103571891784668
 30
0.0
 11
-19.80187529994322
 21
-8.696779251098633
 31
0.0
  0
LINE
  5
193
330
1F
100
AcDbEntity
  8
0
100
AcDbLine
 10
-19.80187529994322
 20
-8.696779251098633
 30
0.0
 11
-18.98963660670591
 21
-9.60664939880371
 31
0.0
  0
LINE
  5
194
330
1F
100
AcDbEntity
  8
0
100
AcDbLine
 10
-18.5586463875897
 20
-12.03592014312744
 30
0.0
 11
-19.71139640284849
 21
-11.24810028076172
 31
0.0
  0
LINE
  5
195
330
1F
100
AcDbEntity
  8
0
100
AcDbLine
 10
-18.98963660670591
 20
-9.60664939880371
 30
0.0
 11
-17.24451560450865
 21
-10.92603969573974
 31
0.0
  0
LINE
  5
196
330
1F
100
AcDbEntity
  8
0
100
AcDbLine
 10
-17.30699653102232
 20
-8.218399047851562
 30
0.0
 11
-16.9198352761395
 21
-6.929049015045162
 31
0.0
  0
LINE
  5
197
330
1F
100
AcDbEntity
  8
0
100
AcDbLine
 10
-15.95976561976744
 20
-8.820734024047852
 30
0.0
 11
-15.90703601313902
 21
-10.15682029724121
 31
0.0
  0
LINE
  5
198
330
1F
100
AcDbEntity
  8
0
100
AcDbLine
 10
-15.90703601313902
 20
-10.15682029724121
 30
0.0
 11
-15.38427562190367
 21
-11.61668014526367
 31
0.0
  0
LINE
  5
199
330
1F
100
AcDbEntity
  8
0
100
AcDbLine
 10
-15.38427562190367
 20
-11.61668014526367
 30
0.0
 11
-14.32607573939634
 21
-11.81984996795654
 31
0.0
  0
LINE
  5
19A
330
1F
100
AcDbEntity
  8
0
100
AcDbLine
 10
-3.846210188401473
 20
-8.718952178955078
 30
0.0
 11
-1.858212060464157
 21
-9.134540557861326
 31
0.0
  0
LINE
  5
19B
330
1F
100
AcDbEntity
  8
0
100
AcDbLine
 10
-1.858212060464157
 20
-9.134540557861326
 30
0.0
 11
0.0552064672284025
 21
-9.815478324890137
 31
0.0
  0
LINE
  5
19C
330
1F
100
AcDbEntity
  8
0
100
AcDbLine
 10
0.0552064672284025
 20
-9.815478324890137
 30
0.0
 11
1.858805947767966
 21
-10.74921989440918
 31
0.0
  0
LINE
  5
19D
330
1F
100
AcDbEntity
  8
0
100
AcDbLine
 10
1.858805947767966
 20
-10.74921989440918
 30
0.0
 11
3.519365840422382
 21
-11.91856956481933
 31
0.0
  0
LINE
  5
19E
330
1F
100
AcDbEntity
  8
0
100
AcDbLine
 10
3.519365840422382
 20
-11.91856956481933
 30
0.0
 11
5.006304078566303
 21
-13.30200004577637
 31
0.0
  0
LINE
  5
19F
330
1F
100
AcDbEntity
  8
0
100
AcDbLine
 10
5.006304078566303
 20
-13.30200004577637
 30
0.0
 11
6.292232804762592
 21
-14.87401008605957
 31
0.0
  0
LINE
  5
1A0
330
1F
100
AcDbEntity
  8
0
100
AcDbLine
 10
6.292232804762592
 20
-14.87401008605957
 30
0.0
 11
7.353467755781877
 21
-16.60567092895508
 31
0.0
  0
LINE
  5
1A1
330
1F
100
AcDbEntity
  8
0
100
AcDbLine
 10
7.353467755781877
 20
-16.60567092895508
 30
0.0
 11
8.170464330183734
 21
-18.4650707244873
 31
0.0
  0
LINE
  5
1A2
330
1F
100
AcDbEntity
  8
0
100
AcDbLine
 10
-21.4842063851483
 20
-21.01845932006836
 30
0.0
 11
-21.34691543055845
 21
-23.46167945861816
 31
0.0
  0
LINE
  5
1A3
330
1F
100
AcDbEntity
  8
0
100
AcDbLine
 10
-18.00127524806333
 20
-31.7615394592285
 30
0.0
 11
-21.34420699549986
 21
-30.66278076171875
 31
0.0
  0
LINE
  5
1A4
330
1F
100
AcDbEntity
  8
0
100
AcDbLine
 10
-14.55421561671568
 20
-32.45954132080077
 30
0.0
 11
-18.00127524806333
 21
-31.7615394592285
 31
0.0
  0
LINE
  5
1A5
330
1F
100
AcDbEntity
  8
0
100
AcDbLine
 10
-11.04626578761412
 20
-32.75207901000975
 30
0.0
 11
-14.55421561671568
 21
-32.45954132080077
 31
0.0
  0
LINE
  5
1A6
330
1F
100
AcDbEntity
  8
0
100
AcDbLine
 10
-7.52961797190977
 20
-32.64081954956054
 30
0.0
 11
-11.04626578761412
 21
-32.75207901000975
 31
0.0
  0
LINE
  5
1A7
330
1F
100
AcDbEntity
  8
0
100
AcDbLine
 10
-4.043902105820903
 20
-32.13082122802734
 30
0.0
 11
-7.52961797190977
 21
-32.64081954956054
 31
0.0
  0
LINE
  5
1A8
330
1F
100
AcDbEntity
  8
0
100
AcDbLine
 10
-0.6385917134411465
 20
-31.23254013061523
 30
0.0
 11
-4.043902105820903
 21
-32.13082122802734
 31
0.0
  0
LINE
  5
1A9
330
1F
100
AcDbEntity
  8
0
100
AcDbLine
 10
2.656431966292129
 20
-29.9746799468994
 30
0.0
 11
-0.6385917134411465
 21
-31.23254013061523
 31
0.0
  0
LINE
  5
1AA
330
1F
100
AcDbEntity
  8
0
100
AcDbLine
 10
5.792053037153948
 20
-28.40056037902832
 30
0.0
 11
2.656431966292129
 21
-29.9746799468994
 31
0.0
  0
LINE
  5
1AB
330
1F
100
AcDbEntity
  8
0
100
AcDbLine
 10
8.767782979475726
 20
-26.47333908081053
 30
0.0
 11
5.792053037153948
 21
-28.40056037902832
 31
0.0
  0
LINE
  5
1AC
330
1F
100
AcDbEntity
  8
0
100
AcDbLine
 10
8.170464330183734
 20
-18.4650707244873
 30
0.0
 11
8.728174024092421
 21
-20.41795921325684
 31
0.0
  0
LINE
  5
1AD
330
1F
100
AcDbEntity
  8
0
100
AcDbLine
 10
8.728174024092421
 20
-20.41795921325684
 30
0.0
 11
9.016323857771622
 21
-22.42839050292969
 31
0.0
  0
LINE
  5
1AE
330
1F
100
AcDbEntity
  8
0
100
AcDbLine
 10
9.016323857771622
 20
-22.42839050292969
 30
0.0
 11
9.029608540999162
 21
-24.45932006835937
 31
0.0
  0
LINE
  5
1AF
330
1F
100
AcDbEntity
  8
0
100
AcDbLine
 10
9.029608540999162
 20
-24.45932006835937
 30
0.0
 11
8.767782979475726
 21
-26.47333908081053
 31
0.0
  0
LINE
  5
1B0
330
1F
100
AcDbEntity
  8
0
100
AcDbLine
 10
-10.77517623378111
 20
-9.660985946655273
 30
0.0
 11
-11.59271640254331
 21
-8.834856986999508
 31
0.0
  0
LINE
  5
1B1
330
1F
100
AcDbEntity
  8
0
100
AcDbLine
 10
-9.9424354500897
 20
-10.22638988494873
 30
0.0
 11
-10.77517623378111
 21
-9.660985946655273
 31
0.0
  0
LINE
  5
1B2
330
1F
100
AcDbEntity
  8
0
100
AcDbLine
 10
-8.543119616044294
 20
-10.80066013336182
 30
0.0
 11
-9.9424354500897
 21
-10.22638988494873
 31
0.0
  0
LINE
  5
1B3
330
1F
100
AcDbEntity
  8
0
100
AcDbLine
 10
-20.09956664515806
 20
15.63706016540527
 30
0.0
 11
-18.52140540553404
 21
15.73836994171142
 31
0.0
  0
LINE
  5
1B4
330
1F
100
AcDbEntity
  8
0
100
AcDbLine
 10
-18.52140540553404
 20
15.73836994171142
 30
0.0
 11
-17.99405593348814
 21
15.7336597442627
 31
0.0
  0
LINE
  5
1B5
330
1F
100
AcDbEntity
  8
0
100
AcDbLine
 10
-17.99405593348814
 20
15.7336597442627
 30
0.0
 11
-16.41795653773619
 21
15.60418033599853
 31
0.0
  0
LINE
  5
1B6
330
1F
100
AcDbEntity
  8
0
100
AcDbLine
 10
-16.41795653773619
 20
15.60418033599853
 30
0.0
 11
-13.28042621089292
 21
14.9766902923584
 31
0.0
  0
LINE
  5
1B7
330
1F
100
AcDbEntity
  8
0
100
AcDbLine
 10
-13.28042621089292
 20
14.9766902923584
 30
0.0
 11
-11.25911635829283
 21
14.30461978912354
 31
0.0
  0
LINE
  5
1B8
330
1F
100
AcDbEntity
  8
0
100
AcDbLine
 10
-11.25911635829283
 20
14.30461978912354
 30
0.0
 11
-9.33681888057066
 21
13.39706039428711
 31
0.0
  0
LINE
  5
1B9
330
1F
100
AcDbEntity
  8
0
100
AcDbLine
 10
-9.33681888057066
 20
13.39706039428711
 30
0.0
 11
-7.540495104325544
 21
12.25776958465576
 31
0.0
  0
LINE
  5
1BA
330
1F
100
AcDbEntity
  8
0
100
AcDbLine
 10
-17.24451560450865
 20
-10.92603969573974
 30
0.0
 11
-17.41872519923521
 21
-9.52943515777588
 31
0.0
  0
LINE
  5
1BB
330
1F
100
AcDbEntity
  8
0
100
AcDbLine
 10
-17.41872519923521
 20
-9.52943515777588
 30
0.0
 11
-17.30699653102232
 21
-8.218399047851562
 31
0.0
  0
LINE
  5
1BC
330
1F
100
AcDbEntity
  8
0
100
AcDbLine
 10
-16.9198352761395
 20
-6.929049015045162
 30
0.0
 11
-18.00618667079283
 21
-6.288721084594726
 31
0.0
  0
LINE
  5
1BD
330
1F
100
AcDbEntity
  8
0
100
AcDbLine
 10
-18.05477637721373
 20
-6.231926918029789
 30
0.0
 11
-18.00618667079283
 21
-6.288721084594726
 31
0.0
  0
LINE
  5
1BE
330
1F
100
AcDbEntity
  8
0
100
AcDbLine
 10
-18.00618667079283
 20
-6.288721084594726
 30
0.0
 11
-18.06443519069029
 21
-6.277461051940914
 31
0.0
  0
LINE
  5
1BF
330
1F
100
AcDbEntity
  8
0
100
AcDbLine
 10
-18.06443519069029
 20
-6.277461051940914
 30
0.0
 11
-18.05477637721373
 21
-6.231926918029789
 31
0.0
  0
LINE
  5
1C0
330
1F
100
AcDbEntity
  8
0
100
AcDbLine
 10
-17.75998610926939
 20
-2.520755052566529
 30
0.0
 11
-17.75892562342955
 21
-2.759548902511596
 31
0.0
  0
LINE
  5
1C1
330
1F
100
AcDbEntity
  8
0
100
AcDbLine
 10
-18.18139571620299
 20
3.080018043518069
 30
0.0
 11
-17.29600638820006
 21
3.293642997741698
 31
0.0
  0
LINE
  5
1C2
330
1F
100
AcDbEntity
  8
0
100
AcDbLine
 10
-17.29600638820006
 20
3.293642997741698
 30
0.0
 11
-16.84678573085142
 21
4.7605299949646
 31
0.0
  0
LINE
  5
1C3
330
1F
100
AcDbEntity
  8
0
100
AcDbLine
 10
-16.84678573085142
 20
4.7605299949646
 30
0.0
 11
-16.67912597132993
 21
5.630040168762207
 31
0.0
  0
LINE
  5
1C4
330
1F
100
AcDbEntity
  8
0
100
AcDbLine
 10
-37.47860450221372
 20
0.5731868743896508
 30
0.0
 11
-36.17987555934263
 21
3.828722953796385
 31
0.0
  0
LINE
  5
1C5
330
1F
100
AcDbEntity
  8
0
100
AcDbLine
 10
-36.17987555934263
 20
3.828722953796385
 30
0.0
 11
-34.39072532130552
 21
6.832615852355953
 31
0.0
  0
LINE
  5
1C6
330
1F
100
AcDbEntity
  8
0
100
AcDbLine
 10
-33.9762546486981
 20
5.113432884216307
 30
0.0
 11
-33.06511420680358
 21
5.445078849792479
 31
0.0
  0
LINE
  5
1C7
330
1F
100
AcDbEntity
  8
0
100
AcDbLine
 10
-33.06511420680358
 20
5.445078849792479
 30
0.0
 11
-31.48740691615416
 21
5.880959033966064
 31
0.0
  0
LINE
  5
1C8
330
1F
100
AcDbEntity
  8
0
100
AcDbLine
 10
-31.48740691615416
 20
5.880959033966064
 30
0.0
 11
-29.42679519130064
 21
6.021495819091795
 31
0.0
  0
LINE
  5
1C9
330
1F
100
AcDbEntity
  8
0
100
AcDbLine
 10
-29.42679519130064
 20
6.021495819091795
 30
0.0
 11
-28.88802642299009
 21
5.995032787322998
 31
0.0
  0
LINE
  5
1CA
330
1F
100
AcDbEntity
  8
0
100
AcDbLine
 10
-28.88802642299009
 20
5.995032787322998
 30
0.0
 11
-26.95679587794615
 21
5.567080020904538
 31
0.0
  0
LINE
  5
1CB
330
1F
100
AcDbEntity
  8
0
100
AcDbLine
 10
-26.95679587794615
 20
5.567080020904538
 30
0.0
 11
-24.59903640223814
 21
4.539628982543944
 31
0.0
  0
LINE
  5
1CC
330
1F
100
AcDbEntity
  8
0
100
AcDbLine
 10
-24.59903640223814
 20
4.539628982543944
 30
0.0
 11
-22.72446555568052
 21
3.073287010192874
 31
0.0
  0
LINE
  5
1CD
330
1F
100
AcDbEntity
  8
0
100
AcDbLine
 10
-22.72446555568052
 20
3.073287010192874
 30
0.0
 11
-21.85454673243834
 21
2.045874118804935
 31
0.0
  0
LINE
  5
1CE
330
1F
100
AcDbEntity
  8
0
100
AcDbLine
 10
-21.85454673243834
 20
2.045874118804935
 30
0.0
 11
-21.20634574366881
 21
1.140442013740539
 31
0.0
  0
LINE
  5
1CF
330
1F
100
AcDbEntity
  8
0
100
AcDbLine
 10
-21.20634574366881
 20
1.140442013740539
 30
0.0
 11
-20.43340606166197
 21
1.849349975585936
 31
0.0
  0
LINE
  5
1D0
330
1F
100
AcDbEntity
  8
0
100
AcDbLine
 10
-20.43340606166197
 20
1.849349975585936
 30
0.0
 11
-19.93790549708677
 21
2.232347965240477
 31
0.0
  0
LINE
  5
1D1
330
1F
100
AcDbEntity
  8
0
100
AcDbLine
 10
-19.93790549708677
 20
2.232347965240477
 30
0.0
 11
-19.07297629786802
 21
2.726401090621946
 31
0.0
  0
LINE
  5
1D2
330
1F
100
AcDbEntity
  8
0
100
AcDbLine
 10
-19.5741664834149
 20
-5.516181945800779
 30
0.0
 11
-20.47650641871763
 21
-6.30918121337891
 31
0.0
  0
LINE
  5
1D3
330
1F
100
AcDbEntity
  8
0
100
AcDbLine
 10
-19.15064544154478
 20
-5.307439804077149
 30
0.0
 11
-19.5741664834149
 21
-5.516181945800779
 31
0.0
  0
LINE
  5
1D4
330
1F
100
AcDbEntity
  8
0
100
AcDbLine
 10
-18.82971686793638
 20
-5.638745784759521
 30
0.0
 11
-19.15064544154478
 21
-5.307439804077149
 31
0.0
  0
LINE
  5
1D5
330
1F
100
AcDbEntity
  8
0
100
AcDbLine
 10
-19.07297629786802
 20
2.726401090621946
 30
0.0
 11
-18.18139571620299
 21
3.080018043518069
 31
0.0
  0
LINE
  5
1D6
330
1F
100
AcDbEntity
  8
0
100
AcDbLine
 10
-18.05477637721373
 20
-6.231926918029789
 30
0.0
 11
-18.82971686793638
 21
-5.638745784759521
 31
0.0
  0
LINE
  5
1D7
330
1F
100
AcDbEntity
  8
0
100
AcDbLine
 10
-38.28923530055358
 20
-9.835592269897461
 30
0.0
 11
-38.5339061684735
 21
-6.338024139404299
 31
0.0
  0
LINE
  5
1D8
330
1F
100
AcDbEntity
  8
0
100
AcDbLine
 10
-38.5339061684735
 20
-6.338024139404299
 30
0.0
 11
-38.26646537257506
 21
-2.839652061462403
 31
0.0
  0
LINE
  5
1D9
330
1F
100
AcDbEntity
  8
0
100
AcDbLine
 10
-37.54617423487975
 20
-13.26739025115967
 30
0.0
 11
-38.28923530055358
 21
-9.835592269897461
 31
0.0
  0
LINE
  5
1DA
330
1F
100
AcDbEntity
  8
0
100
AcDbLine
 10
-38.26646537257506
 20
-2.839652061462403
 30
0.0
 11
-37.47860450221372
 21
0.5731868743896508
 31
0.0
  0
LINE
  5
1DB
330
1F
100
AcDbEntity
  8
0
100
AcDbLine
 10
-37.07521552516295
 20
-9.17255115509033
 30
0.0
 11
-36.58060569239928
 21
-11.74790000915527
 31
0.0
  0
LINE
  5
1DC
330
1F
100
AcDbEntity
  8
0
100
AcDbLine
 10
-36.33092612696957
 20
-16.55876922607422
 30
0.0
 11
-37.54617423487975
 21
-13.26739025115967
 31
0.0
  0
LINE
  5
1DD
330
1F
100
AcDbEntity
  8
0
100
AcDbLine
 10
-34.67828483058285
 20
-19.65932083129882
 30
0.0
 11
-36.33092612696957
 21
-16.55876922607422
 31
0.0
  0
LINE
  5
1DE
330
1F
100
AcDbEntity
  8
0
100
AcDbLine
 10
-32.62790793849302
 20
-22.50931930541992
 30
0.0
 11
-34.67828483058285
 21
-19.65932083129882
 31
0.0
  0
LINE
  5
1DF
330
1F
100
AcDbEntity
  8
0
100
AcDbLine
 10
-30.2190067238934
 20
-25.06937026977539
 30
0.0
 11
-32.62790793849302
 21
-22.50931930541992
 31
0.0
  0
LINE
  5
1E0
330
1F
100
AcDbEntity
  8
0
100
AcDbLine
 10
-27.50500602198913
 20
-27.3001594543457
 30
0.0
 11
-30.2190067238934
 21
-25.06937026977539
 31
0.0
  0
LINE
  5
1E1
330
1F
100
AcDbEntity
  8
0
100
AcDbLine
 10
-24.52810592128111
 20
-29.17326927185058
 30
0.0
 11
-27.50500602198913
 21
-27.3001594543457
 31
0.0
  0
LINE
  5
1E2
330
1F
100
AcDbEntity
  8
0
100
AcDbLine
 10
-21.34420699549986
 20
-30.66278076171875
 30
0.0
 11
-24.52810592128111
 21
-29.17326927185058
 31
0.0
  0
LINE
  5
1E3
330
1F
100
AcDbEntity
  8
0
100
AcDbLine
 10
-20.47650641871763
 20
-6.30918121337891
 30
0.0
 11
-20.74345702601744
 21
-6.711209774017337
 31
0.0
  0
LINE
  5
1E4
330
1F
100
AcDbEntity
  8
0
100
AcDbLine
 10
24.58235436009096
 20
27.43339920043944
 30
0.0
 11
26.85209351109194
 21
25.94518089294435
 31
0.0
  0
LINE
  5
1E5
330
1F
100
AcDbEntity
  8
0
100
AcDbLine
 10
12.77572422550844
 20
-3.521476984024047
 30
0.0
 11
13.74681358860659
 21
-3.866719007492068
 31
0.0
  0
LINE
  5
1E6
330
1F
100
AcDbEntity
  8
0
100
AcDbLine
 10
11.86922436283754
 20
-3.013597011566162
 30
0.0
 11
12.77572422550844
 21
-3.521476984024047
 31
0.0
  0
LINE
  5
1E7
330
1F
100
AcDbEntity
  8
0
100
AcDbLine
 10
13.74681358860659
 20
-3.866719007492068
 30
0.0
 11
14.77962379978823
 21
-4.046525955200197
 31
0.0
  0
LINE
  5
1E8
330
1F
100
AcDbEntity
  8
0
100
AcDbLine
 10
14.77962379978823
 20
-4.046525955200197
 30
0.0
 11
14.53688412235903
 21
-4.79486083984375
 31
0.0
  0
LINE
  5
1E9
330
1F
100
AcDbEntity
  8
0
100
AcDbLine
 10
26.85209351109194
 20
25.94518089294435
 30
0.0
 11
28.72200470493958
 21
24.42571067810058
 31
0.0
  0
LINE
  5
1EA
330
1F
100
AcDbEntity
  8
0
100
AcDbLine
 10
14.53688412235903
 20
-4.79486083984375
 30
0.0
 11
14.31394367741273
 21
-5.308784961700438
 31
0.0
  0
LINE
  5
1EB
330
1F
100
AcDbEntity
  8
0
100
AcDbLine
 10
28.72200470493958
 20
24.42571067810058
 30
0.0
 11
30.45491295384094
 21
22.74127006530762
 31
0.0
  0
LINE
  5
1EC
330
1F
100
AcDbEntity
  8
0
100
AcDbLine
 10
14.31394367741273
 20
-5.308784961700438
 30
0.0
 11
14.04353409336733
 21
-6.322155952453616
 31
0.0
  0
LINE
  5
1ED
330
1F
100
AcDbEntity
  8
0
100
AcDbLine
 10
14.04353409336733
 20
-6.322155952453616
 30
0.0
 11
13.97317390965151
 21
-7.055801868438723
 31
0.0
  0
LINE
  5
1EE
330
1F
100
AcDbEntity
  8
0
100
AcDbLine
 10
30.45491295384094
 20
22.74127006530762
 30
0.0
 11
32.13719444798159
 21
20.77887916564942
 31
0.0
  0
LINE
  5
1EF
330
1F
100
AcDbEntity
  8
0
100
AcDbLine
 10
13.97317390965151
 20
-7.055801868438723
 30
0.0
 11
13.96673374699282
 21
-9.125452041625973
 31
0.0
  0
LINE
  5
1F0
330
1F
100
AcDbEntity
  8
0
100
AcDbLine
 10
32.13719444798159
 20
20.77887916564942
 30
0.0
 11
33.6488445334308
 21
18.58663940429688
 31
0.0
  0
LINE
  5
1F1
330
1F
100
AcDbEntity
  8
0
100
AcDbLine
 10
13.96673374699282
 20
-9.125452041625973
 30
0.0
 11
14.45077400730776
 21
-11.07649040222168
 31
0.0
  0
LINE
  5
1F2
330
1F
100
AcDbEntity
  8
0
100
AcDbLine
 10
33.6488445334308
 20
18.58663940429688
 30
0.0
 11
34.88508492039369
 21
16.29771041870117
 31
0.0
  0
LINE
  5
1F3
330
1F
100
AcDbEntity
  8
0
100
AcDbLine
 10
14.45077400730776
 20
-11.07649040222168
 30
0.0
 11
15.31169395970034
 21
-12.8090295791626
 31
0.0
  0
LINE
  5
1F4
330
1F
100
AcDbEntity
  8
0
100
AcDbLine
 10
34.88508492039369
 20
16.29771041870117
 30
0.0
 11
35.88541298435853
 21
13.90126037597656
 31
0.0
  0
LINE
  5
1F5
330
1F
100
AcDbEntity
  8
0
100
AcDbLine
 10
15.31169395970034
 20
-12.8090295791626
 30
0.0
 11
15.66680412815736
 21
-13.31492042541504
 31
0.0
  0
LINE
  5
1F6
330
1F
100
AcDbEntity
  8
0
100
AcDbLine
 10
15.66680412815736
 20
-13.31492042541504
 30
0.0
 11
17.55455475376771
 21
-15.17008018493652
 31
0.0
  0
LINE
  5
1F7
330
1F
100
AcDbEntity
  8
0
100
AcDbLine
 10
35.88541298435853
 20
13.90126037597656
 30
0.0
 11
35.48261528538391
 21
11.95709037780762
 31
0.0
  0
LINE
  5
1F8
330
1F
100
AcDbEntity
  8
0
100
AcDbLine
 10
17.55455475376771
 20
-15.17008018493652
 30
0.0
 11
15.39761429356264
 21
-14.97294044494629
 31
0.0
  0
LINE
  5
1F9
330
1F
100
AcDbEntity
  8
0
100
AcDbLine
 10
35.48261528538391
 20
11.95709037780762
 30
0.0
 11
35.25157433079409
 21
11.12308025360107
 31
0.0
  0
LINE
  5
1FA
330
1F
100
AcDbEntity
  8
0
100
AcDbLine
 10
35.25157433079409
 20
11.12308025360107
 30
0.0
 11
34.08416252659487
 21
9.008641242980959
 31
0.0
  0
LINE
  5
1FB
330
1F
100
AcDbEntity
  8
0
100
AcDbLine
 10
6.903115087019671
 20
-5.522686958312988
 30
0.0
 11
8.001697831618058
 21
-4.14772176742554
 31
0.0
  0
LINE
  5
1FC
330
1F
100
AcDbEntity
  8
0
100
AcDbLine
 10
6.233771138655415
 20
-7.02756977081299
 30
0.0
 11
6.903115087019671
 21
-5.522686958312988
 31
0.0
  0
LINE
  5
1FD
330
1F
100
AcDbEntity
  8
0
100
AcDbLine
 10
26.66691475437808
 20
-15.28818988800049
 30
0.0
 11
26.84910469578431
 21
-15.00187015533447
 31
0.0
  0
LINE
  5
1FE
330
1F
100
AcDbEntity
  8
0
100
AcDbLine
 10
26.56504326389955
 20
-15.61190986633301
 30
0.0
 11
26.66691475437808
 21
-15.28818988800049
 31
0.0
  0
LINE
  5
1FF
330
1F
100
AcDbEntity
  8
0
100
AcDbLine
 10
29.06677322910951
 20
-15.3916597366333
 30
0.0
 11
29.14041405247378
 21
-15.72294044494629
 31
0.0
  0
LINE
  5
200
330
1F
100
AcDbEntity
  8
0
100
AcDbLine
 10
29.02392464207339
 20
-16.38570976257324
 30
0.0
 11
28.84173470066713
 21
-16.67202949523925
 31
0.0
  0
LINE
  5
201
330
1F
100
AcDbEntity
  8
0
100
AcDbLine
 10
29.12579422520326
 20
-16.06199073791504
 30
0.0
 11
29.02392464207339
 21
-16.38570976257324
 31
0.0
  0
LINE
  5
202
330
1F
100
AcDbEntity
  8
0
100
AcDbLine
 10
28.59165459202456
 20
-16.90143966674804
 30
0.0
 11
28.29071312473939
 21
-17.05830955505371
 31
0.0
  0
LINE
  5
203
330
1F
100
AcDbEntity
  8
0
100
AcDbLine
 10
28.84173470066713
 20
-16.67202949523925
 30
0.0
 11
28.59165459202456
 21
-16.90143966674804
 31
0.0
  0
LINE
  5
204
330
1F
100
AcDbEntity
  8
0
100
AcDbLine
 10
27.95943337010073
 20
-17.1319408416748
 30
0.0
 11
27.6203735403888
 21
-17.11731910705566
 31
0.0
  0
LINE
  5
205
330
1F
100
AcDbEntity
  8
0
100
AcDbLine
 10
28.29071312473939
 20
-17.05830955505371
 30
0.0
 11
27.95943337010073
 21
-17.1319408416748
 31
0.0
  0
LINE
  5
206
330
1F
100
AcDbEntity
  8
0
100
AcDbLine
 10
27.29666405247376
 20
-17.01544952392578
 30
0.0
 11
27.01034431980774
 21
-16.83325958251953
 31
0.0
  0
LINE
  5
207
330
1F
100
AcDbEntity
  8
0
100
AcDbLine
 10
27.6203735403888
 20
-17.11731910705566
 30
0.0
 11
27.29666405247376
 21
-17.01544952392578
 31
0.0
  0
LINE
  5
208
330
1F
100
AcDbEntity
  8
0
100
AcDbLine
 10
26.7809246115558
 20
-16.58317947387695
 30
0.0
 11
26.62406425999332
 21
-16.28223991394043
 31
0.0
  0
LINE
  5
209
330
1F
100
AcDbEntity
  8
0
100
AcDbLine
 10
27.01034431980774
 20
-16.83325958251953
 30
0.0
 11
26.7809246115558
 21
-16.58317947387695
 31
0.0
  0
LINE
  5
20A
330
1F
100
AcDbEntity
  8
0
100
AcDbLine
 10
26.55042343662904
 20
-15.95096015930176
 30
0.0
 11
26.56504326389955
 21
-15.61190986633301
 31
0.0
  0
LINE
  5
20B
330
1F
100
AcDbEntity
  8
0
100
AcDbLine
 10
26.62406425999332
 20
-16.28223991394043
 30
0.0
 11
26.55042343662904
 21
-15.95096015930176
 31
0.0
  0
LINE
  5
20C
330
1F
100
AcDbEntity
  8
0
100
AcDbLine
 10
8.001697831618058
 20
-4.14772176742554
 30
0.0
 11
9.438044362532365
 21
-3.083700895309448
 31
0.0
  0
LINE
  5
20D
330
1F
100
AcDbEntity
  8
0
100
AcDbLine
 10
27.09918480442689
 20
-14.77245998382568
 30
0.0
 11
27.40012436436341
 21
-14.61559009552002
 31
0.0
  0
LINE
  5
20E
330
1F
100
AcDbEntity
  8
0
100
AcDbLine
 10
26.84910469578431
 20
-15.00187015533447
 30
0.0
 11
27.09918480442689
 21
-14.77245998382568
 31
0.0
  0
LINE
  5
20F
330
1F
100
AcDbEntity
  8
0
100
AcDbLine
 10
27.7314041190021
 20
-14.54195976257324
 30
0.0
 11
28.07046394871401
 21
-14.55657958984375
 31
0.0
  0
LINE
  5
210
330
1F
100
AcDbEntity
  8
0
100
AcDbLine
 10
27.40012436436341
 20
-14.61559009552002
 30
0.0
 11
27.7314041190021
 21
-14.54195976257324
 31
0.0
  0
LINE
  5
211
330
1F
100
AcDbEntity
  8
0
100
AcDbLine
 10
28.39417343662904
 20
-14.65845012664795
 30
0.0
 11
28.68049316929506
 21
-14.8406400680542
 31
0.0
  0
LINE
  5
212
330
1F
100
AcDbEntity
  8
0
100
AcDbLine
 10
28.07046394871401
 20
-14.55657958984375
 30
0.0
 11
28.39417343662904
 21
-14.65845012664795
 31
0.0
  0
LINE
  5
213
330
1F
100
AcDbEntity
  8
0
100
AcDbLine
 10
28.90991478489564
 20
-15.09072017669678
 30
0.0
 11
29.06677322910951
 21
-15.3916597366333
 31
0.0
  0
LINE
  5
214
330
1F
100
AcDbEntity
  8
0
100
AcDbLine
 10
28.68049316929506
 20
-14.8406400680542
 30
0.0
 11
28.90991478489564
 21
-15.09072017669678
 31
0.0
  0
LINE
  5
215
330
1F
100
AcDbEntity
  8
0
100
AcDbLine
 10
3.587081008421648
 20
11.02597999572753
 30
0.0
 11
1.904376917349567
 21
11.79181957244873
 31
0.0
  0
LINE
  5
216
330
1F
100
AcDbEntity
  8
0
100
AcDbLine
 10
5.353750043379535
 20
10.48112010955811
 30
0.0
 11
3.587081008421648
 21
11.02597999572753
 31
0.0
  0
LINE
  5
217
330
1F
100
AcDbEntity
  8
0
100
AcDbLine
 10
1.904376917349567
 20
11.79181957244873
 30
0.0
 11
0.3331506185405149
 21
12.76611042022705
 31
0.0
  0
LINE
  5
218
330
1F
100
AcDbEntity
  8
0
100
AcDbLine
 10
-1.10091204119993
 20
13.93292999267578
 30
0.0
 11
-2.374365038407574
 21
15.27318954467773
 31
0.0
  0
LINE
  5
219
330
1F
100
AcDbEntity
  8
0
100
AcDbLine
 10
0.3331506185405149
 20
12.76611042022705
 30
0.0
 11
-1.10091204119993
 21
13.93292999267578
 31
0.0
  0
LINE
  5
21A
330
1F
100
AcDbEntity
  8
0
100
AcDbLine
 10
-3.46639007998777
 20
16.76499938964844
 30
0.0
 11
-4.359131998551617
 21
18.38394927978516
 31
0.0
  0
LINE
  5
21B
330
1F
100
AcDbEntity
  8
0
100
AcDbLine
 10
-2.374365038407574
 20
15.27318954467773
 30
0.0
 11
-3.46639007998777
 21
16.76499938964844
 31
0.0
  0
LINE
  5
21C
330
1F
100
AcDbEntity
  8
0
100
AcDbLine
 10
-5.037996954453717
 20
20.10358047485351
 30
0.0
 11
-5.491886324418315
 21
21.8957805633545
 31
0.0
  0
LINE
  5
21D
330
1F
100
AcDbEntity
  8
0
100
AcDbLine
 10
-4.359131998551617
 20
18.38394927978516
 30
0.0
 11
-5.037996954453717
 21
20.10358047485351
 31
0.0
  0
LINE
  5
21E
330
1F
100
AcDbEntity
  8
0
100
AcDbLine
 10
-5.713379091752302
 20
23.73125076293945
 30
0.0
 11
-5.698854155076277
 21
25.57996940612793
 31
0.0
  0
LINE
  5
21F
330
1F
100
AcDbEntity
  8
0
100
AcDbLine
 10
-5.491886324418315
 20
21.8957805633545
 30
0.0
 11
-5.713379091752302
 21
23.73125076293945
 31
0.0
  0
LINE
  5
220
330
1F
100
AcDbEntity
  8
0
100
AcDbLine
 10
-5.448548979295025
 20
27.41172981262207
 30
0.0
 11
-2.35046905947996
 21
28.93448066711426
 31
0.0
  0
LINE
  5
221
330
1F
100
AcDbEntity
  8
0
100
AcDbLine
 10
-5.698854155076277
 20
25.57996940612793
 30
0.0
 11
-5.448548979295025
 21
27.41172981262207
 31
0.0
  0
LINE
  5
222
330
1F
100
AcDbEntity
  8
0
100
AcDbLine
 10
-2.35046905947996
 20
28.93448066711426
 30
0.0
 11
0.468957804905643
 21
30.0030002593994
 31
0.0
  0
LINE
  5
223
330
1F
100
AcDbEntity
  8
0
100
AcDbLine
 10
0.468957804905643
 20
30.0030002593994
 30
0.0
 11
3.514269881712665
 21
30.81122970581053
 31
0.0
  0
LINE
  5
224
330
1F
100
AcDbEntity
  8
0
100
AcDbLine
 10
4.058302693831196
 20
30.89888954162597
 30
0.0
 11
6.558689885603655
 21
31.12867927551269
 31
0.0
  0
LINE
  5
225
330
1F
100
AcDbEntity
  8
0
100
AcDbLine
 10
3.514269881712665
 20
30.81122970581053
 30
0.0
 11
4.058302693831196
 21
30.89888954162597
 31
0.0
  0
LINE
  5
226
330
1F
100
AcDbEntity
  8
0
100
AcDbLine
 10
7.986387067305315
 20
31.20149993896484
 30
0.0
 11
9.849265866743796
 21
31.1454792022705
 31
0.0
  0
LINE
  5
227
330
1F
100
AcDbEntity
  8
0
100
AcDbLine
 10
6.558689885603655
 20
31.12867927551269
 30
0.0
 11
7.986387067305315
 21
31.20149993896484
 31
0.0
  0
LINE
  5
228
330
1F
100
AcDbEntity
  8
0
100
AcDbLine
 10
11.65923386143373
 20
31.03874015808104
 30
0.0
 11
13.3193243079059
 21
31.20502090454101
 31
0.0
  0
LINE
  5
229
330
1F
100
AcDbEntity
  8
0
100
AcDbLine
 10
9.849265866743796
 20
31.1454792022705
 30
0.0
 11
11.65923386143373
 21
31.03874015808104
 31
0.0
  0
LINE
  5
22A
330
1F
100
AcDbEntity
  8
0
100
AcDbLine
 10
13.3193243079059
 20
31.20502090454101
 30
0.0
 11
16.71078377293275
 21
30.64435958862304
 31
0.0
  0
LINE
  5
22B
330
1F
100
AcDbEntity
  8
0
100
AcDbLine
 10
16.71078377293275
 20
30.64435958862304
 30
0.0
 11
19.582333379256
 21
29.81168937683105
 31
0.0
  0
LINE
  5
22C
330
1F
100
AcDbEntity
  8
0
100
AcDbLine
 10
19.582333379256
 20
29.81168937683105
 30
0.0
 11
21.2847431235187
 21
27.88997077941895
 31
0.0
  0
LINE
  5
22D
330
1F
100
AcDbEntity
  8
0
100
AcDbLine
 10
21.2847431235187
 20
27.88997077941895
 30
0.0
 11
22.35280304478334
 21
25.96867942810059
 31
0.0
  0
LINE
  5
22E
330
1F
100
AcDbEntity
  8
0
100
AcDbLine
 10
22.35280304478334
 20
25.96867942810059
 30
0.0
 11
22.96103363560366
 21
24.19506072998047
 31
0.0
  0
LINE
  5
22F
330
1F
100
AcDbEntity
  8
0
100
AcDbLine
 10
22.96103363560366
 20
24.19506072998047
 30
0.0
 11
23.29051476048158
 21
22.06778907775879
 31
0.0
  0
LINE
  5
230
330
1F
100
AcDbEntity
  8
0
100
AcDbLine
 10
23.15034370945619
 20
19.62471961975097
 30
0.0
 11
22.57572441624331
 21
17.38315963745117
 31
0.0
  0
LINE
  5
231
330
1F
100
AcDbEntity
  8
0
100
AcDbLine
 10
22.57572441624331
 20
17.38315963745117
 30
0.0
 11
21.55702477024721
 21
15.32038021087647
 31
0.0
  0
LINE
  5
232
330
1F
100
AcDbEntity
  8
0
100
AcDbLine
 10
21.55702477024721
 20
15.32038021087647
 30
0.0
 11
19.9586647086017
 21
13.32971000671387
 31
0.0
  0
LINE
  5
233
330
1F
100
AcDbEntity
  8
0
100
AcDbLine
 10
19.9586647086017
 20
13.32971000671387
 30
0.0
 11
18.47330360935853
 21
12.05568981170654
 31
0.0
  0
LINE
  5
234
330
1F
100
AcDbEntity
  8
0
100
AcDbLine
 10
18.09409409092592
 20
11.77795028686523
 30
0.0
 11
16.04102402256654
 21
12.66699028015137
 31
0.0
  0
LINE
  5
235
330
1F
100
AcDbEntity
  8
0
100
AcDbLine
 10
18.47330360935853
 20
12.05568981170654
 30
0.0
 11
18.09409409092592
 21
11.77795028686523
 31
0.0
  0
LINE
  5
236
330
1F
100
AcDbEntity
  8
0
100
AcDbLine
 10
16.04102402256654
 20
12.66699028015137
 30
0.0
 11
13.78217392491029
 21
13.11608028411865
 31
0.0
  0
LINE
  5
237
330
1F
100
AcDbEntity
  8
0
100
AcDbLine
 10
13.78217392491029
 20
13.11608028411865
 30
0.0
 11
11.45152359532045
 21
13.07993984222412
 31
0.0
  0
LINE
  5
238
330
1F
100
AcDbEntity
  8
0
100
AcDbLine
 10
11.45152359532045
 20
13.07993984222412
 30
0.0
 11
9.126764111983054
 21
12.54596996307373
 31
0.0
  0
LINE
  5
239
330
1F
100
AcDbEntity
  8
0
100
AcDbLine
 10
7.081466966139544
 20
11.65935039520263
 30
0.0
 11
5.353750043379535
 21
10.48112010955811
 31
0.0
  0
LINE
  5
23A
330
1F
100
AcDbEntity
  8
0
100
AcDbLine
 10
9.126764111983054
 20
12.54596996307373
 30
0.0
 11
7.081466966139544
 21
11.65935039520263
 31
0.0
  0
LINE
  5
23B
330
1F
100
AcDbEntity
  8
0
100
AcDbLine
 10
15.39761429356264
 20
-14.97294044494629
 30
0.0
 11
14.16201382206606
 21
-14.72163963317871
 31
0.0
  0
LINE
  5
23C
330
1F
100
AcDbEntity
  8
0
100
AcDbLine
 10
13.81169395970033
 20
-14.6896800994873
 30
0.0
 11
12.74075394200013
 21
-14.39768028259277
 31
0.0
  0
LINE
  5
23D
330
1F
100
AcDbEntity
  8
0
100
AcDbLine
 10
14.16201382206606
 20
-14.72163963317871
 30
0.0
 11
13.81169395970033
 21
-14.6896800994873
 31
0.0
  0
LINE
  5
23E
330
1F
100
AcDbEntity
  8
0
100
AcDbLine
 10
12.74075394200013
 20
-14.39768028259277
 30
0.0
 11
10.68980389164614
 21
-13.62642002105713
 31
0.0
  0
LINE
  5
23F
330
1F
100
AcDbEntity
  8
0
100
AcDbLine
 10
34.08416252659487
 20
9.008641242980959
 30
0.0
 11
33.16881447361636
 21
7.939951896667477
 31
0.0
  0
LINE
  5
240
330
1F
100
AcDbEntity
  8
0
100
AcDbLine
 10
33.16881447361636
 20
7.939951896667477
 30
0.0
 11
32.52071266697573
 21
7.276743888854979
 31
0.0
  0
LINE
  5
241
330
1F
100
AcDbEntity
  8
0
100
AcDbLine
 10
19.22673302220034
 20
11.03112030029297
 30
0.0
 11
21.16759377049135
 21
12.766770362854
 31
0.0
  0
LINE
  5
242
330
1F
100
AcDbEntity
  8
0
100
AcDbLine
 10
21.16759377049135
 20
12.766770362854
 30
0.0
 11
22.80051308201478
 21
14.97280025482178
 31
0.0
  0
LINE
  5
243
330
1F
100
AcDbEntity
  8
0
100
AcDbLine
 10
32.52071266697573
 20
7.276743888854979
 30
0.0
 11
30.35164337681457
 21
5.841577053070067
 31
0.0
  0
LINE
  5
244
330
1F
100
AcDbEntity
  8
0
100
AcDbLine
 10
22.80051308201478
 20
14.97280025482178
 30
0.0
 11
23.86710434483217
 21
17.27663040161132
 31
0.0
  0
LINE
  5
245
330
1F
100
AcDbEntity
  8
0
100
AcDbLine
 10
10.68980389164614
 20
-13.62642002105713
 30
0.0
 11
9.040033154951802
 21
-12.75992012023926
 31
0.0
  0
LINE
  5
246
330
1F
100
AcDbEntity
  8
0
100
AcDbLine
 10
30.35164337681457
 20
5.841577053070067
 30
0.0
 11
27.97013359593081
 21
5.030970096588135
 31
0.0
  0
LINE
  5
247
330
1F
100
AcDbEntity
  8
0
100
AcDbLine
 10
23.86710434483217
 20
17.27663040161132
 30
0.0
 11
24.44386368321108
 21
19.70519065856934
 31
0.0
  0
LINE
  5
248
330
1F
100
AcDbEntity
  8
0
100
AcDbLine
 10
27.97013359593081
 20
5.030970096588135
 30
0.0
 11
25.330624394881
 21
4.844758987426759
 31
0.0
  0
LINE
  5
249
330
1F
100
AcDbEntity
  8
0
100
AcDbLine
 10
11.2034042410724
 20
-2.494824886322018
 30
0.0
 11
11.86922436283754
 21
-3.013597011566162
 31
0.0
  0
LINE
  5
24A
330
1F
100
AcDbEntity
  8
0
100
AcDbLine
 10
24.44386368321108
 20
19.70519065856934
 30
0.0
 11
24.53987389134096
 21
22.0384407043457
 31
0.0
  0
LINE
  5
24B
330
1F
100
AcDbEntity
  8
0
100
AcDbLine
 10
9.040033154951802
 20
-12.75992012023926
 30
0.0
 11
7.786562734114397
 21
-11.90421962738037
 31
0.0
  0
LINE
  5
24C
330
1F
100
AcDbEntity
  8
0
100
AcDbLine
 10
7.786562734114397
 20
-11.90421962738037
 30
0.0
 11
6.170705132948624
 21
-10.53232002258301
 31
0.0
  0
LINE
  5
24D
330
1F
100
AcDbEntity
  8
0
100
AcDbLine
 10
6.170705132948624
 20
-10.53232002258301
 30
0.0
 11
5.925310903059713
 21
-8.757391929626465
 31
0.0
  0
LINE
  5
24E
330
1F
100
AcDbEntity
  8
0
100
AcDbLine
 10
25.330624394881
 20
4.844758987426759
 30
0.0
 11
24.19637375401186
 21
5.005595207214354
 31
0.0
  0
LINE
  5
24F
330
1F
100
AcDbEntity
  8
0
100
AcDbLine
 10
24.19637375401186
 20
5.005595207214354
 30
0.0
 11
22.89520340489076
 21
5.28795289993286
 31
0.0
  0
LINE
  5
250
330
1F
100
AcDbEntity
  8
0
100
AcDbLine
 10
24.53987389134096
 20
22.0384407043457
 30
0.0
 11
24.26359444187807
 21
24.13801956176758
 31
0.0
  0
LINE
  5
251
330
1F
100
AcDbEntity
  8
0
100
AcDbLine
 10
22.89520340489076
 20
5.28795289993286
 30
0.0
 11
22.525843434798
 21
6.61715507507324
 31
0.0
  0
LINE
  5
252
330
1F
100
AcDbEntity
  8
0
100
AcDbLine
 10
24.26359444187807
 20
24.13801956176758
 30
0.0
 11
23.55014305638002
 21
26.3517894744873
 31
0.0
  0
LINE
  5
253
330
1F
100
AcDbEntity
  8
0
100
AcDbLine
 10
22.525843434798
 20
6.61715507507324
 30
0.0
 11
21.9563739828937
 21
7.886308193206788
 31
0.0
  0
LINE
  5
254
330
1F
100
AcDbEntity
  8
0
100
AcDbLine
 10
23.55014305638002
 20
26.3517894744873
 30
0.0
 11
22.18589478062318
 21
28.69177055358885
 31
0.0
  0
LINE
  5
255
330
1F
100
AcDbEntity
  8
0
100
AcDbLine
 10
21.9563739828937
 20
7.886308193206788
 30
0.0
 11
21.20108299778627
 21
9.062346458435059
 31
0.0
  0
LINE
  5
256
330
1F
100
AcDbEntity
  8
0
100
AcDbLine
 10
22.18589478062318
 20
28.69177055358885
 30
0.0
 11
24.58235436009096
 21
27.43339920043944
 31
0.0
  0
LINE
  5
257
330
1F
100
AcDbEntity
  8
0
100
AcDbLine
 10
21.20108299778627
 20
9.062346458435059
 30
0.0
 11
20.28289299534486
 21
10.11785984039307
 31
0.0
  0
LINE
  5
258
330
1F
100
AcDbEntity
  8
0
100
AcDbLine
 10
9.438044362532365
 20
-3.083700895309448
 30
0.0
 11
11.2034042410724
 21
-2.494824886322018
 31
0.0
  0
LINE
  5
259
330
1F
100
AcDbEntity
  8
0
100
AcDbLine
 10
5.931973748671286
 20
-8.50443172454834
 30
0.0
 11
6.233771138655415
 21
-7.02756977081299
 31
0.0
  0
LINE
  5
25A
330
1F
100
AcDbEntity
  8
0
100
AcDbLine
 10
11.13132362888979
 20
3.033185958862305
 30
0.0
 11
11.68494396732973
 21
3.984936952590943
 31
0.0
  0
LINE
  5
25B
330
1F
100
AcDbEntity
  8
0
100
AcDbLine
 10
17.11612396763491
 20
1.089130043983462
 30
0.0
 11
16.81441383885073
 21
0.5626773834228525
 31
0.0
  0
LINE
  5
25C
330
1F
100
AcDbEntity
  8
0
100
AcDbLine
 10
4.96844368504213
 20
2.960644960403441
 30
0.0
 11
6.441078954207172
 21
3.037517070770265
 31
0.0
  0
LINE
  5
25D
330
1F
100
AcDbEntity
  8
0
100
AcDbLine
 10
1.872084908949601
 20
-2.027378082275388
 30
0.0
 11
1.777685933577289
 21
-0.4100267887115477
 31
0.0
  0
LINE
  5
25E
330
1F
100
AcDbEntity
  8
0
100
AcDbLine
 10
1.777685933577289
 20
-0.4100267887115477
 30
0.0
 11
1.842651896940934
 21
1.041991949081422
 31
0.0
  0
LINE
  5
25F
330
1F
100
AcDbEntity
  8
0
100
AcDbLine
 10
3.75057297276186
 20
2.563158988952633
 30
0.0
 11
4.96844368504213
 21
2.960644960403441
 31
0.0
  0
LINE
  5
260
330
1F
100
AcDbEntity
  8
0
100
AcDbLine
 10
2.841512017714253
 20
2.044157028198241
 30
0.0
 11
3.75057297276186
 21
2.563158988952633
 31
0.0
  0
LINE
  5
261
330
1F
100
AcDbEntity
  8
0
100
AcDbLine
 10
34.06008415745426
 20
-5.662033081054688
 30
0.0
 11
33.45230370091127
 21
-6.006906986236571
 31
0.0
  0
LINE
  5
262
330
1F
100
AcDbEntity
  8
0
100
AcDbLine
 10
31.0945346884601
 20
4.839225769042969
 30
0.0
 11
33.00978355930972
 21
6.061913967132567
 31
0.0
  0
LINE
  5
263
330
1F
100
AcDbEntity
  8
0
100
AcDbLine
 10
33.45230370091127
 20
-6.006906986236571
 30
0.0
 11
31.68370323704409
 21
-6.682536125183105
 31
0.0
  0
LINE
  5
264
330
1F
100
AcDbEntity
  8
0
100
AcDbLine
 10
33.00978355930972
 20
6.061913967132567
 30
0.0
 11
33.87803535984681
 21
6.85200977325439
 31
0.0
  0
LINE
  5
265
330
1F
100
AcDbEntity
  8
0
100
AcDbLine
 10
33.87803535984681
 20
6.85200977325439
 30
0.0
 11
35.45027428196595
 21
8.731506347656248
 31
0.0
  0
LINE
  5
266
330
1F
100
AcDbEntity
  8
0
100
AcDbLine
 10
17.35606461094546
 20
1.667521953582763
 30
0.0
 11
17.12242394016909
 21
1.202468037605282
 31
0.0
  0
LINE
  5
267
330
1F
100
AcDbEntity
  8
0
100
AcDbLine
 10
1.842651896940934
 20
1.041991949081422
 30
0.0
 11
2.841512017714253
 21
2.044157028198241
 31
0.0
  0
LINE
  5
268
330
1F
100
AcDbEntity
  8
0
100
AcDbLine
 10
12.33944397495913
 20
4.551990032196045
 30
0.0
 11
12.42354374455141
 21
4.666911125183107
 31
0.0
  0
LINE
  5
269
330
1F
100
AcDbEntity
  8
0
100
AcDbLine
 10
31.68370323704409
 20
-6.682536125183105
 30
0.0
 11
30.89572411106752
 21
-6.840693950653074
 31
0.0
  0
LINE
  5
26A
330
1F
100
AcDbEntity
  8
0
100
AcDbLine
 10
6.441078954207172
 20
3.037517070770265
 30
0.0
 11
7.842399888502821
 21
2.774269104003905
 31
0.0
  0
LINE
  5
26B
330
1F
100
AcDbEntity
  8
0
100
AcDbLine
 10
3.003112845885026
 20
-6.114896774291989
 30
0.0
 11
2.806206994520892
 21
-5.651041984558105
 31
0.0
  0
LINE
  5
26C
330
1F
100
AcDbEntity
  8
0
100
AcDbLine
 10
3.288861804472673
 20
-6.559121131896974
 30
0.0
 11
3.003112845885026
 21
-6.114896774291989
 31
0.0
  0
LINE
  5
26D
330
1F
100
AcDbEntity
  8
0
100
AcDbLine
 10
30.89572411106752
 20
-6.840693950653074
 30
0.0
 11
28.47620468662906
 21
-6.78963184356689
 31
0.0
  0
LINE
  5
26E
330
1F
100
AcDbEntity
  8
0
100
AcDbLine
 10
2.806206994520892
 20
-5.651041984558105
 30
0.0
 11
2.156069808470476
 21
-3.589345932006836
 31
0.0
  0
LINE
  5
26F
330
1F
100
AcDbEntity
  8
0
100
AcDbLine
 10
2.156069808470476
 20
-3.589345932006836
 30
0.0
 11
1.872084908949601
 21
-2.027378082275388
 31
0.0
  0
LINE
  5
270
330
1F
100
AcDbEntity
  8
0
100
AcDbLine
 10
28.47620468662906
 20
-6.78963184356689
 30
0.0
 11
25.99888306187319
 21
-6.247553825378416
 31
0.0
  0
LINE
  5
271
330
1F
100
AcDbEntity
  8
0
100
AcDbLine
 10
35.45027428196595
 20
8.731506347656248
 30
0.0
 11
36.59097557591128
 21
11.30142021179199
 31
0.0
  0
LINE
  5
272
330
1F
100
AcDbEntity
  8
0
100
AcDbLine
 10
15.81192379521059
 20
4.920156002044678
 30
0.0
 11
16.40266304539369
 21
4.518303871154788
 31
0.0
  0
LINE
  5
273
330
1F
100
AcDbEntity
  8
0
100
AcDbLine
 10
17.12242394016909
 20
1.202468037605282
 30
0.0
 11
17.11612396763491
 21
1.089130043983462
 31
0.0
  0
LINE
  5
274
330
1F
100
AcDbEntity
  8
0
100
AcDbLine
 10
16.89816360996889
 20
3.970623970031739
 30
0.0
 11
17.22580414341616
 21
3.330045938491821
 31
0.0
  0
LINE
  5
275
330
1F
100
AcDbEntity
  8
0
100
AcDbLine
 10
36.59097557591128
 20
11.30142021179199
 30
0.0
 11
37.10024529026674
 21
8.70480155944824
 31
0.0
  0
LINE
  5
276
330
1F
100
AcDbEntity
  8
0
100
AcDbLine
 10
3.625408940779439
 20
-7.228963851928707
 30
0.0
 11
3.288861804472673
 21
-6.559121131896974
 31
0.0
  0
LINE
  5
277
330
1F
100
AcDbEntity
  8
0
100
AcDbLine
 10
16.29384308384584
 20
0.0777988433837907
 30
0.0
 11
15.75179367588686
 21
-0.2239744961261738
 31
0.0
  0
LINE
  5
278
330
1F
100
AcDbEntity
  8
0
100
AcDbLine
 10
4.648959928023091
 20
-8.795571327209474
 30
0.0
 11
3.625408940779439
 21
-7.228963851928707
 31
0.0
  0
LINE
  5
279
330
1F
100
AcDbEntity
  8
0
100
AcDbLine
 10
16.40266304539369
 20
4.518303871154788
 30
0.0
 11
16.89816360996889
 21
3.970623970031739
 31
0.0
  0
LINE
  5
27A
330
1F
100
AcDbEntity
  8
0
100
AcDbLine
 10
21.67866402195619
 20
-2.085030078887941
 30
0.0
 11
21.33712463902162
 21
-1.356932997703553
 31
0.0
  0
LINE
  5
27B
330
1F
100
AcDbEntity
  8
0
100
AcDbLine
 10
12.42354374455141
 20
4.666911125183107
 30
0.0
 11
13.45327358769105
 21
5.135266780853271
 31
0.0
  0
LINE
  5
27C
330
1F
100
AcDbEntity
  8
0
100
AcDbLine
 10
15.75179367588686
 20
-0.2239744961261738
 30
0.0
 11
15.06237392948793
 21
-0.4588980972766875
 31
0.0
  0
LINE
  5
27D
330
1F
100
AcDbEntity
  8
0
100
AcDbLine
 10
25.99888306187319
 20
-6.247553825378416
 30
0.0
 11
24.21503334568666
 21
-5.229753017425536
 31
0.0
  0
LINE
  5
27E
330
1F
100
AcDbEntity
  8
0
100
AcDbLine
 10
13.45327358769105
 20
5.135266780853271
 30
0.0
 11
14.26542358921693
 21
5.242105007171632
 31
0.0
  0
LINE
  5
27F
330
1F
100
AcDbEntity
  8
0
100
AcDbLine
 10
15.06237392948793
 20
-0.4588980972766875
 30
0.0
 11
14.75567417668031
 21
-0.4071013927459731
 31
0.0
  0
LINE
  5
280
330
1F
100
AcDbEntity
  8
0
100
AcDbLine
 10
24.21503334568666
 20
-5.229753017425536
 30
0.0
 11
22.60135345982241
 21
-3.581054925918582
 31
0.0
  0
LINE
  5
281
330
1F
100
AcDbEntity
  8
0
100
AcDbLine
 10
37.30013542698549
 20
6.090013980865479
 30
0.0
 11
37.17022209690736
 21
3.845736026763917
 31
0.0
  0
LINE
  5
282
330
1F
100
AcDbEntity
  8
0
100
AcDbLine
 10
22.60135345982241
 20
-3.581054925918582
 30
0.0
 11
21.67866402195619
 21
-2.085030078887941
 31
0.0
  0
LINE
  5
283
330
1F
100
AcDbEntity
  8
0
100
AcDbLine
 10
22.09897308872866
 20
-0.202987000346185
 30
0.0
 11
22.65339355992005
 21
1.093500018119812
 31
0.0
  0
LINE
  5
284
330
1F
100
AcDbEntity
  8
0
100
AcDbLine
 10
37.17022209690736
 20
3.845736026763917
 30
0.0
 11
36.76994209812807
 21
1.477620005607605
 31
0.0
  0
LINE
  5
285
330
1F
100
AcDbEntity
  8
0
100
AcDbLine
 10
12.84454422520326
 20
0.2889840900897959
 30
0.0
 11
12.41493397282289
 21
0.6982827186584477
 31
0.0
  0
LINE
  5
286
330
1F
100
AcDbEntity
  8
0
100
AcDbLine
 10
36.76994209812807
 20
1.477620005607605
 30
0.0
 11
36.15573387669253
 21
-0.9417303204536437
 31
0.0
  0
LINE
  5
287
330
1F
100
AcDbEntity
  8
0
100
AcDbLine
 10
14.90063362644838
 20
5.222623825073241
 30
0.0
 11
15.40641384648012
 21
5.088221073150632
 31
0.0
  0
LINE
  5
288
330
1F
100
AcDbEntity
  8
0
100
AcDbLine
 10
14.26542358921693
 20
5.242105007171632
 30
0.0
 11
14.90063362644838
 21
5.222623825073241
 31
0.0
  0
LINE
  5
289
330
1F
100
AcDbEntity
  8
0
100
AcDbLine
 10
7.842399888502821
 20
2.774269104003905
 30
0.0
 11
8.391793065535296
 21
2.598906993865967
 31
0.0
  0
LINE
  5
28A
330
1F
100
AcDbEntity
  8
0
100
AcDbLine
 10
11.82775383518862
 20
1.874572038650513
 30
0.0
 11
11.11619358586
 21
1.82604694366455
 31
0.0
  0
LINE
  5
28B
330
1F
100
AcDbEntity
  8
0
100
AcDbLine
 10
8.391793065535296
 20
2.598906993865967
 30
0.0
 11
9.369311147200332
 21
1.999937057495117
 31
0.0
  0
LINE
  5
28C
330
1F
100
AcDbEntity
  8
0
100
AcDbLine
 10
12.41493397282289
 20
0.6982827186584477
 30
0.0
 11
12.20443420933412
 21
0.9598355293273932
 31
0.0
  0
LINE
  5
28D
330
1F
100
AcDbEntity
  8
0
100
AcDbLine
 10
10.86626415775941
 20
1.74639403820038
 30
0.0
 11
10.85773354099916
 21
1.857633948326111
 31
0.0
  0
LINE
  5
28E
330
1F
100
AcDbEntity
  8
0
100
AcDbLine
 10
10.85773354099916
 20
1.857633948326111
 30
0.0
 11
11.13132362888979
 21
3.033185958862305
 31
0.0
  0
LINE
  5
28F
330
1F
100
AcDbEntity
  8
0
100
AcDbLine
 10
36.15573387669253
 20
-0.9417303204536437
 30
0.0
 11
35.20730476902649
 21
-3.442184925079345
 31
0.0
  0
LINE
  5
290
330
1F
100
AcDbEntity
  8
0
100
AcDbLine
 10
15.40641384648012
 20
5.088221073150632
 30
0.0
 11
15.57606392429994
 21
4.975772857666015
 31
0.0
  0
LINE
  5
291
330
1F
100
AcDbEntity
  8
0
100
AcDbLine
 10
35.20730476902649
 20
-3.442184925079345
 30
0.0
 11
34.06008415745426
 21
-5.662033081054688
 31
0.0
  0
LINE
  5
292
330
1F
100
AcDbEntity
  8
0
100
AcDbLine
 10
15.57606392429994
 20
4.975772857666015
 30
0.0
 11
15.81192379521059
 21
4.920156002044678
 31
0.0
  0
LINE
  5
293
330
1F
100
AcDbEntity
  8
0
100
AcDbLine
 10
16.81441383885073
 20
0.5626773834228525
 30
0.0
 11
16.29384308384584
 21
0.0777988433837907
 31
0.0
  0
LINE
  5
294
330
1F
100
AcDbEntity
  8
0
100
AcDbLine
 10
17.22580414341616
 20
3.330045938491821
 30
0.0
 11
17.35181313084292
 21
2.722095012664794
 31
0.0
  0
LINE
  5
295
330
1F
100
AcDbEntity
  8
0
100
AcDbLine
 10
25.65514450596499
 20
3.577531099319458
 30
0.0
 11
28.36848335789371
 21
3.831351995468141
 31
0.0
  0
LINE
  5
296
330
1F
100
AcDbEntity
  8
0
100
AcDbLine
 10
21.33712463902162
 20
-1.356932997703553
 30
0.0
 11
21.57588463352846
 21
-0.9359750747680688
 31
0.0
  0
LINE
  5
297
330
1F
100
AcDbEntity
  8
0
100
AcDbLine
 10
14.75567417668031
 20
-0.4071013927459731
 30
0.0
 11
14.2551734976642
 21
-0.4038032889366134
 31
0.0
  0
LINE
  5
298
330
1F
100
AcDbEntity
  8
0
100
AcDbLine
 10
14.2551734976642
 20
-0.4038032889366134
 30
0.0
 11
13.73725395725893
 21
-0.2024136036634442
 31
0.0
  0
LINE
  5
299
330
1F
100
AcDbEntity
  8
0
100
AcDbLine
 10
13.73725395725893
 20
-0.2024136036634442
 30
0.0
 11
13.43325405644106
 21
-0.1293465942144405
 31
0.0
  0
LINE
  5
29A
330
1F
100
AcDbEntity
  8
0
100
AcDbLine
 10
13.43325405644106
 20
-0.1293465942144405
 30
0.0
 11
12.99121361302064
 21
0.2220132052898422
 31
0.0
  0
LINE
  5
29B
330
1F
100
AcDbEntity
  8
0
100
AcDbLine
 10
12.99121361302064
 20
0.2220132052898422
 30
0.0
 11
12.84454422520326
 21
0.2889840900897959
 31
0.0
  0
LINE
  5
29C
330
1F
100
AcDbEntity
  8
0
100
AcDbLine
 10
12.20443420933412
 20
0.9598355293273932
 30
0.0
 11
11.82212429569887
 21
1.753358960151671
 31
0.0
  0
LINE
  5
29D
330
1F
100
AcDbEntity
  8
0
100
AcDbLine
 10
23.05666428135561
 20
3.919107913970945
 30
0.0
 11
25.65514450596499
 21
3.577531099319458
 31
0.0
  0
LINE
  5
29E
330
1F
100
AcDbEntity
  8
0
100
AcDbLine
 10
28.36848335789371
 20
3.831351995468141
 30
0.0
 11
31.0945346884601
 21
4.839225769042969
 31
0.0
  0
LINE
  5
29F
330
1F
100
AcDbEntity
  8
0
100
AcDbLine
 10
11.68494396732973
 20
3.984936952590943
 30
0.0
 11
12.33944397495913
 21
4.551990032196045
 31
0.0
  0
LINE
  5
2A0
330
1F
100
AcDbEntity
  8
0
100
AcDbLine
 10
11.11619358586
 20
1.82604694366455
 30
0.0
 11
10.86626415775941
 21
1.74639403820038
 31
0.0
  0
LINE
  5
2A1
330
1F
100
AcDbEntity
  8
0
100
AcDbLine
 10
21.57588463352846
 20
-0.9359750747680688
 30
0.0
 11
22.09897308872866
 21
-0.202987000346185
 31
0.0
  0
LINE
  5
2A2
330
1F
100
AcDbEntity
  8
0
100
AcDbLine
 10
5.381303124891984
 20
-5.560772895812991
 30
0.0
 11
4.885603719221821
 21
-6.824011802673343
 31
0.0
  0
LINE
  5
2A3
330
1F
100
AcDbEntity
  8
0
100
AcDbLine
 10
6.197204881178607
 20
-4.210190773010257
 30
0.0
 11
5.381303124891984
 21
-5.560772895812991
 31
0.0
  0
LINE
  5
2A4
330
1F
100
AcDbEntity
  8
0
100
AcDbLine
 10
7.339485936629047
 20
-2.961172103881839
 30
0.0
 11
6.197204881178607
 21
-4.210190773010257
 31
0.0
  0
LINE
  5
2A5
330
1F
100
AcDbEntity
  8
0
100
AcDbLine
 10
8.84086399601625
 20
-1.925994992256165
 30
0.0
 11
7.339485936629047
 21
-2.961172103881839
 31
0.0
  0
LINE
  5
2A6
330
1F
100
AcDbEntity
  8
0
100
AcDbLine
 10
10.26308422611879
 20
-1.385040044784545
 30
0.0
 11
8.84086399601625
 21
-1.925994992256165
 31
0.0
  0
LINE
  5
2A7
330
1F
100
AcDbEntity
  8
0
100
AcDbLine
 10
9.848551564680806
 20
-0.6170889735221874
 30
0.0
 11
10.26308422611879
 21
-1.385040044784545
 31
0.0
  0
LINE
  5
2A8
330
1F
100
AcDbEntity
  8
0
100
AcDbLine
 10
9.554316335188615
 20
0.2062166035175337
 30
0.0
 11
9.848551564680806
 21
-0.6170889735221874
 31
0.0
  0
LINE
  5
2A9
330
1F
100
AcDbEntity
  8
0
100
AcDbLine
 10
9.390402608381976
 20
1.094848990440369
 30
0.0
 11
9.554316335188615
 21
0.2062166035175337
 31
0.0
  0
LINE
  5
2AA
330
1F
100
AcDbEntity
  8
0
100
AcDbLine
 10
6.304061704146135
 20
9.296241760253908
 30
0.0
 11
7.259635739790666
 21
10.01193046569824
 31
0.0
  0
LINE
  5
2AB
330
1F
100
AcDbEntity
  8
0
100
AcDbLine
 10
5.780424886214005
 20
8.770895957946777
 30
0.0
 11
6.304061704146135
 21
9.296241760253908
 31
0.0
  0
LINE
  5
2AC
330
1F
100
AcDbEntity
  8
0
100
AcDbLine
 10
5.266099744307268
 20
8.335967063903805
 30
0.0
 11
5.780424886214005
 21
8.770895957946777
 31
0.0
  0
LINE
  5
2AD
330
1F
100
AcDbEntity
  8
0
100
AcDbLine
 10
4.941327863203755
 20
7.88443899154663
 30
0.0
 11
5.266099744307268
 21
8.335967063903805
 31
0.0
  0
LINE
  5
2AE
330
1F
100
AcDbEntity
  8
0
100
AcDbLine
 10
3.960176997648946
 20
6.834712982177735
 30
0.0
 11
4.941327863203755
 21
7.88443899154663
 31
0.0
  0
LINE
  5
2AF
330
1F
100
AcDbEntity
  8
0
100
AcDbLine
 10
3.021895938383807
 20
5.40424680709839
 30
0.0
 11
3.960176997648946
 21
6.834712982177735
 31
0.0
  0
LINE
  5
2B0
330
1F
100
AcDbEntity
  8
0
100
AcDbLine
 10
2.62954001949953
 20
4.387703895568844
 30
0.0
 11
3.021895938383807
 21
5.40424680709839
 31
0.0
  0
LINE
  5
2B1
330
1F
100
AcDbEntity
  8
0
100
AcDbLine
 10
2.257569842802752
 20
3.195801019668576
 30
0.0
 11
2.62954001949953
 21
4.387703895568844
 31
0.0
  0
LINE
  5
2B2
330
1F
100
AcDbEntity
  8
0
100
AcDbLine
 10
3.130452924238909
 20
3.719425916671751
 30
0.0
 11
2.257569842802752
 21
3.195801019668576
 31
0.0
  0
LINE
  5
2B3
330
1F
100
AcDbEntity
  8
0
100
AcDbLine
 10
4.6180680327289
 20
4.238943099975586
 30
0.0
 11
3.130452924238909
 21
3.719425916671751
 31
0.0
  0
LINE
  5
2B4
330
1F
100
AcDbEntity
  8
0
100
AcDbLine
 10
5.876840882765521
 20
4.404972076416012
 30
0.0
 11
4.6180680327289
 21
4.238943099975586
 31
0.0
  0
LINE
  5
2B5
330
1F
100
AcDbEntity
  8
0
100
AcDbLine
 10
7.392237954603901
 20
4.299757003784181
 30
0.0
 11
5.876840882765521
 21
4.404972076416012
 31
0.0
  0
LINE
  5
2B6
330
1F
100
AcDbEntity
  8
0
100
AcDbLine
 10
8.875137143599263
 20
3.8219211101532
 30
0.0
 11
7.392237954603901
 21
4.299757003784181
 31
0.0
  0
LINE
  5
2B7
330
1F
100
AcDbEntity
  8
0
100
AcDbLine
 10
9.654299550520646
 20
3.406460046768188
 30
0.0
 11
8.875137143599263
 21
3.8219211101532
 31
0.0
  0
LINE
  5
2B8
330
1F
100
AcDbEntity
  8
0
100
AcDbLine
 10
9.80741291569399
 20
3.893090009689331
 30
0.0
 11
9.654299550520646
 21
3.406460046768188
 31
0.0
  0
LINE
  5
2B9
330
1F
100
AcDbEntity
  8
0
100
AcDbLine
 10
10.05179386662172
 20
4.382791996002196
 30
0.0
 11
9.80741291569399
 21
3.893090009689331
 31
0.0
  0
LINE
  5
2BA
330
1F
100
AcDbEntity
  8
0
100
AcDbLine
 10
11.55350380467104
 20
5.935855865478513
 30
0.0
 11
10.05179386662172
 21
4.382791996002196
 31
0.0
  0
LINE
  5
2BB
330
1F
100
AcDbEntity
  8
0
100
AcDbLine
 10
11.39768391178774
 20
6.734377861022947
 30
0.0
 11
11.55350380467104
 21
5.935855865478513
 31
0.0
  0
LINE
  5
2BC
330
1F
100
AcDbEntity
  8
0
100
AcDbLine
 10
10.83644371555971
 20
7.874783039093016
 30
0.0
 11
11.39768391178774
 21
6.734377861022947
 31
0.0
  0
LINE
  5
2BD
330
1F
100
AcDbEntity
  8
0
100
AcDbLine
 10
10.13728409336733
 20
8.705943107604979
 30
0.0
 11
10.83644371555971
 21
7.874783039093016
 31
0.0
  0
LINE
  5
2BE
330
1F
100
AcDbEntity
  8
0
100
AcDbLine
 10
9.256942563521136
 20
9.382010459899899
 30
0.0
 11
10.13728409336733
 21
8.705943107604979
 31
0.0
  0
LINE
  5
2BF
330
1F
100
AcDbEntity
  8
0
100
AcDbLine
 10
8.925330930220351
 20
9.548626899719238
 30
0.0
 11
9.256942563521136
 21
9.382010459899899
 31
0.0
  0
LINE
  5
2C0
330
1F
100
AcDbEntity
  8
0
100
AcDbLine
 10
7.769623094069231
 20
9.931867599487303
 30
0.0
 11
8.925330930220351
 21
9.548626899719238
 31
0.0
  0
LINE
  5
2C1
330
1F
100
AcDbEntity
  8
0
100
AcDbLine
 10
7.259635739790666
 20
10.01193046569824
 30
0.0
 11
7.769623094069231
 21
9.931867599487303
 31
0.0
  0
LINE
  5
2C2
330
1F
100
AcDbEntity
  8
0
100
AcDbLine
 10
13.7443035178058
 20
11.57520008087158
 30
0.0
 11
14.9969137244098
 21
11.29557037353516
 31
0.0
  0
LINE
  5
2C3
330
1F
100
AcDbEntity
  8
0
100
AcDbLine
 10
12.91376381443667
 20
11.36785984039306
 30
0.0
 11
13.7443035178058
 21
11.57520008087158
 31
0.0
  0
LINE
  5
2C4
330
1F
100
AcDbEntity
  8
0
100
AcDbLine
 10
12.39358406590151
 20
11.55980968475342
 30
0.0
 11
12.91376381443667
 21
11.36785984039306
 31
0.0
  0
LINE
  5
2C5
330
1F
100
AcDbEntity
  8
0
100
AcDbLine
 10
12.08850365208314
 20
11.51294994354248
 30
0.0
 11
12.39358406590151
 21
11.55980968475342
 31
0.0
  0
LINE
  5
2C6
330
1F
100
AcDbEntity
  8
0
100
AcDbLine
 10
11.69183426426576
 20
11.51906013488769
 30
0.0
 11
12.08850365208314
 21
11.51294994354248
 31
0.0
  0
LINE
  5
2C7
330
1F
100
AcDbEntity
  8
0
100
AcDbLine
 10
10.4738243155353
 20
11.35848045349121
 30
0.0
 11
11.69183426426576
 21
11.51906013488769
 31
0.0
  0
LINE
  5
2C8
330
1F
100
AcDbEntity
  8
0
100
AcDbLine
 10
10.07055359409975
 20
11.26646041870117
 30
0.0
 11
10.4738243155353
 21
11.35848045349121
 31
0.0
  0
LINE
  5
2C9
330
1F
100
AcDbEntity
  8
0
100
AcDbLine
 10
9.135756307112445
 20
10.93758010864258
 30
0.0
 11
10.07055359409975
 21
11.26646041870117
 31
0.0
  0
LINE
  5
2CA
330
1F
100
AcDbEntity
  8
0
100
AcDbLine
 10
25.71071320103335
 20
-16.75571060180664
 30
0.0
 11
25.53801422642396
 21
-16.15345001220703
 31
0.0
  0
LINE
  5
2CB
330
1F
100
AcDbEntity
  8
0
100
AcDbLine
 10
25.67865448521303
 20
-14.91911029815674
 30
0.0
 11
25.82578354405092
 21
-14.65367984771728
 31
0.0
  0
LINE
  5
2CC
330
1F
100
AcDbEntity
  8
0
100
AcDbLine
 10
25.53801422642396
 20
-16.15345001220703
 30
0.0
 11
25.52708321140932
 21
-15.52702045440674
 31
0.0
  0
LINE
  5
2CD
330
1F
100
AcDbEntity
  8
0
100
AcDbLine
 10
25.52708321140932
 20
-15.52702045440674
 30
0.0
 11
25.67865448521303
 21
-14.91911029815674
 31
0.0
  0
LINE
  5
2CE
330
1F
100
AcDbEntity
  8
0
100
AcDbLine
 10
23.05666428135561
 20
3.919107913970945
 30
0.0
 11
22.97566299961732
 21
2.484592914581298
 31
0.0
  0
LINE
  5
2CF
330
1F
100
AcDbEntity
  8
0
100
AcDbLine
 10
22.97566299961732
 20
2.484592914581298
 30
0.0
 11
22.65339355992005
 21
1.093500018119812
 31
0.0
  0
LINE
  5
2D0
330
1F
100
AcDbEntity
  8
0
100
AcDbLine
 10
29.12579422520326
 20
-16.06199073791504
 30
0.0
 11
29.14041405247378
 21
-15.72294044494629
 31
0.0
  0
LINE
  5
2D1
330
1F
100
AcDbEntity
  8
0
100
AcDbLine
 10
29.33923416660952
 20
-13.86944961547851
 30
0.0
 11
29.78991394566225
 21
-14.30467987060547
 31
0.0
  0
LINE
  5
2D2
330
1F
100
AcDbEntity
  8
0
100
AcDbLine
 10
28.79125481175111
 20
-13.56571006774902
 30
0.0
 11
29.33923416660952
 21
-13.86944961547851
 31
0.0
  0
LINE
  5
2D3
330
1F
100
AcDbEntity
  8
0
100
AcDbLine
 10
28.18334465550111
 20
-13.41413974761963
 30
0.0
 11
28.79125481175111
 21
-13.56571006774902
 31
0.0
  0
LINE
  5
2D4
330
1F
100
AcDbEntity
  8
0
100
AcDbLine
 10
28.06274300144839
 20
-13.41623973846436
 30
0.0
 11
28.18334465550111
 21
-13.41413974761963
 31
0.0
  0
LINE
  5
2D5
330
1F
100
AcDbEntity
  8
0
100
AcDbLine
 10
32.82106285618472
 20
-9.50837707519531
 30
0.0
 11
30.28159409092593
 21
-11.9140100479126
 31
0.0
  0
LINE
  5
2D6
330
1F
100
AcDbEntity
  8
0
100
AcDbLine
 10
31.01662331150696
 20
-9.559403419494627
 30
0.0
 11
32.60387306736636
 21
-7.753325939178465
 31
0.0
  0
LINE
  5
2D7
330
1F
100
AcDbEntity
  8
0
100
AcDbLine
 10
29.78781395481751
 20
-10.69682025909424
 30
0.0
 11
31.01662331150696
 21
-9.559403419494627
 31
0.0
  0
LINE
  5
2D8
330
1F
100
AcDbEntity
  8
0
100
AcDbLine
 10
30.28159409092593
 20
-11.9140100479126
 30
0.0
 11
28.06274300144839
 21
-13.41623973846436
 31
0.0
  0
LINE
  5
2D9
330
1F
100
AcDbEntity
  8
0
100
AcDbLine
 10
28.19912415074038
 20
-11.90824031829834
 30
0.0
 11
29.78781395481751
 21
-10.69682025909424
 31
0.0
  0
LINE
  5
2DA
330
1F
100
AcDbEntity
  8
0
100
AcDbLine
 10
15.773664288985
 20
6.785964012145995
 30
0.0
 11
16.28059464024233
 21
8.130794525146484
 31
0.0
  0
LINE
  5
2DB
330
1F
100
AcDbEntity
  8
0
100
AcDbLine
 10
15.70576363133119
 20
6.688917160034181
 30
0.0
 11
15.773664288985
 21
6.785964012145995
 31
0.0
  0
LINE
  5
2DC
330
1F
100
AcDbEntity
  8
0
100
AcDbLine
 10
14.86152344273256
 20
6.853480815887449
 30
0.0
 11
15.70576363133119
 21
6.688917160034181
 31
0.0
  0
LINE
  5
2DD
330
1F
100
AcDbEntity
  8
0
100
AcDbLine
 10
14.20723419712709
 20
6.876301765441895
 30
0.0
 11
14.86152344273256
 21
6.853480815887449
 31
0.0
  0
LINE
  5
2DE
330
1F
100
AcDbEntity
  8
0
100
AcDbLine
 10
13.53040390537904
 20
6.751567840576173
 30
0.0
 11
14.20723419712709
 21
6.876301765441895
 31
0.0
  0
LINE
  5
2DF
330
1F
100
AcDbEntity
  8
0
100
AcDbLine
 10
13.07180386112856
 20
6.592185974121095
 30
0.0
 11
13.53040390537904
 21
6.751567840576173
 31
0.0
  0
LINE
  5
2E0
330
1F
100
AcDbEntity
  8
0
100
AcDbLine
 10
12.83551388310121
 20
6.567001819610595
 30
0.0
 11
13.07180386112856
 21
6.592185974121095
 31
0.0
  0
LINE
  5
2E1
330
1F
100
AcDbEntity
  8
0
100
AcDbLine
 10
12.75983410404848
 20
6.864843845367433
 30
0.0
 11
12.83551388310121
 21
6.567001819610595
 31
0.0
  0
LINE
  5
2E2
330
1F
100
AcDbEntity
  8
0
100
AcDbLine
 10
11.9432142310016
 20
8.639192581176756
 30
0.0
 11
12.75983410404848
 21
6.864843845367433
 31
0.0
  0
LINE
  5
2E3
330
1F
100
AcDbEntity
  8
0
100
AcDbLine
 10
30.28529434727358
 20
-15.4439697265625
 30
0.0
 11
30.29622345493959
 21
-16.07040023803711
 31
0.0
  0
LINE
  5
2E4
330
1F
100
AcDbEntity
  8
0
100
AcDbLine
 10
30.29622345493959
 20
-16.07040023803711
 30
0.0
 11
30.14465408848451
 21
-16.67831039428711
 31
0.0
  0
LINE
  5
2E5
330
1F
100
AcDbEntity
  8
0
100
AcDbLine
 10
30.14465408848451
 20
-16.67831039428711
 30
0.0
 11
29.84091454075502
 21
-17.22628021240234
 31
0.0
  0
LINE
  5
2E6
330
1F
100
AcDbEntity
  8
0
100
AcDbLine
 10
30.11260300205874
 20
-14.84171009063721
 30
0.0
 11
30.28529434727358
 21
-15.4439697265625
 31
0.0
  0
LINE
  5
2E7
330
1F
100
AcDbEntity
  8
0
100
AcDbLine
 10
29.84091454075502
 20
-17.22628021240234
 30
0.0
 11
29.40569382237124
 21
-17.67696952819824
 31
0.0
  0
LINE
  5
2E8
330
1F
100
AcDbEntity
  8
0
100
AcDbLine
 10
29.78991394566225
 20
-14.30467987060547
 30
0.0
 11
30.11260300205874
 21
-14.84171009063721
 31
0.0
  0
LINE
  5
2E9
330
1F
100
AcDbEntity
  8
0
100
AcDbLine
 10
29.40569382237124
 20
-17.67696952819824
 30
0.0
 11
28.86865311192203
 21
-17.99964904785156
 31
0.0
  0
LINE
  5
2EA
330
1F
100
AcDbEntity
  8
0
100
AcDbLine
 10
28.86865311192203
 20
-17.99964904785156
 30
0.0
 11
28.26639442967102
 21
-18.17234992980957
 31
0.0
  0
LINE
  5
2EB
330
1F
100
AcDbEntity
  8
0
100
AcDbLine
 10
28.26639442967102
 20
-18.17234992980957
 30
0.0
 11
27.63996391819643
 21
-18.18328094482422
 31
0.0
  0
LINE
  5
2EC
330
1F
100
AcDbEntity
  8
0
100
AcDbLine
 10
27.63996391819643
 20
-18.18328094482422
 30
0.0
 11
27.03205376194643
 21
-18.03170967102051
 31
0.0
  0
LINE
  5
2ED
330
1F
100
AcDbEntity
  8
0
100
AcDbLine
 10
27.03205376194643
 20
-18.03170967102051
 30
0.0
 11
26.48408394383118
 21
-17.72797012329102
 31
0.0
  0
LINE
  5
2EE
330
1F
100
AcDbEntity
  8
0
100
AcDbLine
 10
26.48408394383118
 20
-17.72797012329102
 30
0.0
 11
26.03339462803529
 21
-17.29274940490722
 31
0.0
  0
LINE
  5
2EF
330
1F
100
AcDbEntity
  8
0
100
AcDbLine
 10
26.55010300205875
 20
-12.90040016174316
 30
0.0
 11
28.19912415074038
 21
-11.90824031829834
 31
0.0
  0
LINE
  5
2F0
330
1F
100
AcDbEntity
  8
0
100
AcDbLine
 10
24.87084465550111
 20
-13.65884971618652
 30
0.0
 11
26.55010300205875
 21
-12.90040016174316
 31
0.0
  0
LINE
  5
2F1
330
1F
100
AcDbEntity
  8
0
100
AcDbLine
 10
26.03339462803529
 20
-17.29274940490722
 30
0.0
 11
25.71071320103335
 21
-16.75571060180664
 31
0.0
  0
LINE
  5
2F2
330
1F
100
AcDbEntity
  8
0
100
AcDbLine
 10
25.82578354405092
 20
-14.65367984771728
 30
0.0
 11
25.47838478611635
 21
-14.82264041900635
 31
0.0
  0
LINE
  5
2F3
330
1F
100
AcDbEntity
  8
0
100
AcDbLine
 10
25.47838478611635
 20
-14.82264041900635
 30
0.0
 11
23.99998360203432
 21
-15.38237953186035
 31
0.0
  0
LINE
  5
2F4
330
1F
100
AcDbEntity
  8
0
100
AcDbLine
 10
23.3498943381183
 20
-14.21527004241943
 30
0.0
 11
24.87084465550111
 21
-13.65884971618652
 31
0.0
  0
LINE
  5
2F5
330
1F
100
AcDbEntity
  8
0
100
AcDbLine
 10
23.99998360203432
 20
-15.38237953186035
 30
0.0
 11
21.82014351414369
 21
-16.10367965698242
 31
0.0
  0
LINE
  5
2F6
330
1F
100
AcDbEntity
  8
0
100
AcDbLine
 10
21.61400299595521
 20
-14.72579002380371
 30
0.0
 11
23.3498943381183
 21
-14.21527004241943
 31
0.0
  0
LINE
  5
2F7
330
1F
100
AcDbEntity
  8
0
100
AcDbLine
 10
21.82014351414369
 20
-16.10367965698242
 30
0.0
 11
20.26240425633119
 21
-16.43198013305664
 31
0.0
  0
LINE
  5
2F8
330
1F
100
AcDbEntity
  8
0
100
AcDbLine
 10
19.97276382969545
 20
-15.03203964233398
 30
0.0
 11
21.61400299595521
 21
-14.72579002380371
 31
0.0
  0
LINE
  5
2F9
330
1F
100
AcDbEntity
  8
0
100
AcDbLine
 10
20.26240425633119
 20
-16.43198013305664
 30
0.0
 11
19.47270470188784
 21
-16.53400039672852
 31
0.0
  0
LINE
  5
2FA
330
1F
100
AcDbEntity
  8
0
100
AcDbLine
 10
17.59451370762514
 20
-13.5557804107666
 30
0.0
 11
19.97276382969545
 21
-15.03203964233398
 31
0.0
  0
LINE
  5
2FB
330
1F
100
AcDbEntity
  8
0
100
AcDbLine
 10
19.47270470188784
 20
-16.53400039672852
 30
0.0
 11
17.62508469151186
 21
-16.63842010498047
 31
0.0
  0
LINE
  5
2FC
330
1F
100
AcDbEntity
  8
0
100
AcDbLine
 10
16.37516480015444
 20
-11.95652008056641
 30
0.0
 11
17.59451370762514
 21
-13.5557804107666
 31
0.0
  0
LINE
  5
2FD
330
1F
100
AcDbEntity
  8
0
100
AcDbLine
 10
15.59279423283266
 20
-10.41252994537353
 30
0.0
 11
16.37516480015444
 21
-11.95652008056641
 31
0.0
  0
LINE
  5
2FE
330
1F
100
AcDbEntity
  8
0
100
AcDbLine
 10
15.42610436009096
 20
-10.00782012939453
 30
0.0
 11
15.59279423283266
 21
-10.41252994537353
 31
0.0
  0
LINE
  5
2FF
330
1F
100
AcDbEntity
  8
0
100
AcDbLine
 10
15.18524437473939
 20
-8.280884742736818
 30
0.0
 11
15.42610436009096
 21
-10.00782012939453
 31
0.0
  0
LINE
  5
300
330
1F
100
AcDbEntity
  8
0
100
AcDbLine
 10
15.35945396946596
 20
-6.308522224426269
 30
0.0
 11
15.18524437473939
 21
-8.280884742736818
 31
0.0
  0
LINE
  5
301
330
1F
100
AcDbEntity
  8
0
100
AcDbLine
 10
5.931973748671286
 20
-8.50443172454834
 30
0.0
 11
5.925310903059713
 21
-8.757391929626465
 31
0.0
  0
LINE
  5
302
330
1F
100
AcDbEntity
  8
0
100
AcDbLine
 10
5.529288106428849
 20
-11.85912036895752
 30
0.0
 11
4.058122926222553
 21
-10.32903957366944
 31
0.0
  0
LINE
  5
303
330
1F
100
AcDbEntity
  8
0
100
AcDbLine
 10
4.058122926222553
 20
-10.32903957366944
 30
0.0
 11
2.793242984282244
 21
-8.622790336608885
 31
0.0
  0
LINE
  5
304
330
1F
100
AcDbEntity
  8
0
100
AcDbLine
 10
2.793242984282244
 20
-8.622790336608885
 30
0.0
 11
1.765174918638933
 21
-6.769680976867677
 31
0.0
  0
LINE
  5
305
330
1F
100
AcDbEntity
  8
0
100
AcDbLine
 10
1.540064864622824
 20
5.531521797180172
 30
0.0
 11
2.549035840498674
 21
7.380205154418943
 31
0.0
  0
LINE
  5
306
330
1F
100
AcDbEntity
  8
0
100
AcDbLine
 10
1.765174918638933
 20
-6.769680976867677
 30
0.0
 11
0.9548444084994666
 21
-4.635435104370116
 31
0.0
  0
LINE
  5
307
330
1F
100
AcDbEntity
  8
0
100
AcDbLine
 10
0.9548444084994666
 20
-4.635435104370116
 30
0.0
 11
0.4994240038268491
 21
-2.736818075180054
 31
0.0
  0
LINE
  5
308
330
1F
100
AcDbEntity
  8
0
100
AcDbLine
 10
0.8225241236560231
 20
3.552448034286498
 30
0.0
 11
1.540064864622824
 21
5.531521797180172
 31
0.0
  0
LINE
  5
309
330
1F
100
AcDbEntity
  8
0
100
AcDbLine
 10
0.4994240038268491
 20
-2.736818075180054
 30
0.0
 11
0.3003483049743075
 21
-0.6284658908843966
 31
0.0
  0
LINE
  5
30A
330
1F
100
AcDbEntity
  8
0
100
AcDbLine
 10
0.4072049193255831
 20
1.480664014816286
 30
0.0
 11
0.8225241236560231
 21
3.552448034286498
 31
0.0
  0
LINE
  5
30B
330
1F
100
AcDbEntity
  8
0
100
AcDbLine
 10
0.3003483049743075
 20
-0.6284658908843966
 30
0.0
 11
0.4072049193255831
 21
1.480664014816286
 31
0.0
  0
LINE
  5
30C
330
1F
100
AcDbEntity
  8
0
100
AcDbLine
 10
3.827292972075213
 20
9.04212379455566
 30
0.0
 11
4.233382993208638
 21
9.400960922241213
 31
0.0
  0
LINE
  5
30D
330
1F
100
AcDbEntity
  8
0
100
AcDbLine
 10
2.549035840498674
 20
7.380205154418943
 30
0.0
 11
3.827292972075213
 21
9.04212379455566
 31
0.0
  0
LINE
  5
30E
330
1F
100
AcDbEntity
  8
0
100
AcDbLine
 10
20.79473381565736
 20
5.493301868438718
 30
0.0
 11
20.55914383457826
 21
6.47426986694336
 31
0.0
  0
LINE
  5
30F
330
1F
100
AcDbEntity
  8
0
100
AcDbLine
 10
20.55914383457826
 20
6.47426986694336
 30
0.0
 11
20.43632393406557
 21
6.807508945465088
 31
0.0
  0
LINE
  5
310
330
1F
100
AcDbEntity
  8
0
100
AcDbLine
 10
20.43632393406557
 20
6.807508945465088
 30
0.0
 11
20.3360240988605
 21
6.946936130523684
 31
0.0
  0
LINE
  5
311
330
1F
100
AcDbEntity
  8
0
100
AcDbLine
 10
20.3360240988605
 20
6.946936130523684
 30
0.0
 11
20.08397369908023
 21
7.57269811630249
 31
0.0
  0
LINE
  5
312
330
1F
100
AcDbEntity
  8
0
100
AcDbLine
 10
19.22673302220034
 20
11.03112030029297
 30
0.0
 11
20.28289299534486
 21
10.11785984039307
 31
0.0
  0
LINE
  5
313
330
1F
100
AcDbEntity
  8
0
100
AcDbLine
 10
20.08397369908023
 20
7.57269811630249
 30
0.0
 11
19.37995415257143
 21
8.5686674118042
 31
0.0
  0
LINE
  5
314
330
1F
100
AcDbEntity
  8
0
100
AcDbLine
 10
19.37995415257143
 20
8.5686674118042
 30
0.0
 11
17.79541473911928
 21
10.07713031768799
 31
0.0
  0
LINE
  5
315
330
1F
100
AcDbEntity
  8
0
100
AcDbLine
 10
17.55097466038393
 20
7.37982082366943
 30
0.0
 11
17.02034454868959
 21
6.142588138580326
 31
0.0
  0
LINE
  5
316
330
1F
100
AcDbEntity
  8
0
100
AcDbLine
 10
16.28059464024233
 20
8.130794525146484
 30
0.0
 11
16.37944298313783
 21
9.464262962341309
 31
0.0
  0
LINE
  5
317
330
1F
100
AcDbEntity
  8
0
100
AcDbLine
 10
16.37944298313783
 20
9.464262962341309
 30
0.0
 11
16.02531319187807
 21
10.97391986846924
 31
0.0
  0
LINE
  5
318
330
1F
100
AcDbEntity
  8
0
100
AcDbLine
 10
16.02531319187807
 20
10.97391986846924
 30
0.0
 11
14.9969137244098
 21
11.29557037353516
 31
0.0
  0
LINE
  5
319
330
1F
100
AcDbEntity
  8
0
100
AcDbLine
 10
4.233382993208638
 20
9.400960922241213
 30
0.0
 11
2.305209928023088
 21
10.03892993927002
 31
0.0
  0
LINE
  5
31A
330
1F
100
AcDbEntity
  8
0
100
AcDbLine
 10
2.305209928023088
 20
10.03892993927002
 30
0.0
 11
0.4811754159800879
 21
10.93208980560302
 31
0.0
  0
LINE
  5
31B
330
1F
100
AcDbEntity
  8
0
100
AcDbLine
 10
0.4811754159800879
 20
10.93208980560302
 30
0.0
 11
-1.205127067101724
 21
12.06400012969971
 31
0.0
  0
LINE
  5
31C
330
1F
100
AcDbEntity
  8
0
100
AcDbLine
 10
-1.205127067101724
 20
12.06400012969971
 30
0.0
 11
-2.722639030946026
 21
13.41382026672363
 31
0.0
  0
LINE
  5
31D
330
1F
100
AcDbEntity
  8
0
100
AcDbLine
 10
-2.722639030946026
 20
13.41382026672363
 30
0.0
 11
-4.043410963547956
 21
14.95668029785156
 31
0.0
  0
LINE
  5
31E
330
1F
100
AcDbEntity
  8
0
100
AcDbLine
 10
-4.043410963547956
 20
14.95668029785156
 30
0.0
 11
-5.143116182816751
 21
16.66415977478027
 31
0.0
  0
LINE
  5
31F
330
1F
100
AcDbEntity
  8
0
100
AcDbLine
 10
-5.143116182816751
 20
16.66415977478027
 30
0.0
 11
-6.001501268876323
 21
18.50481986999511
 31
0.0
  0
LINE
  5
320
330
1F
100
AcDbEntity
  8
0
100
AcDbLine
 10
-6.001501268876323
 20
18.50481986999511
 30
0.0
 11
-6.602755255234968
 21
20.44474983215332
 31
0.0
  0
LINE
  5
321
330
1F
100
AcDbEntity
  8
0
100
AcDbLine
 10
23.15034370945619
 20
19.62471961975097
 30
0.0
 11
23.29051476048158
 21
22.06778907775879
 31
0.0
  0
LINE
  5
322
330
1F
100
AcDbEntity
  8
0
100
AcDbLine
 10
20.90595322178529
 20
30.69302940368652
 30
0.0
 11
24.10301476048158
 21
29.222900390625
 31
0.0
  0
LINE
  5
323
330
1F
100
AcDbEntity
  8
0
100
AcDbLine
 10
17.56006317661928
 20
31.77676010131834
 30
0.0
 11
20.90595322178529
 21
30.69302940368652
 31
0.0
  0
LINE
  5
324
330
1F
100
AcDbEntity
  8
0
100
AcDbLine
 10
14.10778408573793
 20
32.46453094482423
 30
0.0
 11
17.56006317661928
 21
31.77676010131834
 31
0.0
  0
LINE
  5
325
330
1F
100
AcDbEntity
  8
0
100
AcDbLine
 10
10.6011436514728
 20
32.75207901000975
 30
0.0
 11
14.10778408573793
 21
32.46453094482423
 31
0.0
  0
LINE
  5
326
330
1F
100
AcDbEntity
  8
0
100
AcDbLine
 10
7.080101781355607
 20
32.63994979858399
 30
0.0
 11
10.6011436514728
 21
32.75207901000975
 31
0.0
  0
LINE
  5
327
330
1F
100
AcDbEntity
  8
0
100
AcDbLine
 10
3.594993882643452
 20
32.13293838500975
 30
0.0
 11
7.080101781355607
 21
32.63994979858399
 31
0.0
  0
LINE
  5
328
330
1F
100
AcDbEntity
  8
0
100
AcDbLine
 10
0.1787572138182982
 20
31.25617027282713
 30
0.0
 11
3.594993882643452
 21
32.13293838500975
 31
0.0
  0
LINE
  5
329
330
1F
100
AcDbEntity
  8
0
100
AcDbLine
 10
-3.114903158677353
 20
30.04713058471679
 30
0.0
 11
0.1787572138182982
 21
31.25617027282713
 31
0.0
  0
LINE
  5
32A
330
1F
100
AcDbEntity
  8
0
100
AcDbLine
 10
-6.289671129716166
 20
28.46916961669922
 30
0.0
 11
-3.114903158677353
 21
30.04713058471679
 31
0.0
  0
LINE
  5
32B
330
1F
100
AcDbEntity
  8
0
100
AcDbLine
 10
-6.602755255234968
 20
20.44474983215332
 30
0.0
 11
-6.935804075730571
 21
22.44823074340821
 31
0.0
  0
LINE
  5
32C
330
1F
100
AcDbEntity
  8
0
100
AcDbLine
 10
-6.935804075730571
 20
22.44823074340821
 30
0.0
 11
-6.994516081345808
 21
24.47834968566894
 31
0.0
  0
LINE
  5
32D
330
1F
100
AcDbEntity
  8
0
100
AcDbLine
 10
-6.994516081345808
 20
24.47834968566894
 30
0.0
 11
-6.777806944382917
 21
26.49773025512695
 31
0.0
  0
LINE
  5
32E
330
1F
100
AcDbEntity
  8
0
100
AcDbLine
 10
-6.777806944382917
 20
26.49773025512695
 30
0.0
 11
-6.289671129716166
 21
28.46916961669922
 31
0.0
  0
LINE
  5
32F
330
1F
100
AcDbEntity
  8
0
100
AcDbLine
 10
11.22444420384096
 20
9.552557945251467
 30
0.0
 11
11.9432142310016
 21
8.639192581176756
 31
0.0
  0
LINE
  5
330
330
1F
100
AcDbEntity
  8
0
100
AcDbLine
 10
10.46106415318178
 20
10.20860004425049
 30
0.0
 11
11.22444420384096
 21
9.552557945251467
 31
0.0
  0
LINE
  5
331
330
1F
100
AcDbEntity
  8
0
100
AcDbLine
 10
9.426285558211076
 20
10.82174968719482
 30
0.0
 11
10.46106415318178
 21
10.20860004425049
 31
0.0
  0
LINE
  5
332
330
1F
100
AcDbEntity
  8
0
100
AcDbLine
 10
9.135756307112445
 20
10.93758010864258
 30
0.0
 11
9.426285558211076
 21
10.82174968719482
 31
0.0
  0
LINE
  5
333
330
1F
100
AcDbEntity
  8
0
100
AcDbLine
 10
17.62508469151186
 20
-16.63842010498047
 30
0.0
 11
16.04559402989077
 21
-16.56043052673339
 31
0.0
  0
LINE
  5
334
330
1F
100
AcDbEntity
  8
0
100
AcDbLine
 10
16.04559402989077
 20
-16.56043052673339
 30
0.0
 11
14.484113507735
 21
-16.31019973754882
 31
0.0
  0
LINE
  5
335
330
1F
100
AcDbEntity
  8
0
100
AcDbLine
 10
14.484113507735
 20
-16.31019973754882
 30
0.0
 11
13.97086411045717
 21
-16.18898010253906
 31
0.0
  0
LINE
  5
336
330
1F
100
AcDbEntity
  8
0
100
AcDbLine
 10
13.97086411045717
 20
-16.18898010253906
 30
0.0
 11
10.92452412174867
 21
-15.21033954620361
 31
0.0
  0
LINE
  5
337
330
1F
100
AcDbEntity
  8
0
100
AcDbLine
 10
10.92452412174867
 20
-15.21033954620361
 30
0.0
 11
8.992293172346816
 21
-14.31377983093262
 31
0.0
  0
LINE
  5
338
330
1F
100
AcDbEntity
  8
0
100
AcDbLine
 10
8.992293172346816
 20
-14.31377983093262
 30
0.0
 11
7.185092740523089
 21
-13.19443988800049
 31
0.0
  0
LINE
  5
339
330
1F
100
AcDbEntity
  8
0
100
AcDbLine
 10
7.185092740523089
 20
-13.19443988800049
 30
0.0
 11
5.529288106428849
 21
-11.85912036895752
 31
0.0
  0
LINE
  5
33A
330
1F
100
AcDbEntity
  8
0
100
AcDbLine
 10
17.79541473911928
 20
10.07713031768799
 30
0.0
 11
17.81039314793275
 21
8.669781684875488
 31
0.0
  0
LINE
  5
33B
330
1F
100
AcDbEntity
  8
0
100
AcDbLine
 10
17.81039314793275
 20
8.669781684875488
 30
0.0
 11
17.55097466038393
 21
7.37982082366943
 31
0.0
  0
LINE
  5
33C
330
1F
100
AcDbEntity
  8
0
100
AcDbLine
 10
17.02034454868959
 20
6.142588138580326
 30
0.0
 11
18.02722435520815
 21
5.383397102355956
 31
0.0
  0
LINE
  5
33D
330
1F
100
AcDbEntity
  8
0
100
AcDbLine
 10
18.06907349156068
 20
5.32146692276001
 30
0.0
 11
18.02722435520815
 21
5.383397102355956
 31
0.0
  0
LINE
  5
33E
330
1F
100
AcDbEntity
  8
0
100
AcDbLine
 10
18.02722435520815
 20
5.383397102355956
 30
0.0
 11
18.08382301853822
 21
5.365614891052243
 31
0.0
  0
LINE
  5
33F
330
1F
100
AcDbEntity
  8
0
100
AcDbLine
 10
18.08382301853822
 20
5.365614891052243
 30
0.0
 11
18.06907349156068
 21
5.32146692276001
 31
0.0
  0
LINE
  5
340
330
1F
100
AcDbEntity
  8
0
100
AcDbLine
 10
17.35606461094546
 20
1.667521953582763
 30
0.0
 11
17.38204460667299
 21
1.904901981353757
 31
0.0
  0
LINE
  5
341
330
1F
100
AcDbEntity
  8
0
100
AcDbLine
 10
17.14073448704409
 20
-3.944952011108398
 30
0.0
 11
16.23686485813784
 21
-4.056975841522217
 31
0.0
  0
LINE
  5
342
330
1F
100
AcDbEntity
  8
0
100
AcDbLine
 10
17.11612396763491
 20
1.089130043983462
 30
0.0
 11
17.35606461094546
 21
1.667521953582763
 31
0.0
  0
LINE
  5
343
330
1F
100
AcDbEntity
  8
0
100
AcDbLine
 10
16.23686485813784
 20
-4.056975841522217
 30
0.0
 11
15.62446384953188
 21
-5.463579177856444
 31
0.0
  0
LINE
  5
344
330
1F
100
AcDbEntity
  8
0
100
AcDbLine
 10
15.62446384953188
 20
-5.463579177856444
 30
0.0
 11
15.35945396946596
 21
-6.308522224426269
 31
0.0
  0
LINE
  5
345
330
1F
100
AcDbEntity
  8
0
100
AcDbLine
 10
36.59768562840151
 20
-3.638741970062256
 30
0.0
 11
34.93876534031558
 21
-6.726331233978274
 31
0.0
  0
LINE
  5
346
330
1F
100
AcDbEntity
  8
0
100
AcDbLine
 10
34.93876534031558
 20
-6.726331233978274
 30
0.0
 11
32.82106285618472
 21
-9.50837707519531
 31
0.0
  0
LINE
  5
347
330
1F
100
AcDbEntity
  8
0
100
AcDbLine
 10
32.60387306736636
 20
-7.753325939178465
 30
0.0
 11
31.66105347202944
 21
-7.979695796966551
 31
0.0
  0
LINE
  5
348
330
1F
100
AcDbEntity
  8
0
100
AcDbLine
 10
31.66105347202944
 20
-7.979695796966551
 30
0.0
 11
30.04414444492983
 21
-8.234171867370605
 31
0.0
  0
LINE
  5
349
330
1F
100
AcDbEntity
  8
0
100
AcDbLine
 10
30.04414444492983
 20
-8.234171867370605
 30
0.0
 11
27.98087387608216
 21
-8.14053916931152
 31
0.0
  0
LINE
  5
34A
330
1F
100
AcDbEntity
  8
0
100
AcDbLine
 10
27.98087387608216
 20
-8.14053916931152
 30
0.0
 11
27.44855385349916
 21
-8.05325508117676
 31
0.0
  0
LINE
  5
34B
330
1F
100
AcDbEntity
  8
0
100
AcDbLine
 10
27.44855385349916
 20
-8.05325508117676
 30
0.0
 11
25.578182988631
 21
-7.409430980682375
 31
0.0
  0
LINE
  5
34C
330
1F
100
AcDbEntity
  8
0
100
AcDbLine
 10
25.578182988631
 20
-7.409430980682375
 30
0.0
 11
23.35189323948549
 21
-6.121678829193113
 31
0.0
  0
LINE
  5
34D
330
1F
100
AcDbEntity
  8
0
100
AcDbLine
 10
23.35189323948549
 20
-6.121678829193113
 30
0.0
 11
21.65537338780092
 21
-4.452555179595946
 31
0.0
  0
LINE
  5
34E
330
1F
100
AcDbEntity
  8
0
100
AcDbLine
 10
20.90734367893862
 20
-3.333268880844111
 30
0.0
 11
20.36581306980776
 21
-2.360279083251951
 31
0.0
  0
LINE
  5
34F
330
1F
100
AcDbEntity
  8
0
100
AcDbLine
 10
20.36581306980776
 20
-2.360279083251951
 30
0.0
 11
19.51758461521792
 21
-2.977130889892575
 31
0.0
  0
LINE
  5
350
330
1F
100
AcDbEntity
  8
0
100
AcDbLine
 10
19.51758461521792
 20
-2.977130889892575
 30
0.0
 11
18.98192482517884
 21
-3.301574945449827
 31
0.0
  0
LINE
  5
351
330
1F
100
AcDbEntity
  8
0
100
AcDbLine
 10
18.98192482517884
 20
-3.301574945449827
 30
0.0
 11
18.06661301182436
 21
-3.694538116455075
 31
0.0
  0
LINE
  5
352
330
1F
100
AcDbEntity
  8
0
100
AcDbLine
 10
19.49767380283998
 20
4.438323020935061
 30
0.0
 11
20.48398476170228
 21
5.12407684326172
 31
0.0
  0
LINE
  5
353
330
1F
100
AcDbEntity
  8
0
100
AcDbLine
 10
19.05324440525697
 20
4.278868198394773
 30
0.0
 11
19.49767380283998
 21
4.438323020935061
 31
0.0
  0
LINE
  5
354
330
1F
100
AcDbEntity
  8
0
100
AcDbLine
 10
18.77188377903627
 20
4.644372940063478
 30
0.0
 11
19.05324440525697
 21
4.278868198394773
 31
0.0
  0
LINE
  5
355
330
1F
100
AcDbEntity
  8
0
100
AcDbLine
 10
18.06661301182436
 20
-3.694538116455075
 30
0.0
 11
17.14073448704409
 21
-3.944952011108398
 31
0.0
  0
LINE
  5
356
330
1F
100
AcDbEntity
  8
0
100
AcDbLine
 10
18.06907349156068
 20
5.32146692276001
 30
0.0
 11
18.77188377903627
 21
4.644372940063478
 31
0.0
  0
LINE
  5
357
330
1F
100
AcDbEntity
  8
0
100
AcDbLine
 10
38.58140450047183
 20
6.611361980438232
 30
0.0
 11
38.42857246922182
 21
3.108578920364383
 31
0.0
  0
LINE
  5
358
330
1F
100
AcDbEntity
  8
0
100
AcDbLine
 10
38.42857246922182
 20
3.108578920364383
 30
0.0
 11
37.76682549046207
 21
-0.3370304107665991
 31
0.0
  0
LINE
  5
359
330
1F
100
AcDbEntity
  8
0
100
AcDbLine
 10
38.23161202000308
 20
10.10521984100342
 30
0.0
 11
38.58140450047183
 21
6.611361980438232
 31
0.0
  0
LINE
  5
35A
330
1F
100
AcDbEntity
  8
0
100
AcDbLine
 10
37.76682549046207
 20
-0.3370304107665991
 30
0.0
 11
36.59768562840151
 21
-3.638741970062256
 31
0.0
  0
LINE
  5
35B
330
1F
100
AcDbEntity
  8
0
100
AcDbLine
 10
37.30013542698549
 20
6.090013980865479
 30
0.0
 11
37.10024529026674
 21
8.70480155944824
 31
0.0
  0
LINE
  5
35C
330
1F
100
AcDbEntity
  8
0
100
AcDbLine
 10
37.39677315281558
 20
13.51301002502441
 30
0.0
 11
38.23161202000308
 21
10.10521984100342
 31
0.0
  0
LINE
  5
35D
330
1F
100
AcDbEntity
  8
0
100
AcDbLine
 10
36.10574226902649
 20
16.78071022033691
 30
0.0
 11
37.39677315281558
 21
13.51301002502441
 31
0.0
  0
LINE
  5
35E
330
1F
100
AcDbEntity
  8
0
100
AcDbLine
 10
34.39117317722962
 20
19.84449958801269
 30
0.0
 11
36.10574226902649
 21
16.78071022033691
 31
0.0
  0
LINE
  5
35F
330
1F
100
AcDbEntity
  8
0
100
AcDbLine
 10
32.287562184798
 20
22.6607894897461
 30
0.0
 11
34.39117317722962
 21
19.84449958801269
 31
0.0
  0
LINE
  5
360
330
1F
100
AcDbEntity
  8
0
100
AcDbLine
 10
29.84354477451968
 20
25.18446922302246
 30
0.0
 11
32.287562184798
 21
22.6607894897461
 31
0.0
  0
LINE
  5
361
330
1F
100
AcDbEntity
  8
0
100
AcDbLine
 10
27.09783440159486
 20
27.38253974914551
 30
0.0
 11
29.84354477451968
 21
25.18446922302246
 31
0.0
  0
LINE
  5
362
330
1F
100
AcDbEntity
  8
0
100
AcDbLine
 10
24.10301476048158
 20
29.222900390625
 30
0.0
 11
27.09783440159486
 21
27.38253974914551
 31
0.0
  0
LINE
  5
363
330
1F
100
AcDbEntity
  8
0
100
AcDbLine
 10
20.48398476170228
 20
5.12407684326172
 30
0.0
 11
20.79473381565736
 21
5.493301868438718
 31
0.0
  0
LINE
  5
364
330
1F
100
AcDbEntity
  8
0
100
AcDbLine
 10
-15.55185622645689
 20
-7.323051929473879
 30
0.0
 11
-15.60832614375425
 21
-7.427162170410156
 31
0.0
  0
LINE
  5
365
330
1F
100
AcDbEntity
  8
0
100
AcDbLine
 10
-12.25190562678648
 20
-1.9795800447464
 30
0.0
 11
-12.24377650691343
 21
-2.100651979446409
 31
0.0
  0
LINE
  5
366
330
1F
100
AcDbEntity
  8
0
100
AcDbLine
 10
-1.062685079110395
 20
1.536245942115785
 30
0.0
 11
-0.9412303037769871
 21
-0.416432589292528
 31
0.0
  0
LINE
  5
367
330
1F
100
AcDbEntity
  8
0
100
AcDbLine
 10
-17.63638610316588
 20
-3.568068027496335
 30
0.0
 11
-17.75892562342955
 21
-2.759548902511596
 31
0.0
  0
LINE
  5
368
330
1F
100
AcDbEntity
  8
0
100
AcDbLine
 10
11.82212429569887
 20
1.753358960151671
 30
0.0
 11
11.82775383518862
 21
1.874572038650513
 31
0.0
  0
LINE
  5
369
330
1F
100
AcDbEntity
  8
0
100
AcDbLine
 10
17.35181313084292
 20
2.722095012664794
 30
0.0
 11
17.38204460667299
 21
1.904901981353757
 31
0.0
  0
LINE
  5
36A
330
1F
100
AcDbEntity
  8
0
100
AcDbLine
 10
4.648959928023091
 20
-8.795571327209474
 30
0.0
 11
4.885603719221821
 21
-6.824011802673343
 31
0.0
  0
LINE
  5
36B
330
1F
100
AcDbEntity
  8
0
100
AcDbLine
 10
-11.59271640254331
 20
-8.834856986999508
 30
0.0
 11
-12.60494632197691
 21
-7.164359092712403
 31
0.0
  0
LINE
  5
36C
330
1F
100
AcDbEntity
  8
0
100
AcDbLine
 10
21.65537338780092
 20
-4.452555179595946
 30
0.0
 11
20.90734367893862
 21
-3.333268880844111
 31
0.0
  0
LINE
  5
36D
330
1F
100
AcDbEntity
  8
0
100
AcDbLine
 10
-32.03273505641295
 20
-21.17551040649414
 30
0.0
 11
-33.52013511134459
 21
-19.04124069213867
 31
0.0
  0
LINE
  5
36E
330
1F
100
AcDbEntity
  8
0
100
AcDbLine
 10
-20.29054564906431
 20
-13.98013019561768
 30
0.0
 11
-21.66324538661314
 21
-16.35683059692383
 31
0.0
  0
LINE
  5
36F
330
1F
100
AcDbEntity
  8
0
100
AcDbLine
 10
-17.75998610926939
 20
-2.520755052566529
 30
0.0
 11
-17.58706588221861
 21
-1.918918967247009
 31
0.0
  0
LINE
  5
370
330
1F
100
AcDbEntity
  8
0
100
AcDbLine
 10
-11.28190631343199
 20
-1.974012017250061
 30
0.0
 11
-11.39305610133482
 21
-3.057116985321045
 31
0.0
  0
LINE
  5
371
330
1F
100
AcDbEntity
  8
0
100
AcDbLine
 10
-6.316772169602642
 20
8.392340660095211
 30
0.0
 11
-6.309210009110698
 21
7.412099838256839
 31
0.0
  0
LINE
  5
372
330
1F
100
AcDbEntity
  8
0
100
AcDbLine
 10
9.390402608381976
 20
1.094848990440369
 30
0.0
 11
9.369311147200332
 21
1.999937057495117
 31
0.0
  0
ENDSEC
  0
SECTION
  2
OBJECTS
  0
DICTIONARY
  5
C
330
0
100
AcDbDictionary
  3
ACAD_GROUP
350
D
  3
ACAD_LAYOUT
350
1A
  3
ACAD_MATERIAL
350
43
  3
ACAD_MLEADERSTYLE
350
395
  3
ACAD_MLINESTYLE
350
17
  3
ACAD_PLOTSETTINGS
350
19
  3
ACAD_SCALELIST
350
47
  3
ACAD_VISUALSTYLE
350
2A
  3
ACDBHEADERROUNDTRIPXREC
350
373
  3
ACDBVARIABLEDICTIONARY
350
393
  0
DICTIONARY
  5
39A
330
8
100
AcDbDictionary
280
     1
  3
ACAD_XREC_ROUNDTRIP
360
39B
  0
DICTIONARY
  5
D
102
{ACAD_REACTORS
330
C
102
}
330
C
100
AcDbDictionary
  0
DICTIONARY
  5
1A
102
{ACAD_REACTORS
330
C
102
}
330
C
100
AcDbDictionary
  0
DICTIONARY
  5
43
102
{ACAD_REACTORS
330
C
102
}
330
C
100
AcDbDictionary
  3
BYBLOCK
350
45
  3
BYLAYER
350
44
  3
GLOBAL
350
46
  0
DICTIONARY
  5
395
102
{ACAD_REACTORS
330
C
102
}
330
C
100
AcDbDictionary
  0
DICTIONARY
  5
17
102
{ACAD_REACTORS
330
C
102
}
330
C
100
AcDbDictionary
  3
STANDARD
350
18
  0
DICTIONARY
  5
19
102
{ACAD_REACTORS
330
C
102
}
330
C
100
AcDbDictionary
  0
DICTIONARY
  5
47
102
{ACAD_REACTORS
330
C
102
}
330
C
100
AcDbDictionary
  3
A0
350
48
  3
A1
350
49
  3
A2
350
4A
  3
A3
350
4B
  3
A4
350
4C
  3
A5
350
4D
  3
A6
350
4E
  3
A7
350
4F
  3
A8
350
50
  3
A9
350
51
  3
B0
350
52
  3
B1
350
53
  3
B2
350
54
  3
B3
350
55
  3
B4
350
56
  3
B5
350
57
  3
B6
350
58
  3
B7
350
59
  3
B8
350
5A
  3
B9
350
5B
  3
C0
350
5C
  3
C1
350
5D
  3
C2
350
5E
  3
C3
350
5F
  3
C4
350
60
  3
C5
350
61
  3
C6
350
62
  3
C7
350
63
  3
C8
350
64
  3
C9
350
65
  3
D0
350
66
  3
D1
350
67
  3
D2
350
68
  0
DICTIONARY
  5
2A
102
{ACAD_REACTORS
330
C
102
}
330
C
100
AcDbDictionary
  3
2DWIREFRAME
350
2F
  3
BASIC
350
32
  3
BRIGHTEN
350
36
  3
COLORCHANGE
350
3A
  3
CONCEPTUAL
350
34
  3
DIM
350
35
  3
EDGECOLOROFF
350
3D
  3
FACEPATTERN
350
39
  3
FLAT
350
2B
  3
FLATWITHEDGES
350
2C
  3
GOURAUD
350
2D
  3
GOURAUDWITHEDGES
350
2E
  3
HIDDEN
350
31
  3
JITTEROFF
350
3B
  3
LINEPATTERN
350
38
  3
OVERHANGOFF
350
3C
  3
REALISTIC
350
33
  3
SHADED
350
42
  3
SHADED_WITH_EDGES
350
41
  3
SHADES_OF_GRAY
350
3E
  3
SKETCHY
350
3F
  3
THICKEN
350
37
  3
WIREFRAME
350
30
  3
X-RAY
350
40
  0
DICTIONARY
  5
373
102
{ACAD_REACTORS
330
C
102
}
330
C
100
AcDbDictionary
  3
CEPSNTYPE
350
37C
  3
DIMSTYLEDATA
350
392
  3
FINGERPRINTGUID
350
37D
  3
HYPERLINKBASE
350
376
  3
INSUNITS
350
37B
  3
LAYOUTDICT
350
378
  3
LWETCUNION
350
37A
  3
PLOTSETDICT
350
379
  3
PSVPSCALE
350
37F
  3
PUCSBASE
350
382
  3
PUCSORGBACK
350
388
  3
PUCSORGBOTTOM
350
384
  3
PUCSORGFRONT
350
387
  3
PUCSORGLEFT
350
385
  3
PUCSORGRIGHT
350
386
  3
PUCSORGTOP
350
383
  3
PUCSORTHOREF
350
380
  3
PUCSORTHOVIEW
350
381
  3
STYLESHEET
350
377
  3
TSTACKALIGN
350
374
  3
TSTACKSIZE
350
375
  3
UCSBASE
350
38B
  3
UCSORGBACK
350
391
  3
UCSORGBOTTOM
350
38D
  3
UCSORGFRONT
350
390
  3
UCSORGLEFT
350
38E
  3
UCSORGRIGHT
350
38F
  3
UCSORGTOP
350
38C
  3
UCSORTHOREF
350
389
  3
UCSORTHOVIEW
350
38A
  3
VERSIONGUID
350
37E
  0
DICTIONARY
  5
393
102
{ACAD_REACTORS
330
C
102
}
330
C
100
AcDbDictionary
  3
CANNOSCALE
350
39C
  3
DIMASSOC
350
398
  3
HIDETEXT
350
399
  3
MSLTSCALE
350
39D
  0
XRECORD
  5
39B
102
{ACAD_REACTORS
330
39A
102
}
330
39A
100
AcDbXrecord
102
VTR_0.000_0.000_1.000_1.000_GRIDDISPLAY
 70
     3
102
VTR_0.000_0.000_1.000_1.000_GRIDMAJOR
 70
     5
102
VTR_0.000_0.000_1.000_1.000_DEFAULTLIGHTING
280
     1
102
VTR_0.000_0.000_1.000_1.000_DEFAULTLIGHTINGTYPE
 70
     1
102
VTR_0.000_0.000_1.000_1.000_BRIGHTNESS
141
0.0
102
VTR_0.000_0.000_1.000_1.000_CONTRAST
142
0.0
  0
MATERIAL
  5
45
102
{ACAD_REACTORS
330
43
102
}
102
{ACAD_XDICTIONARY
360
3A0
102
}
330
43
100
AcDbMaterial
  1
BYBLOCK
  0
MATERIAL
  5
44
102
{ACAD_REACTORS
330
43
102
}
102
{ACAD_XDICTIONARY
360
39E
102
}
330
43
100
AcDbMaterial
  1
BYLAYER
  0
MATERIAL
  5
46
102
{ACAD_REACTORS
330
43
102
}
102
{ACAD_XDICTIONARY
360
3A2
102
}
330
43
100
AcDbMaterial
  1
GLOBAL
  0
MLINESTYLE
  5
18
102
{ACAD_REACTORS
330
17
102
}
330
17
100
AcDbMlineStyle
  2
Standard
 70
     0
  3

 62
   256
 51
90.0
 52
90.0
 71
     2
 49
0.5
 62
   256
  6
BYLAYER
 49
-0.5
 62
   256
  6
BYLAYER
  0
ACAD_PROXY_OBJECT
  5
48
102
{ACAD_REACTORS
330
47
102
}
330
47
100
AcDbProxyObject
 90
      499
 91
      503
 93
       41
310
903313A31580
  0
ACAD_PROXY_OBJECT
  5
49
102
{ACAD_REACTORS
330
47
102
}
330
47
100
AcDbProxyObject
 90
      499
 91
      503
 93
      105
310
903313A324000000000000004000
  0
ACAD_PROXY_OBJECT
  5
4A
102
{ACAD_REACTORS
330
47
102
}
330
47
100
AcDbProxyObject
 90
      499
 91
      503
 93
      105
310
903313A344000000000000104000
  0
ACAD_PROXY_OBJECT
  5
4B
102
{ACAD_REACTORS
330
47
102
}
330
47
100
AcDbProxyObject
 90
      499
 91
      503
 93
      105
310
903313A354000000000000144000
  0
ACAD_PROXY_OBJECT
  5
4C
102
{ACAD_REACTORS
330
47
102
}
330
47
100
AcDbProxyObject
 90
      499
 91
      503
 93
      105
310
903313A384000000000000204000
  0
ACAD_PROXY_OBJECT
  5
4D
102
{ACAD_REACTORS
330
47
102
}
330
47
100
AcDbProxyObject
 90
      499
 91
      503
 93
      113
310
904313A31304000000000000244000
  0
ACAD_PROXY_OBJECT
  5
4E
102
{ACAD_REACTORS
330
47
102
}
330
47
100
AcDbProxyObject
 90
      499
 91
      503
 93
      113
310
904313A31364000000000000304000
  0
ACAD_PROXY_OBJECT
  5
4F
102
{ACAD_REACTORS
330
47
102
}
330
47
100
AcDbProxyObject
 90
      499
 91
      503
 93
      113
310
904313A32304000000000000344000
  0
ACAD_PROXY_OBJECT
  5
50
102
{ACAD_REACTORS
330
47
102
}
330
47
100
AcDbProxyObject
 90
      499
 91
      503
 93
      113
310
904313A333040000000000003E4000
  0
ACAD_PROXY_OBJECT
  5
51
102
{ACAD_REACTORS
330
47
102
}
330
47
100
AcDbProxyObject
 90
      499
 91
      503
 93
      113
310
904313A34304000000000000444000
  0
ACAD_PROXY_OBJECT
  5
52
102
{ACAD_REACTORS
330
47
102
}
330
47
100
AcDbProxyObject
 90
      499
 91
      503
 93
      113
310
904313A35304000000000000494000
  0
ACAD_PROXY_OBJECT
  5
53
102
{ACAD_REACTORS
330
47
102
}
330
47
100
AcDbProxyObject
 90
      499
 91
      503
 93
      121
310
905313A3130304000000000000594000
  0
ACAD_PROXY_OBJECT
  5
54
102
{ACAD_REACTORS
330
47
102
}
330
47
100
AcDbProxyObject
 90
      499
 91
      503
 93
      105
310
903323A310000000000000010100
  0
ACAD_PROXY_OBJECT
  5
55
102
{ACAD_REACTORS
330
47
102
}
330
47
100
AcDbProxyObject
 90
      499
 91
      503
 93
      105
310
903343A310000000000000410100
  0
ACAD_PROXY_OBJECT
  5
56
102
{ACAD_REACTORS
330
47
102
}
330
47
100
AcDbProxyObject
 90
      499
 91
      503
 93
      105
310
903383A310000000000000810100
  0
ACAD_PROXY_OBJECT
  5
57
102
{ACAD_REACTORS
330
47
102
}
330
47
100
AcDbProxyObject
 90
      499
 91
      503
 93
      113
310
90431303A310000000000000910100
  0
ACAD_PROXY_OBJECT
  5
58
102
{ACAD_REACTORS
330
47
102
}
330
47
100
AcDbProxyObject
 90
      499
 91
      503
 93
      121
310
9053130303A310000000000001650100
  0
ACAD_PROXY_OBJECT
  5
59
102
{ACAD_REACTORS
330
47
102
}
330
47
100
AcDbProxyObject
 90
      499
 91
      503
 93
      257
310
90E312F31323822203D2031272D3022000000000000200FC000000000000284000
  0
ACAD_PROXY_OBJECT
  5
5A
102
{ACAD_REACTORS
330
47
102
}
330
47
100
AcDbProxyObject
 90
      499
 91
      503
 93
      249
310
90D312F363422203D2031272D3022000000000000240FC000000000000284000
  0
ACAD_PROXY_OBJECT
  5
5B
102
{ACAD_REACTORS
330
47
102
}
330
47
100
AcDbProxyObject
 90
      499
 91
      503
 93
      249
310
90D312F333222203D2031272D3022000000000000280FC000000000000284000
  0
ACAD_PROXY_OBJECT
  5
5C
102
{ACAD_REACTORS
330
47
102
}
330
47
100
AcDbProxyObject
 90
      499
 91
      503
 93
      249
310
90D312F313622203D2031272D30220000000000002C0FC000000000000284000
  0
ACAD_PROXY_OBJECT
  5
5D
102
{ACAD_REACTORS
330
47
102
}
330
47
100
AcDbProxyObject
 90
      499
 91
      503
 93
      249
310
90D332F333222203D2031272D30220000000000002E0FC000000000000284000
  0
ACAD_PROXY_OBJECT
  5
5E
102
{ACAD_REACTORS
330
47
102
}
330
47
100
AcDbProxyObject
 90
      499
 91
      503
 93
      241
310
90C312F3822203D2031272D3022000000000000300FC000000000000284000
  0
ACAD_PROXY_OBJECT
  5
5F
102
{ACAD_REACTORS
330
47
102
}
330
47
100
AcDbProxyObject
 90
      499
 91
      503
 93
      249
310
90D332F313622203D2031272D3022000000000000320FC000000000000284000
  0
ACAD_PROXY_OBJECT
  5
60
102
{ACAD_REACTORS
330
47
102
}
330
47
100
AcDbProxyObject
 90
      499
 91
      503
 93
      241
310
90C312F3422203D2031272D3022000000000000340FC000000000000284000
  0
ACAD_PROXY_OBJECT
  5
61
102
{ACAD_REACTORS
330
47
102
}
330
47
100
AcDbProxyObject
 90
      499
 91
      503
 93
      241
310
90C332F3822203D2031272D3022000000000000360FC000000000000284000
  0
ACAD_PROXY_OBJECT
  5
62
102
{ACAD_REACTORS
330
47
102
}
330
47
100
AcDbProxyObject
 90
      499
 91
      503
 93
      241
310
90C312F3222203D2031272D3022000000000000380FC000000000000284000
  0
ACAD_PROXY_OBJECT
  5
63
102
{ACAD_REACTORS
330
47
102
}
330
47
100
AcDbProxyObject
 90
      499
 91
      503
 93
      241
310
90C332F3422203D2031272D30220000000000003A0FC000000000000284000
  0
ACAD_PROXY_OBJECT
  5
64
102
{ACAD_REACTORS
330
47
102
}
330
47
100
AcDbProxyObject
 90
      499
 91
      503
 93
      161
310
90A3122203D2031272D30224000000000000284000
  0
ACAD_PROXY_OBJECT
  5
65
102
{ACAD_REACTORS
330
47
102
}
330
47
100
AcDbProxyObject
 90
      499
 91
      503
 93
      257
310
90E312D312F3222203D2031272D30220000000000003E0FC000000000000284000
  0
ACAD_PROXY_OBJECT
  5
66
102
{ACAD_REACTORS
330
47
102
}
330
47
100
AcDbProxyObject
 90
      499
 91
      503
 93
      225
310
90A3322203D2031272D302200000000000002100000000000000284000
  0
ACAD_PROXY_OBJECT
  5
67
102
{ACAD_REACTORS
330
47
102
}
330
47
100
AcDbProxyObject
 90
      499
 91
      503
 93
      225
310
90A3622203D2031272D302200000000000006100000000000000284000
  0
ACAD_PROXY_OBJECT
  5
68
102
{ACAD_REACTORS
330
47
102
}
330
47
100
AcDbProxyObject
 90
      499
 91
      503
 93
      249
310
90D31272D3022203D2031272D30220000000000000A100000000000000284000
  0
ACAD_PROXY_OBJECT
  5
2F
102
{ACAD_REACTORS
330
2A
102
}
330
2A
100
AcDbProxyObject
 90
      499
 91
      501
 93
      436
310
42CC9915DA5C99599C985B595049028333333333333E33F0000000000000F90107901411070040501600405405064090741402480A0340
1001
ACAD
1000
AcDbSavedByObjectVersion
1070
     0
  0
ACAD_PROXY_OBJECT
  5
32
102
{ACAD_REACTORS
330
2A
102
}
330
2A
100
AcDbProxyObject
 90
      499
 91
      501
 93
      388
310
4150985CDA58D07406404333333333333E33F0000000000000F90107A41107004050150841D405064090741402480A0350
1001
ACAD
1000
AcDbSavedByObjectVersion
1070
     0
  0
ACAD_PROXY_OBJECT
  5
36
102
{ACAD_REACTORS
330
2A
102
}
330
2A
100
AcDbProxyObject
 90
      499
 91
      501
 93
      428
310
42109C9A59DA1D195B90C409028333333333333E33F0000000000000F9010790141107004050150841D405064090741402480A029950
1001
ACAD
1000
AcDbSavedByObjectVersion
1070
     0
  0
ACAD_PROXY_OBJECT
  5
3A
102
{ACAD_REACTORS
330
2A
102
}
330
2A
100
AcDbProxyObject
 90
      499
 91
      501
 93
      452
310
42D0DBDB1BDC90DA185B99D95104090240C333333333333E33F0000000000000F90108901411070040501508421405064090741402480A0350
1001
ACAD
1000
AcDbSavedByObjectVersion
1070
     0
  0
ACAD_PROXY_OBJECT
  5
34
102
{ACAD_REACTORS
330
2A
102
}
330
2A
100
AcDbProxyObject
 90
      499
 91
      501
 93
      500
310
4290DBDB98D95C1D1D585B10940D028333333333333E33F0000000000000F90107902409070040501000000000018199010841D405064090740C02480A0340
1001
ACAD
1000
AcDbSavedByObjectVersion
1070
     0
  0
ACAD_PROXY_OBJECT
  5
35
102
{ACAD_REACTORS
330
2A
102
}
330
2A
100
AcDbProxyObject
 90
      499
 91
      501
 93
      412
310
40D11A5B50B409028333333333333E33F0000000000000F9010790141107004050150841D405064090741402480A02677FFFFFD0
1001
ACAD
1000
AcDbSavedByObjectVersion
1070
     0
  0
ACAD_PROXY_OBJECT
  5
3D
102
{ACAD_REACTORS
330
2A
102
}
330
2A
100
AcDbProxyObject
 90
      499
 91
      501
 93
      452
310
43115919D950DBDB1BDC93D999916409028333333333333E33F0000000000000F9010790141107004050150841D405064090741402480A0350
1001
ACAD
1000
AcDbSavedByObjectVersion
1070
     0
  0
ACAD_PROXY_OBJECT
  5
39
102
{ACAD_REACTORS
330
2A
102
}
330
2A
100
AcDbProxyObject
 90
      499
 91
      501
 93
      444
310
42D19858D95C185D1D195C9B90F409028333333333333E33F0000000000000F9010790141107004050150841D405064090741402480A0350
1001
ACAD
1000
AcDbSavedByObjectVersion
1070
     0
  0
ACAD_PROXY_OBJECT
  5
2B
102
{ACAD_REACTORS
330
2A
102
}
330
2A
100
AcDbProxyObject
 90
      499
 91
      501
 93
      380
310
41119B185D240901404333333333333E33F0000000000000F9010740A907004050150841D405064090741402480A1B50
1001
ACAD
1000
AcDbSavedByObjectVersion
1070
     0
  0
ACAD_PROXY_OBJECT
  5
2C
102
{ACAD_REACTORS
330
2A
102
}
330
2A
100
AcDbProxyObject
 90
      499
 91
      501
 93
      468
310
43519B185D15DA5D1A115919D95CD0140901404333333333333E33F0000000000000F90107409019070040501600405405064090741402480A1B50
1001
ACAD
1000
AcDbSavedByObjectVersion
1070
     0
  0
ACAD_PROXY_OBJECT
  5
2D
102
{ACAD_REACTORS
330
2A
102
}
330
2A
100
AcDbProxyObject
 90
      499
 91
      501
 93
      404
310
41D1DBDD5C985D5910240902404333333333333E33F0000000000000F9010740A9070040501641D405064090741402480A1B50
1001
ACAD
1000
AcDbSavedByObjectVersion
1070
     0
  0
ACAD_PROXY_OBJECT
  5
2E
102
{ACAD_REACTORS
330
2A
102
}
330
2A
100
AcDbProxyObject
 90
      499
 91
      501
 93
      492
310
4411DBDD5C985D5915DA5D1A115919D95CD0340902404333333333333E33F0000000000000F90107409019070040501600405405064090741402480A1B50
1001
ACAD
1000
AcDbSavedByObjectVersion
1070
     0
  0
ACAD_PROXY_OBJECT
  5
31
102
{ACAD_REACTORS
330
2A
102
}
330
2A
100
AcDbProxyObject
 90
      499
 91
      501
 93
      476
310
41921A5919195B90640502408333333333333E33F0000000000000F901079024090700405020000000000001110200405405064090740C02480A0340
1001
ACAD
1000
AcDbSavedByObjectVersion
1070
     0
  0
ACAD_PROXY_OBJECT
  5
3B
102
{ACAD_REACTORS
330
2A
102
}
330
2A
100
AcDbProxyObject
 90
      499
 91
      501
 93
      428
310
42529A5D1D195C93D999914409028333333333333E33F0000000000000F9010790141107004050150A41D405064090741402480A0350
1001
ACAD
1000
AcDbSavedByObjectVersion
1070
     0
  0
ACAD_PROXY_OBJECT
  5
38
102
{ACAD_REACTORS
330
2A
102
}
330
2A
100
AcDbProxyObject
 90
      499
 91
      501
 93
      444
310
42D31A5B995C185D1D195C9B90E409028333333333333E33F0000000000000F9010790141107004050750841D405064090741402483A0350
1001
ACAD
1000
AcDbSavedByObjectVersion
1070
     0
  0
ACAD_PROXY_OBJECT
  5
3C
102
{ACAD_REACTORS
330
2A
102
}
330
2A
100
AcDbProxyObject
 90
      499
 91
      501
 93
      444
310
42D3DD995C9A185B99D3D999915409028333333333333E33F0000000000000F9010790141107004050150941D405064090741402480A0350
1001
ACAD
1000
AcDbSavedByObjectVersion
1070
     0
  0
ACAD_PROXY_OBJECT
  5
33
102
{ACAD_REACTORS
330
2A
102
}
330
2A
100
AcDbProxyObject
 90
      499
 91
      501
 93
      428
310
425499585B1A5CDD1A58D08409038333333333333E33F0000000000000F9010740A907004050150800405405064090740C02480A1B40
1001
ACAD
1000
AcDbSavedByObjectVersion
1070
     0
  0
ACAD_PROXY_OBJECT
  5
42
102
{ACAD_REACTORS
330
2A
102
}
330
2A
100
AcDbProxyObject
 90
      499
 91
      501
 93
      420
310
4194DA1859195911B40902404333333333333E33F0000000000000F9010740A41107004050150800405405064090840C02480A0B40
1001
ACAD
1000
AcDbSavedByObjectVersion
1070
     0
  0
ACAD_PROXY_OBJECT
  5
41
102
{ACAD_REACTORS
330
2A
102
}
330
2A
100
AcDbProxyObject
 90
      499
 91
      501
 93
      516
310
4454DA18591959081DDA5D1A08195919D95CD1A40902404333333333333E33F0000000000000F901074090142907004050250800405405064090740C02480A0B40
1001
ACAD
1000
AcDbSavedByObjectVersion
1070
     0
  0
ACAD_PROXY_OBJECT
  5
3E
102
{ACAD_REACTORS
330
2A
102
}
330
2A
100
AcDbProxyObject
 90
      499
 91
      501
 93
      532
310
4394DA1859195CC81BD98811DC985E5174090240C333333333333E33F0000000000000F901079024090741D01000000000000111010841D405064090740C02480A0340
1001
ACAD
1000
AcDbSavedByObjectVersion
1070
     0
  0
ACAD_PROXY_OBJECT
  5
3F
102
{ACAD_REACTORS
330
2A
102
}
330
2A
100
AcDbProxyObject
 90
      499
 91
      501
 93
      476
310
41D4DAD95D18DA1E51840502408333333333333E33F0000000000000F901079024090741D01000000000000111010B41D405064090741802480A0340
1001
ACAD
1000
AcDbSavedByObjectVersion
1070
     0
  0
ACAD_PROXY_OBJECT
  5
37
102
{ACAD_REACTORS
330
2A
102
}
330
2A
100
AcDbProxyObject
 90
      499
 91
      501
 93
      412
310
41D51A1A58DAD95B90D409028333333333333E33F0000000000000F9010790141107004050150C41D405064090741402480A0350
1001
ACAD
1000
AcDbSavedByObjectVersion
1070
     0
  0
ACAD_PROXY_OBJECT
  5
30
102
{ACAD_REACTORS
330
2A
102
}
330
2A
100
AcDbProxyObject
 90
      499
 91
      501
 93
      420
310
4255DA5C99599C985B595059028333333333333E33F0000000000000F90107901411070040501600405405064090740C02480A0340
1001
ACAD
1000
AcDbSavedByObjectVersion
1070
     0
  0
ACAD_PROXY_OBJECT
  5
40
102
{ACAD_REACTORS
330
2A
102
}
330
2A
100
AcDbProxyObject
 90
      499
 91
      501
 93
      404
310
41560B54985E51940902404000000000000E03F0000000000000F9010740501907004050150841D405064090740C02480A1B40
1001
ACAD
1000
AcDbSavedByObjectVersion
1070
     0
  0
XRECORD
  5
37C
102
{ACAD_REACTORS
330
373
102
}
330
373
100
AcDbXrecord
 90
        0
  0
XRECORD
  5
392
102
{ACAD_REACTORS
330
373
102
}
330
373
100
AcDbXrecord
1000
DSTYLE
1002
{
1070
   340
340
11
1002
}
  0
XRECORD
  5
37D
102
{ACAD_REACTORS
330
373
102
}
330
373
100
AcDbXrecord
  1
{8A40484E-B22E-4838-88F4-7413DAF65281}
  0
XRECORD
  5
376
102
{ACAD_REACTORS
330
373
102
}
330
373
100
AcDbXrecord
  1

  0
XRECORD
  5
37B
102
{ACAD_REACTORS
330
373
102
}
330
373
100
AcDbXrecord
 90
        1
  0
XRECORD
  5
378
102
{ACAD_REACTORS
330
373
102
}
330
373
100
AcDbXrecord
340
1A
  0
XRECORD
  5
37A
102
{ACAD_REACTORS
330
373
102
}
330
373
100
AcDbXrecord
 90
    10781
  0
XRECORD
  5
379
102
{ACAD_REACTORS
330
373
102
}
330
373
100
AcDbXrecord
340
19
  0
XRECORD
  5
37F
102
{ACAD_REACTORS
330
373
102
}
330
373
100
AcDbXrecord
 40
0.0
  0
XRECORD
  5
382
102
{ACAD_REACTORS
330
373
102
}
330
373
100
AcDbXrecord
340
0
  0
XRECORD
  5
388
102
{ACAD_REACTORS
330
373
102
}
330
373
100
AcDbXrecord
 10
0.0
 20
0.0
 30
0.0
  0
XRECORD
  5
384
102
{ACAD_REACTORS
330
373
102
}
330
373
100
AcDbXrecord
 10
0.0
 20
0.0
 30
0.0
  0
XRECORD
  5
387
102
{ACAD_REACTORS
330
373
102
}
330
373
100
AcDbXrecord
 10
0.0
 20
0.0
 30
0.0
  0
XRECORD
  5
385
102
{ACAD_REACTORS
330
373
102
}
330
373
100
AcDbXrecord
 10
0.0
 20
0.0
 30
0.0
  0
XRECORD
  5
386
102
{ACAD_REACTORS
330
373
102
}
330
373
100
AcDbXrecord
 10
0.0
 20
0.0
 30
0.0
  0
XRECORD
  5
383
102
{ACAD_REACTORS
330
373
102
}
330
373
100
AcDbXrecord
 10
0.0
 20
0.0
 30
0.0
  0
XRECORD
  5
380
102
{ACAD_REACTORS
330
373
102
}
330
373
100
AcDbXrecord
340
0
  0
XRECORD
  5
381
102
{ACAD_REACTORS
330
373
102
}
330
373
100
AcDbXrecord
 70
     0
  0
XRECORD
  5
377
102
{ACAD_REACTORS
330
373
102
}
330
373
100
AcDbXrecord
  1

  0
XRECORD
  5
374
102
{ACAD_REACTORS
330
373
102
}
330
373
100
AcDbXrecord
 90
        1
  0
XRECORD
  5
375
102
{ACAD_REACTORS
330
373
102
}
330
373
100
AcDbXrecord
 90
       70
  0
XRECORD
  5
38B
102
{ACAD_REACTORS
330
373
102
}
330
373
100
AcDbXrecord
340
0
  0
XRECORD
  5
391
102
{ACAD_REACTORS
330
373
102
}
330
373
100
AcDbXrecord
 10
0.0
 20
0.0
 30
0.0
  0
XRECORD
  5
38D
102
{ACAD_REACTORS
330
373
102
}
330
373
100
AcDbXrecord
 10
0.0
 20
0.0
 30
0.0
  0
XRECORD
  5
390
102
{ACAD_REACTORS
330
373
102
}
330
373
100
AcDbXrecord
 10
0.0
 20
0.0
 30
0.0
  0
XRECORD
  5
38E
102
{ACAD_REACTORS
330
373
102
}
330
373
100
AcDbXrecord
 10
0.0
 20
0.0
 30
0.0
  0
XRECORD
  5
38F
102
{ACAD_REACTORS
330
373
102
}
330
373
100
AcDbXrecord
 10
0.0
 20
0.0
 30
0.0
  0
XRECORD
  5
38C
102
{ACAD_REACTORS
330
373
102
}
330
373
100
AcDbXrecord
 10
0.0
 20
0.0
 30
0.0
  0
XRECORD
  5
389
102
{ACAD_REACTORS
330
373
102
}
330
373
100
AcDbXrecord
340
0
  0
XRECORD
  5
38A
102
{ACAD_REACTORS
330
373
102
}
330
373
100
AcDbXrecord
 70
     0
  0
XRECORD
  5
37E
102
{ACAD_REACTORS
330
373
102
}
330
373
100
AcDbXrecord
  1
{FAEB1C32-E019-11D5-929B-00C0DF256EC4}
  0
DICTIONARYVAR
  5
39C
102
{ACAD_REACTORS
330
393
102
}
330
393
100
DictionaryVariables
280
     0
  1
1:1
  0
DICTIONARYVAR
  5
398
102
{ACAD_REACTORS
330
393
102
}
330
393
100
DictionaryVariables
280
     0
  1
2
  0
DICTIONARYVAR
  5
399
102
{ACAD_REACTORS
330
393
102
}
330
393
100
DictionaryVariables
280
     0
  1
1
  0
DICTIONARYVAR
  5
39D
102
{ACAD_REACTORS
330
393
102
}
330
393
100
DictionaryVariables
280
     0
  1
1
  0
DICTIONARY
  5
3A0
330
45
100
AcDbDictionary
280
     1
  3
ACAD_XREC_ROUNDTRIP
360
3A1
  0
DICTIONARY
  5
39E
330
44
100
AcDbDictionary
280
     1
  3
ACAD_XREC_ROUNDTRIP
360
39F
  0
DICTIONARY
  5
3A2
330
46
100
AcDbDictionary
280
     1
  3
ACAD_XREC_ROUNDTRIP
360
3A3
  0
XRECORD
  5
3A1
102
{ACAD_REACTORS
330
3A0
102
}
330
3A0
100
AcDbXrecord
102
MATERIAL
148
0.0
149
0.0
149
0.0
 93
        0
 94
      127
282
     0
 72
     1
 77
     1
171
     1
175
     1
179
     1
273
     0
  0
XRECORD
  5
39F
102
{ACAD_REACTORS
330
39E
102
}
330
39E
100
AcDbXrecord
102
MATERIAL
148
0.0
149
0.0
149
0.0
 93
        0
 94
      127
282
     0
 72
     1
 77
     1
171
     1
175
     1
179
     1
273
     0
  0
XRECORD
  5
3A3
102
{ACAD_REACTORS
330
3A2
102
}
330
3A2
100
AcDbXrecord
102
MATERIAL
148
0.0
149
0.0
149
0.0
 93
        0
 94
      127
282
     0
 72
     1
 77
     1
171
     1
175
     1
179
     1
273
     0
  0
ENDSEC
  0
EOF
